<?xml version="1.0" standalone="no"?>
<!DOCTYPE svg PUBLIC "-//W3C//DTD SVG 1.1//EN" "http://www.w3.org/Graphics/SVG/1.1/DTD/svg11.dtd" >
<svg xmlns="http://www.w3.org/2000/svg" xmlns:xlink="http://www.w3.org/1999/xlink" version="1.1">
<metadata>
Created by FontForge 20161116 at Wed Feb  9 16:34:55 2011
 By Jimmy Warting
Copyright 2011 Monotype Imaging Inc. All rights reserved.
</metadata>
<defs>
<font id="HarmoniaSansProCyr-SemiBdCn" horiz-adv-x="365" >
  <font-face 
    font-family="Harmonia Sans Pro Cyr SemiBdCn"
    font-weight="600"
    font-stretch="condensed"
    units-per-em="1000"
    panose-1="2 11 6 6 3 4 2 2 2 4"
    ascent="730"
    descent="-270"
    x-height="479"
    cap-height="682"
    bbox="-157 -257 1081 945"
    underline-thickness="50"
    underline-position="-100"
    stemh="92"
    stemv="102"
    unicode-range="U+0020-FB04"
  />
<missing-glyph horiz-adv-x="500" 
d="M12 0v665h475v-665h-475zM88 618l162 -243l161 243h-323zM60 575v-484c0 -1 40 59 80 121c23 36 50 76 81 121zM440 575l-162 -242l162 -243v485zM411 48l-161 242l-162 -242h323z" />
    <glyph glyph-name="IJ" unicode="IJ" horiz-adv-x="541" 
d="M64 0v682h110v-682h-110zM372 186v496h110v-492c0 -149 -60 -206 -165 -206c-29 0 -58 5 -73 10v94c9 -3 34 -6 53 -6c55 0 75 24 75 104z" />
    <glyph glyph-name="ij" unicode="ij" horiz-adv-x="442" 
d="M60 0v479h101v-479h-101zM56 589v108h110v-108h-110zM281 479h101v-547c0 -109 -39 -167 -146 -167c-15 0 -34 3 -49 6v89c8 -3 25 -4 36 -4c44 0 58 20 58 75v548zM277 589v108h110v-108h-110z" />
    <glyph glyph-name="napostrophe" unicode="&#x27;n" horiz-adv-x="633" 
d="M192 0v479h101v-62c31 53 78 77 127 77c79 0 160 -53 160 -215v-279h-102v267c0 93 -32 133 -84 133c-63 0 -101 -47 -101 -155v-245h-101zM10 594v126h124v-65c0 -77 -21 -136 -52 -184h-61c23 35 34 79 37 123h-48z" />
    <glyph glyph-name="f_f" unicode="ff" horiz-adv-x="509" 
d="M16 389v90h55v77c0 116 40 171 149 171c16 0 39 -3 50 -6v-90c-12 3 -25 5 -38 5c-45 0 -59 -25 -59 -74v-83h151v77c0 116 40 171 148 171c17 0 40 -3 51 -6v-90c-12 3 -25 5 -38 5c-47 0 -59 -25 -59 -74v-83h81v-90h-81v-389h-102v389h-151v-389h-102v389h-55z" />
    <glyph glyph-name="fi" unicode="fi" horiz-adv-x="485" 
d="M16 389v90h55v77c0 116 40 171 149 171c16 0 39 -3 50 -6v-90c-12 3 -25 5 -38 5c-45 0 -59 -25 -59 -74v-83h81v-90h-81v-389h-102v389h-55zM324 0v479h101v-479h-101zM320 589v108h110v-108h-110z" />
    <glyph glyph-name="fl" unicode="fl" horiz-adv-x="488" 
d="M16 389v90h55v77c0 116 40 171 149 171c16 0 39 -3 50 -6v-90c-12 3 -25 5 -38 5c-45 0 -59 -25 -59 -74v-83h81v-90h-81v-389h-102v389h-55zM326 0v720h102v-720h-102z" />
    <glyph glyph-name="f_f_i" unicode="ffi" horiz-adv-x="738" 
d="M576 0v479h102v-479h-102zM572 589v108h111v-108h-111zM16 389v90h55v77c0 116 40 171 149 171c16 0 39 -3 50 -6v-90c-12 3 -25 5 -38 5c-45 0 -59 -25 -59 -74v-83h151v77c0 116 40 171 148 171c17 0 40 -3 51 -6v-90c-12 3 -25 5 -38 5c-47 0 -59 -25 -59 -74v-83h81
v-90h-81v-389h-102v389h-151v-389h-102v389h-55z" />
    <glyph glyph-name="f_f_l" unicode="ffl" horiz-adv-x="738" 
d="M576 0v720h102v-720h-102zM16 389v90h55v77c0 116 40 171 149 171c16 0 39 -3 50 -6v-90c-12 3 -25 5 -38 5c-45 0 -59 -25 -59 -74v-83h151v77c0 116 40 171 148 171c17 0 40 -3 51 -6v-90c-12 3 -25 5 -38 5c-47 0 -59 -25 -59 -74v-83h81v-90h-81v-389h-102v389h-151
v-389h-102v389h-55z" />
    <glyph glyph-name=".notdef" horiz-adv-x="500" 
d="M12 0v665h475v-665h-475zM88 618l162 -243l161 243h-323zM60 575v-484c0 -1 40 59 80 121c23 36 50 76 81 121zM440 575l-162 -242l162 -243v485zM411 48l-161 242l-162 -242h323z" />
    <glyph glyph-name="space" unicode=" " horiz-adv-x="250" 
 />
    <glyph glyph-name="exclam" unicode="!" horiz-adv-x="220" 
d="M55 0v109h110v-109h-110zM53 682h114l-11 -483h-92z" />
    <glyph glyph-name="quotedbl" unicode="&#x22;" horiz-adv-x="353" 
d="M44 721h96l-8 -233h-80zM213 721h95l-9 -233h-79z" />
    <glyph glyph-name="numbersign" unicode="#" horiz-adv-x="512" 
d="M406 482h97l-14 -68h-95l-28 -152h98l-12 -68h-99l-35 -194h-73l35 194h-103l-36 -194h-73l36 194h-96l14 68h94l27 152h-97l13 68h98l36 200h74l-37 -200h103l37 200h73zM320 414h-104l-27 -152h104z" />
    <glyph glyph-name="dollar" unicode="$" horiz-adv-x="505" 
d="M434 503h-103c-5 49 -35 76 -82 76c-51 0 -78 -31 -78 -68c0 -44 19 -65 116 -108c116 -50 162 -108 162 -202c0 -77 -49 -161 -153 -177v-75h-85v75c-109 12 -159 78 -163 178h107c3 -64 37 -97 98 -97s95 41 95 90c0 52 -24 85 -118 125c-119 51 -161 109 -161 185
c0 80 58 141 142 154v66h85v-66c95 -13 133 -81 138 -156z" />
    <glyph glyph-name="percent" unicode="%" horiz-adv-x="678" 
d="M496 682h80l-394 -682h-79zM29 511c0 133 74 187 139 187c60 0 136 -46 136 -185c0 -153 -84 -192 -136 -192c-62 0 -139 46 -139 190zM221 511c0 79 -19 113 -54 113c-31 0 -55 -29 -55 -112c0 -84 20 -117 56 -117c29 0 53 31 53 116zM373 174c0 133 74 187 139 187
c61 0 136 -47 136 -185c0 -154 -85 -192 -138 -192c-60 0 -137 46 -137 190zM565 173c0 80 -19 113 -55 113c-31 0 -54 -29 -54 -112c0 -84 20 -116 55 -116c28 0 54 30 54 115z" />
    <glyph glyph-name="ampersand" unicode="&#x26;" horiz-adv-x="537" 
d="M405 332v10h94v-8c0 -79 -26 -160 -57 -207c21 -29 42 -52 71 -52h8v-84c-7 -3 -23 -7 -34 -7c-44 0 -70 18 -107 66c-41 -39 -98 -66 -162 -66c-127 0 -195 82 -195 193c0 81 45 155 129 206c-27 43 -53 98 -53 158c0 80 50 157 159 157c88 0 158 -55 158 -151
c0 -86 -56 -138 -135 -186l101 -149c16 36 23 69 23 120zM222 72c36 0 79 19 106 51l-128 189c-51 -31 -73 -81 -73 -133c0 -65 38 -107 95 -107zM195 539c0 -41 16 -68 39 -107c56 31 87 61 87 112c0 39 -23 69 -64 69c-40 0 -62 -33 -62 -74z" />
    <glyph glyph-name="quotesingle" unicode="'" horiz-adv-x="185" 
d="M44 721h96l-8 -233h-80z" />
    <glyph glyph-name="parenleft" unicode="(" horiz-adv-x="294" 
d="M278 -215h-96c-89 137 -129 320 -129 478c0 162 41 341 129 480h96c-92 -137 -128 -319 -128 -480c0 -160 38 -340 128 -478z" />
    <glyph glyph-name="parenright" unicode=")" horiz-adv-x="294" 
d="M17 743h95c89 -137 129 -320 129 -478c0 -162 -41 -341 -129 -480h-95c91 144 128 319 128 480c0 158 -37 341 -128 478z" />
    <glyph glyph-name="asterisk" unicode="*" horiz-adv-x="368" 
d="M13 564l23 75l113 -42l-6 123h80l-6 -123l113 42l25 -73l-117 -31l77 -96l-67 -46l-65 102l-65 -102l-67 46l76 96z" />
    <glyph glyph-name="plus" unicode="+" horiz-adv-x="568" 
d="M519 223h-194v-223h-83v223h-194v83h194v224h83v-224h194v-83z" />
    <glyph glyph-name="comma" unicode="," horiz-adv-x="237" 
d="M52 0v130h132v-60c0 -88 -28 -161 -55 -205h-64c23 39 37 88 41 135h-54z" />
    <glyph glyph-name="hyphen" unicode="-" horiz-adv-x="386" 
d="M326 218h-266v92h266v-92z" />
    <glyph glyph-name="period" unicode="." horiz-adv-x="237" 
d="M52 0v130h132v-130h-132z" />
    <glyph glyph-name="slash" unicode="/" horiz-adv-x="337" 
d="M239 720h88l-260 -834h-88z" />
    <glyph glyph-name="zero" unicode="0" horiz-adv-x="505" 
d="M29 345c0 264 114 353 220 353c116 0 226 -76 226 -349c0 -302 -131 -365 -222 -365c-108 0 -224 75 -224 361zM365 345c0 183 -37 257 -113 257c-68 0 -113 -65 -113 -254c0 -197 40 -268 115 -268c63 0 111 65 111 265z" />
    <glyph glyph-name="one" unicode="1" horiz-adv-x="505" 
d="M207 0v583h-108v99h216v-682h-108z" />
    <glyph glyph-name="two" unicode="2" horiz-adv-x="505" 
d="M64 0v75l184 243c52 68 86 126 86 195c0 52 -27 89 -78 89c-47 0 -77 -37 -78 -105h-111c5 122 82 202 192 202c124 0 185 -85 185 -178c0 -91 -43 -160 -100 -236l-143 -186h255v-99h-392z" />
    <glyph glyph-name="three" unicode="3" horiz-adv-x="505" 
d="M166 519h-108c5 103 73 179 190 179s189 -73 189 -171c0 -75 -46 -133 -106 -152l1 -2c67 -16 126 -75 126 -178c0 -111 -76 -211 -209 -211c-136 0 -202 81 -210 195h110c4 -61 36 -100 100 -100c55 0 99 43 99 119c0 69 -36 121 -123 121h-38v93h35
c64 0 106 38 106 102c0 53 -32 89 -81 89c-51 0 -78 -37 -81 -84z" />
    <glyph glyph-name="four" unicode="4" horiz-adv-x="505" 
d="M468 136h-76v-136h-103v136h-257v91l258 455h103v-450h76zM245 435l-114 -203h158v208c0 40 1 53 2 81h-6c-11 -27 -20 -50 -40 -86z" />
    <glyph glyph-name="five" unicode="5" horiz-adv-x="505" 
d="M189 583l-14 -154c13 3 41 6 57 6c139 0 218 -78 218 -215c0 -132 -79 -236 -207 -236c-127 0 -195 71 -203 192h111c5 -61 33 -94 93 -94c53 0 97 41 97 133c0 71 -37 124 -130 124c-48 0 -100 -7 -144 -22l30 365h313v-99h-221z" />
    <glyph glyph-name="six" unicode="6" horiz-adv-x="505" 
d="M29 216c0 68 29 132 87 241l124 225h112l-134 -239c12 4 29 6 44 6c123 0 210 -91 210 -230c0 -136 -89 -235 -222 -235c-132 0 -221 88 -221 232zM137 215c0 -92 46 -135 113 -135c65 0 114 46 114 138c0 88 -42 137 -114 137c-68 0 -113 -53 -113 -140z" />
    <glyph glyph-name="seven" unicode="7" horiz-adv-x="505" 
d="M449 682v-92l-230 -590h-117l240 583h-278v99h385z" />
    <glyph glyph-name="eight" unicode="8" horiz-adv-x="505" 
d="M161 506c0 -63 37 -101 93 -101s90 42 90 101c0 61 -39 98 -92 98c-52 0 -91 -37 -91 -98zM150 196c0 -72 43 -118 102 -118c57 0 102 39 102 118c0 76 -44 117 -101 117c-60 0 -103 -49 -103 -117zM464 194c0 -118 -72 -209 -212 -209c-133 0 -212 86 -212 206
c0 84 43 140 108 171v2c-56 28 -89 84 -89 152c0 104 73 182 193 182s194 -83 194 -182c0 -76 -39 -129 -90 -152v-2c72 -35 108 -91 108 -168z" />
    <glyph glyph-name="nine" unicode="9" horiz-adv-x="505" 
d="M472 466c0 -70 -27 -131 -86 -241l-124 -225h-113l134 239c-11 -4 -28 -6 -43 -6c-125 0 -211 95 -211 230c0 136 89 235 223 235c133 0 220 -88 220 -232zM364 467c0 92 -45 135 -112 135c-65 0 -115 -46 -115 -138c0 -87 43 -137 115 -137c68 0 112 55 112 140z" />
    <glyph glyph-name="colon" unicode=":" horiz-adv-x="247" 
d="M57 338v130h132v-130h-132zM57 0v130h132v-130h-132z" />
    <glyph glyph-name="semicolon" unicode=";" horiz-adv-x="247" 
d="M57 0v130h132v-53c0 -100 -30 -169 -53 -212h-66c25 47 36 98 40 135h-53zM57 338v130h132v-130h-132z" />
    <glyph glyph-name="less" unicode="&#x3c;" horiz-adv-x="568" 
d="M508 0l-449 224v82l449 224v-98l-350 -166v-2l350 -165v-99z" />
    <glyph glyph-name="equal" unicode="=" horiz-adv-x="568" 
d="M519 335h-471v83h471v-83zM519 112h-471v83h471v-83z" />
    <glyph glyph-name="greater" unicode="&#x3e;" horiz-adv-x="568" 
d="M508 224l-449 -224v99l351 165v2l-351 166v98l449 -224v-82z" />
    <glyph glyph-name="question" unicode="?" horiz-adv-x="388" 
d="M280 339c-37 -43 -46 -78 -46 -140h-92c0 73 7 120 44 168c48 65 74 94 74 150c0 52 -25 84 -73 84s-75 -34 -75 -99h-102c3 127 68 196 180 196c111 0 177 -69 177 -173c0 -78 -29 -123 -87 -186zM134 0v109h109v-109h-109z" />
    <glyph glyph-name="at" unicode="@" horiz-adv-x="796" 
d="M750 356c0 -160 -82 -267 -181 -267c-56 0 -94 29 -101 77h-4c-27 -48 -71 -77 -119 -77c-76 0 -128 60 -128 167c0 155 82 267 186 267c41 0 72 -22 87 -65l8 52h77l-38 -248c-3 -19 -5 -38 -5 -53c0 -29 8 -49 47 -49c49 0 96 68 96 191c0 175 -87 279 -270 279
c-180 0 -284 -158 -284 -342c0 -192 104 -311 279 -311c71 0 134 15 173 36l23 -56c-47 -31 -120 -48 -203 -48c-212 0 -349 147 -349 380s150 409 365 409c210 0 341 -134 341 -342zM408 452c-67 0 -109 -96 -109 -189c0 -69 23 -102 63 -102c53 0 111 81 111 189
c0 61 -28 102 -65 102z" />
    <glyph glyph-name="A" unicode="A" horiz-adv-x="542" 
d="M-4 0l227 682h104l219 -682h-116l-49 169h-222l-51 -169h-112zM232 410l-48 -153h172l-45 154c-11 37 -27 99 -37 138h-4z" />
    <glyph glyph-name="B" unicode="B" horiz-adv-x="512" 
d="M64 0v682h178c137 0 205 -69 205 -173c0 -77 -46 -124 -101 -145v-2c89 -16 130 -88 130 -173c0 -119 -82 -189 -215 -189h-197zM365 200c0 68 -40 110 -112 110h-79v-218h84c73 0 107 40 107 108zM336 497c0 64 -36 93 -96 93h-66v-190h73c52 0 89 41 89 97z" />
    <glyph glyph-name="C" unicode="C" horiz-adv-x="592" 
d="M311 698c150 0 228 -94 244 -205h-115c-13 72 -62 106 -133 106c-87 0 -164 -78 -164 -257c0 -167 69 -259 166 -259c68 0 121 32 137 119h115c-28 -148 -118 -218 -251 -218c-167 0 -279 124 -279 359c0 227 121 355 280 355z" />
    <glyph glyph-name="D" unicode="D" horiz-adv-x="586" 
d="M175 100h93c100 0 174 62 174 241c0 175 -69 241 -174 241h-93v-482zM269 0h-204v682h204c180 0 286 -121 286 -341c0 -227 -121 -341 -286 -341z" />
    <glyph glyph-name="E" unicode="E" horiz-adv-x="444" 
d="M393 682v-100h-219v-181h209v-97h-209v-204h227v-100h-337v682h329z" />
    <glyph glyph-name="F" unicode="F" horiz-adv-x="431" 
d="M392 682v-100h-215v-195h206v-97h-206v-290h-110v682h325z" />
    <glyph glyph-name="G" unicode="G" horiz-adv-x="613" 
d="M293 372h289v-20c0 -245 -93 -368 -268 -368c-180 0 -283 141 -283 357c0 226 117 357 281 357c135 0 234 -74 253 -198h-114c-11 56 -57 99 -133 99c-104 0 -175 -84 -175 -251c0 -184 73 -265 173 -265c92 0 147 71 151 192h-174v97z" />
    <glyph glyph-name="H" unicode="H" horiz-adv-x="610" 
d="M435 0v303h-260v-303h-110v682h110v-280h260v280h110v-682h-110z" />
    <glyph glyph-name="I" unicode="I" horiz-adv-x="239" 
d="M64 0v682h110v-682h-110z" />
    <glyph glyph-name="J" unicode="J" horiz-adv-x="303" 
d="M133 186v496h110v-492c0 -149 -60 -206 -165 -206c-29 0 -58 5 -73 10v94c9 -3 34 -6 53 -6c55 0 75 24 75 104z" />
    <glyph glyph-name="K" unicode="K" horiz-adv-x="530" 
d="M400 0l-184 311l-41 -52v-259h-110v682h110v-280l213 280h127l-228 -289l242 -393h-129z" />
    <glyph glyph-name="L" unicode="L" horiz-adv-x="411" 
d="M67 0v682h110v-582h219v-100h-329z" />
    <glyph glyph-name="M" unicode="M" horiz-adv-x="733" 
d="M631 682l67 -682h-110l-30 355c-5 61 -9 113 -10 174h-4c-11 -51 -24 -122 -39 -178l-88 -351h-98l-92 346c-13 51 -32 129 -40 183h-4c-1 -43 -3 -102 -10 -179l-32 -350h-106l68 682h131l100 -382c8 -32 24 -101 32 -142h4c8 42 24 109 32 142l98 382h131z" />
    <glyph glyph-name="N" unicode="N" horiz-adv-x="598" 
d="M168 492h-3c0 -34 2 -102 2 -135v-357h-103v682h105l156 -281c50 -92 90 -176 106 -211h3c-1 41 -2 82 -2 122v370h102v-682h-104l-158 285c-60 108 -91 174 -104 207z" />
    <glyph glyph-name="O" unicode="O" horiz-adv-x="626" 
d="M143 341c0 -180 74 -258 169 -258c96 0 170 78 170 258c0 176 -68 258 -170 258c-95 0 -169 -80 -169 -258zM31 341c0 223 118 357 282 357c175 0 281 -138 281 -357c0 -228 -121 -357 -281 -357c-193 0 -282 160 -282 357z" />
    <glyph glyph-name="P" unicode="P" horiz-adv-x="494" 
d="M354 465c0 71 -32 122 -115 122h-64v-242h62c94 0 117 55 117 120zM65 0v682h175c125 0 227 -68 227 -216c0 -133 -80 -216 -233 -216h-59v-250h-110z" />
    <glyph glyph-name="Q" unicode="Q" horiz-adv-x="626" 
d="M31 341c0 223 118 357 282 357c175 0 281 -138 281 -357c0 -137 -43 -237 -112 -296l60 -108l-85 -46l-60 107c-27 -9 -55 -14 -84 -14c-193 0 -282 160 -282 357zM143 341c0 -180 74 -258 169 -258c12 0 24 2 35 6l-63 114l85 46l60 -108c33 43 53 108 53 200
c0 176 -68 258 -170 258c-95 0 -169 -80 -169 -258z" />
    <glyph glyph-name="R" unicode="R" horiz-adv-x="497" 
d="M332 292l173 -292h-124l-158 277h-49v-277h-110v682h189c140 0 208 -89 208 -198c0 -105 -57 -171 -129 -192zM348 477c0 72 -34 110 -101 110h-73v-220h76c67 0 98 49 98 110z" />
    <glyph glyph-name="S" unicode="S" horiz-adv-x="483" 
d="M438 521h-111c-4 53 -34 82 -81 82c-51 0 -84 -30 -84 -79c0 -48 15 -74 128 -125c117 -52 159 -125 159 -224c0 -91 -66 -191 -207 -191s-211 77 -215 200h114c1 -72 37 -105 101 -105c60 0 96 41 96 93c0 61 -26 101 -115 139c-137 59 -172 131 -172 212
c0 103 85 175 192 175c135 0 190 -79 195 -177z" />
    <glyph glyph-name="T" unicode="T" horiz-adv-x="394" 
d="M142 0v582h-135v100h380v-100h-135v-582h-110z" />
    <glyph glyph-name="U" unicode="U" horiz-adv-x="561" 
d="M288 -16c-130 0 -232 58 -232 277v421h110v-418c0 -124 34 -181 114 -181c88 0 116 57 116 181v418h109v-419c0 -218 -93 -279 -217 -279z" />
    <glyph glyph-name="V" unicode="V" horiz-adv-x="517" 
d="M519 682l-205 -682h-108c-37 118 -174 564 -209 682h114l112 -387c13 -47 26 -102 37 -149c11 47 26 104 39 151l110 385h110z" />
    <glyph glyph-name="W" unicode="W" horiz-adv-x="719" 
d="M457 0l-72 377c-12 61 -17 99 -22 148h-4c-5 -44 -10 -84 -21 -145l-70 -380h-117l-150 682h110l75 -377c13 -66 18 -101 23 -138h4c7 43 12 94 23 142l73 373h109l75 -376c9 -45 17 -97 21 -138h4c7 52 16 108 21 137l71 377h108l-139 -682h-122z" />
    <glyph glyph-name="X" unicode="X" horiz-adv-x="490" 
d="M135 682l76 -152c15 -29 24 -53 35 -78h2c11 29 21 55 33 80l75 150h118l-176 -326l184 -356h-122l-78 161c-15 31 -29 59 -40 90h-1c-12 -32 -26 -64 -39 -92l-74 -159h-120l183 352l-177 330h121z" />
    <glyph glyph-name="Y" unicode="Y" horiz-adv-x="477" 
d="M184 0v267l-184 415h118l92 -216c13 -31 23 -62 30 -90h3c9 29 19 57 31 89l87 217h115l-182 -414v-268h-110z" />
    <glyph glyph-name="Z" unicode="Z" horiz-adv-x="508" 
d="M47 582v100h414v-95l-298 -487h312v-100h-442v94l298 488h-284z" />
    <glyph glyph-name="bracketleft" unicode="[" horiz-adv-x="309" 
d="M259 728v-88h-91v-752h91v-88h-189v928h189z" />
    <glyph glyph-name="backslash" unicode="\" horiz-adv-x="358" 
d="M367 -114h-89l-273 834h88z" />
    <glyph glyph-name="bracketright" unicode="]" horiz-adv-x="309" 
d="M50 -200v88h91v752h-91v88h189v-928h-189z" />
    <glyph glyph-name="asciicircum" unicode="^" horiz-adv-x="564" 
d="M521 326h-99l-140 280h-2l-137 -280h-99l197 378h82z" />
    <glyph glyph-name="underscore" unicode="_" horiz-adv-x="469" 
d="M0 -235v86h469v-86h-469z" />
    <glyph glyph-name="grave" unicode="`" horiz-adv-x="271" 
d="M16 671l57 65l134 -135l-45 -48z" />
    <glyph glyph-name="a" unicode="a" horiz-adv-x="539" 
d="M479 479v-479h-102v62c-33 -48 -80 -78 -145 -78c-112 0 -203 100 -203 256c0 148 87 254 208 254c64 0 109 -30 140 -77v62h102zM133 240c0 -92 43 -164 126 -164c69 0 126 66 126 161c0 101 -52 165 -124 165c-83 0 -128 -69 -128 -162z" />
    <glyph glyph-name="b" unicode="b" horiz-adv-x="539" 
d="M60 0v720h102v-304c31 47 74 78 142 78c112 0 206 -100 206 -256c0 -148 -86 -254 -209 -254c-68 0 -112 32 -139 77v-61h-102zM406 238c0 95 -46 164 -127 164c-64 0 -125 -66 -125 -161c0 -101 56 -165 123 -165c80 0 129 63 129 162z" />
    <glyph glyph-name="c" unicode="c" horiz-adv-x="485" 
d="M257 494c120 0 180 -83 196 -156h-107c-13 39 -44 63 -91 63c-61 0 -122 -49 -122 -161c0 -99 51 -163 123 -163c53 0 83 30 96 71h107c-18 -79 -89 -164 -202 -164c-130 0 -228 97 -228 257c0 140 83 253 228 253z" />
    <glyph glyph-name="d" unicode="d" horiz-adv-x="539" 
d="M479 720v-720h-102v62c-31 -47 -74 -78 -142 -78c-112 0 -206 100 -206 256c0 148 86 254 210 254c68 0 111 -34 138 -77v303h102zM133 240c0 -93 45 -164 127 -164c65 0 125 66 125 161c0 101 -56 165 -123 165c-87 0 -129 -74 -129 -162z" />
    <glyph glyph-name="e" unicode="e" horiz-adv-x="487" 
d="M246 495c148 0 211 -125 211 -248c0 -12 -1 -26 -2 -35h-322c4 -85 49 -143 121 -143c44 0 75 22 90 53h106c-24 -74 -96 -139 -196 -139c-139 0 -225 102 -225 263c0 153 96 249 217 249zM134 291h219c-3 67 -40 121 -108 121c-64 0 -106 -58 -111 -121z" />
    <glyph glyph-name="f" unicode="f" horiz-adv-x="256" 
d="M16 389v90h55v77c0 116 40 171 149 171c16 0 39 -3 50 -6v-90c-12 3 -25 5 -38 5c-45 0 -59 -25 -59 -74v-83h81v-90h-81v-389h-102v389h-55z" />
    <glyph glyph-name="g" unicode="g" horiz-adv-x="544" 
d="M484 479v-485c0 -173 -87 -251 -230 -251c-120 0 -199 79 -210 188h102c4 -55 42 -96 113 -96c77 0 123 41 123 154v75c-33 -47 -82 -77 -145 -77c-119 0 -208 99 -208 254c0 143 84 253 207 253c72 0 117 -35 146 -82v67h102zM132 240c0 -94 47 -162 128 -162
c73 0 131 64 131 160c0 100 -54 164 -129 164c-82 0 -130 -68 -130 -162z" />
    <glyph glyph-name="h" unicode="h" horiz-adv-x="499" 
d="M60 0v720h101v-303c31 55 81 77 126 77c90 0 161 -59 161 -215v-279h-102v268c0 93 -32 132 -84 132c-63 0 -101 -46 -101 -154v-246h-101z" />
    <glyph glyph-name="i" unicode="i" horiz-adv-x="221" 
d="M60 0v479h101v-479h-101zM56 589v108h110v-108h-110z" />
    <glyph glyph-name="j" unicode="j" horiz-adv-x="221" 
d="M60 479h101v-547c0 -109 -39 -167 -146 -167c-15 0 -34 3 -49 6v89c8 -3 25 -4 36 -4c44 0 58 20 58 75v548zM56 589v108h110v-108h-110z" />
    <glyph glyph-name="k" unicode="k" horiz-adv-x="436" 
d="M318 0l-112 226l-44 -57v-169h-102v720h102v-425l142 184h117l-146 -181l157 -298h-114z" />
    <glyph glyph-name="l" unicode="l" horiz-adv-x="222" 
d="M60 0v720h102v-720h-102z" />
    <glyph glyph-name="m" unicode="m" horiz-adv-x="757" 
d="M60 0v479h102v-63c27 45 71 78 122 78c71 0 110 -38 129 -91c21 45 63 91 139 91c96 0 151 -74 151 -215v-279h-101v268c0 84 -20 132 -76 132c-52 0 -93 -43 -93 -150v-250h-102v268c0 92 -25 132 -76 132c-57 0 -93 -53 -93 -150v-250h-102z" />
    <glyph glyph-name="n" unicode="n" horiz-adv-x="502" 
d="M60 0v479h101v-62c31 53 78 77 127 77c79 0 160 -53 160 -215v-279h-102v267c0 93 -32 133 -84 133c-63 0 -101 -47 -101 -155v-245h-101z" />
    <glyph glyph-name="o" unicode="o" horiz-adv-x="515" 
d="M29 240c0 148 92 254 228 254c139 0 228 -110 228 -254c0 -141 -92 -256 -228 -256s-228 111 -228 256zM133 240c0 -101 56 -162 124 -162c75 0 124 63 124 162c0 93 -47 161 -124 161c-76 0 -124 -61 -124 -161z" />
    <glyph glyph-name="p" unicode="p" horiz-adv-x="539" 
d="M60 -235v714h102v-63c29 44 74 78 142 78c112 0 206 -100 206 -256c0 -148 -86 -254 -209 -254c-68 0 -112 34 -139 77v-296h-102zM406 238c0 91 -43 164 -127 164c-67 0 -125 -66 -125 -161c0 -101 56 -165 123 -165c85 0 129 70 129 162z" />
    <glyph glyph-name="q" unicode="q" horiz-adv-x="539" 
d="M479 479v-714h-102v297c-31 -44 -74 -78 -142 -78c-112 0 -206 100 -206 256c0 148 86 254 210 254c68 0 110 -33 138 -77v62h102zM133 240c0 -93 46 -164 127 -164c65 0 125 66 125 161c0 101 -56 165 -123 165c-87 0 -129 -74 -129 -162z" />
    <glyph glyph-name="r" unicode="r" horiz-adv-x="325" 
d="M305 490v-98c-11 3 -26 4 -39 4c-59 0 -104 -41 -104 -157v-239h-102v479h102v-69h3c16 43 51 84 104 84c13 0 25 -1 36 -4z" />
    <glyph glyph-name="s" unicode="s" horiz-adv-x="393" 
d="M351 360h-99c-3 35 -25 53 -56 53c-33 0 -54 -18 -54 -49s13 -50 80 -77c117 -48 138 -95 138 -159c0 -73 -59 -145 -167 -145c-99 0 -162 49 -169 148h101c3 -41 25 -66 70 -66c43 0 64 28 64 59c0 28 -15 53 -83 82c-92 37 -134 77 -134 152c0 72 51 137 155 137
c97 0 149 -64 154 -135z" />
    <glyph glyph-name="t" unicode="t" horiz-adv-x="282" 
d="M6 389v90h57v154h101v-154h98v-90h-98v-230c0 -56 15 -75 59 -75c12 0 28 1 43 4v-88c-17 -4 -48 -6 -63 -6c-100 0 -140 47 -140 159v236h-57z" />
    <glyph glyph-name="u" unicode="u" horiz-adv-x="502" 
d="M442 479v-479h-101v62c-29 -55 -78 -77 -122 -77c-80 0 -165 53 -165 215v279h101v-263c0 -93 32 -136 85 -136c61 0 101 42 101 154v245h101z" />
    <glyph glyph-name="v" unicode="v" horiz-adv-x="396" 
d="M400 479l-155 -479h-95l-155 479h107l66 -224c8 -30 24 -89 29 -124h2c5 33 22 95 30 124l64 224h107z" />
    <glyph glyph-name="w" unicode="w" horiz-adv-x="624" 
d="M610 479l-110 -479h-120l-53 270c-7 31 -12 81 -15 112h-4c-1 -31 -7 -81 -14 -112l-56 -270h-121l-103 479h98l49 -238c8 -39 17 -88 21 -128h4c4 40 14 88 23 128l50 238h107l48 -238c7 -36 17 -91 21 -128h4c3 37 13 89 22 128l50 238h99z" />
    <glyph glyph-name="x" unicode="x" horiz-adv-x="403" 
d="M6 0l140 245l-129 234h112l51 -101c9 -16 18 -41 23 -57h4c5 16 14 37 22 54l53 104h109l-132 -232l138 -247h-112l-59 116c-8 15 -19 39 -23 54h-5c-5 -15 -16 -40 -24 -56l-61 -114h-107z" />
    <glyph glyph-name="y" unicode="y" horiz-adv-x="415" 
d="M84 -235l78 239l-164 475h109l65 -203c12 -39 31 -99 40 -146h2c8 34 24 101 37 146l58 203h105l-228 -714h-102z" />
    <glyph glyph-name="z" unicode="z" horiz-adv-x="407" 
d="M41 390v89h326v-82l-212 -308h220v-89h-343v82l213 308h-204z" />
    <glyph glyph-name="braceleft" unicode="{" horiz-adv-x="322" 
d="M274 742v-91c-45 -3 -61 -30 -61 -79v-179c0 -57 -24 -109 -71 -129v-2c43 -17 71 -64 71 -135v-172c0 -49 16 -78 61 -79v-91c-96 0 -156 61 -156 162v187c0 45 -24 82 -71 85v87c47 4 71 40 71 84v188c0 97 45 163 156 164z" />
    <glyph glyph-name="bar" unicode="|" horiz-adv-x="315" 
d="M203 -210h-91v1000h91v-1000z" />
    <glyph glyph-name="braceright" unicode="}" horiz-adv-x="322" 
d="M47 651v91c112 -1 157 -67 157 -164v-188c0 -44 24 -80 71 -84v-87c-47 -3 -71 -40 -71 -85v-187c0 -101 -61 -162 -157 -162v91c45 1 61 30 61 79v172c0 71 28 118 71 135v2c-47 20 -71 72 -71 129v179c0 49 -16 76 -61 79z" />
    <glyph glyph-name="asciitilde" unicode="~" horiz-adv-x="568" 
d="M468 335l70 -42c-35 -69 -84 -117 -156 -117c-39 0 -70 12 -106 37c-41 27 -63 43 -91 43c-39 0 -64 -27 -87 -70l-70 42c31 67 83 115 154 115c43 0 72 -15 107 -38c39 -25 62 -42 93 -42c40 0 67 33 86 72z" />
    <glyph glyph-name="uni00A0" unicode="&#xa0;" horiz-adv-x="250" 
 />
    <glyph glyph-name="exclamdown" unicode="&#xa1;" horiz-adv-x="220" 
d="M165 682v-109h-110v109h110zM167 0h-114l11 483h92z" />
    <glyph glyph-name="cent" unicode="&#xa2;" horiz-adv-x="505" 
d="M217 0v94c-104 21 -178 113 -178 252c0 123 65 225 178 247v89h84v-86c98 -13 149 -87 162 -153h-107c-11 28 -29 47 -55 57v-313c31 11 50 35 61 66h107c-16 -72 -75 -145 -168 -161v-92h-84zM143 345c0 -75 29 -129 74 -152v302c-43 -20 -74 -67 -74 -150z" />
    <glyph glyph-name="sterling" unicode="&#xa3;" horiz-adv-x="505" 
d="M377 395v-83h-168c5 -27 9 -56 9 -83c0 -52 -23 -90 -46 -109c27 0 57 -8 85 -23c27 -12 51 -23 71 -23c28 0 48 20 49 87h105c-3 -125 -56 -183 -139 -183c-40 0 -77 12 -116 29s-64 26 -91 26c-36 0 -66 -15 -101 -36v94c64 21 83 79 83 127c0 35 -5 67 -12 94h-73v83
h52c-7 31 -13 72 -13 117c0 100 64 193 188 193c125 0 184 -80 189 -194h-106c-3 64 -30 100 -82 100c-56 0 -81 -39 -81 -107c0 -38 4 -74 11 -109h186z" />
    <glyph glyph-name="currency" unicode="&#xa4;" horiz-adv-x="615" 
d="M542 175l-51 -53l-68 68c-35 -25 -75 -37 -116 -37c-35 0 -78 9 -117 37l-67 -68l-51 53l69 65c-25 37 -37 75 -37 114s12 79 37 114l-69 66l51 53l67 -68c40 27 82 36 117 36c36 0 80 -11 115 -36l69 68l51 -53l-68 -66c27 -39 36 -79 36 -114c0 -37 -11 -77 -36 -114
c22 -23 45 -44 68 -65zM437 355c0 75 -63 129 -130 129c-74 0 -130 -60 -130 -129s59 -130 130 -130s130 59 130 130z" />
    <glyph glyph-name="yen" unicode="&#xa5;" horiz-adv-x="505" 
d="M46 281v77h113l-145 324h118l92 -216c12 -31 23 -62 30 -90h3c8 29 18 57 31 89l88 217h115l-145 -324h114v-77h-148l-4 -11v-75h152v-77h-152v-118h-110v118h-152v77h152v74l-6 12h-146z" />
    <glyph glyph-name="brokenbar" unicode="&#xa6;" horiz-adv-x="315" 
d="M203 390h-91v300h91v-300zM203 -110h-91v300h91v-300z" />
    <glyph glyph-name="section" unicode="&#xa7;" horiz-adv-x="390" 
d="M354 322c0 -51 -30 -91 -73 -114c35 -27 57 -64 57 -115c0 -75 -51 -144 -151 -144c-95 0 -149 58 -153 145h94c3 -39 21 -67 60 -67c37 0 60 27 60 62c0 31 -12 53 -83 90c-99 51 -125 93 -125 157c0 47 30 92 73 111c-37 27 -59 64 -59 116c0 72 51 135 144 135
c85 0 136 -54 139 -130h-88c-3 31 -21 52 -52 52c-33 0 -54 -24 -54 -55c0 -27 13 -51 99 -94c89 -46 112 -93 112 -149zM267 314c0 45 -35 69 -92 97c-28 -9 -48 -34 -48 -66c0 -44 35 -67 96 -100c25 11 44 34 44 69z" />
    <glyph glyph-name="dieresis" unicode="&#xa8;" horiz-adv-x="318" 
d="M31 588v104h102v-104h-102zM185 588v104h102v-104h-102z" />
    <glyph glyph-name="copyright" unicode="&#xa9;" horiz-adv-x="791" 
d="M32 341c0 200 163 363 363 363c201 0 363 -163 363 -363s-162 -363 -363 -363c-200 0 -363 163 -363 363zM396 554c96 0 156 -64 169 -140h-86c-11 41 -41 66 -84 66c-61 0 -102 -50 -102 -134c0 -75 38 -134 105 -134c43 0 74 29 85 74h86c-20 -87 -83 -147 -172 -147
c-113 0 -186 89 -186 209c0 118 80 206 185 206zM97 341c0 -164 136 -298 298 -298c165 0 299 134 299 298s-134 298 -299 298c-162 0 -298 -134 -298 -298z" />
    <glyph glyph-name="ordfeminine" unicode="&#xaa;" horiz-adv-x="357" 
d="M323 399v-63c-7 -3 -20 -5 -33 -5c-37 0 -59 19 -65 56c-19 -35 -57 -59 -97 -59c-57 0 -98 36 -98 101c0 71 61 126 192 139v8c0 43 -17 65 -50 65c-31 0 -49 -19 -54 -48h-75c11 68 60 111 131 111c79 0 126 -42 126 -138v-146c0 -15 5 -22 14 -22c4 0 7 0 9 1z
M222 491v25c-85 -11 -111 -48 -111 -82c0 -24 17 -39 40 -39c35 0 71 33 71 96z" />
    <glyph glyph-name="guillemotleft" unicode="&#xab;" horiz-adv-x="433" 
d="M36 240l107 207l69 -29l-67 -178l67 -178l-69 -29zM212 240l107 207l68 -29l-66 -178l66 -178l-68 -29z" />
    <glyph glyph-name="logicalnot" unicode="&#xac;" horiz-adv-x="568" 
d="M501 403v-306h-83v224h-370v83z" />
    <glyph glyph-name="uni00AD" unicode="&#xad;" horiz-adv-x="386" 
d="M326 218h-266v92h266v-92z" />
    <glyph glyph-name="registered" unicode="&#xae;" horiz-adv-x="495" 
d="M35 491c0 116 97 213 214 213c116 0 211 -97 211 -213c0 -118 -95 -212 -211 -212c-117 0 -214 94 -214 212zM79 491c0 -94 77 -169 170 -169s167 75 167 169c0 92 -74 169 -167 169s-170 -77 -170 -169zM295 467l66 -89h-63l-59 83h-20v-83h-56v231h94
c64 0 91 -36 91 -73c0 -35 -22 -61 -53 -69zM290 534c0 17 -9 32 -42 32h-29v-65h29c29 0 42 13 42 33z" />
    <glyph glyph-name="macron" unicode="&#xaf;" horiz-adv-x="318" 
d="M291 599h-264v77h264v-77z" />
    <glyph glyph-name="degree" unicode="&#xb0;" horiz-adv-x="367" 
d="M53 566c0 71 59 130 131 130s130 -59 130 -130c0 -72 -58 -131 -130 -131s-131 59 -131 131zM109 565c0 -43 32 -74 75 -74c41 0 75 31 75 74s-34 76 -75 76c-43 0 -75 -33 -75 -76z" />
    <glyph glyph-name="plusminus" unicode="&#xb1;" horiz-adv-x="568" 
d="M519 292h-194v-154h-83v154h-194v83h194v155h83v-155h194v-83zM519 0h-471v83h471v-83z" />
    <glyph glyph-name="twosuperior" unicode="&#xb2;" 
d="M48 423v59l122 149c31 39 57 71 57 110c0 33 -18 56 -47 56c-32 0 -46 -25 -49 -68h-86c3 78 47 141 140 141c82 0 134 -57 134 -126c0 -56 -24 -92 -78 -154l-79 -92h163v-75h-277z" />
    <glyph glyph-name="threesuperior" unicode="&#xb3;" 
d="M129 743h-85c3 73 50 127 135 127c87 0 133 -48 133 -113c0 -49 -32 -85 -75 -94v-3c56 -13 88 -53 88 -112c0 -72 -48 -139 -148 -139c-93 0 -139 54 -146 138h87c4 -45 24 -68 60 -68s58 31 58 75c0 36 -21 69 -73 69h-27v67h24c39 0 63 21 63 56c0 31 -15 55 -46 55
c-32 0 -45 -27 -48 -58z" />
    <glyph glyph-name="acute" unicode="&#xb4;" horiz-adv-x="271" 
d="M198 736l57 -65l-146 -118l-46 48z" />
    <glyph glyph-name="mu" unicode="&#xb5;" horiz-adv-x="527" 
d="M60 -235v714h104v-270c0 -90 28 -132 83 -132c61 0 96 50 96 150v252h105v-344c0 -36 12 -50 37 -50c6 0 15 2 20 3v-87c-13 -4 -30 -8 -47 -8c-50 0 -84 27 -96 78h-3c-27 -55 -72 -87 -127 -87c-24 0 -51 8 -76 30l-3 -2c9 -36 11 -81 11 -122v-125h-104z" />
    <glyph glyph-name="paragraph" unicode="&#xb6;" horiz-adv-x="508" 
d="M467 604h-52v-620h-80v620h-64v-620h-78v354c-96 3 -160 76 -160 173c0 109 81 171 166 171h268v-78z" />
    <glyph glyph-name="periodcentered" unicode="&#xb7;" horiz-adv-x="237" 
d="M52 288v130h132v-130h-132z" />
    <glyph glyph-name="cedilla" unicode="&#xb8;" horiz-adv-x="318" 
d="M135 0h55l-17 -41c57 -8 89 -41 89 -88c0 -65 -52 -101 -128 -101c-33 0 -66 9 -91 18l24 56c15 -7 42 -13 65 -13c33 0 53 16 53 40c0 27 -24 48 -85 48z" />
    <glyph glyph-name="onesuperior" unicode="&#xb9;" 
d="M145 423v360h-63v74h150v-434h-87z" />
    <glyph glyph-name="ordmasculine" unicode="&#xba;" horiz-adv-x="396" 
d="M28 516c0 120 74 188 170 188c100 0 170 -77 170 -188s-70 -188 -170 -188c-96 0 -170 71 -170 188zM109 516c0 -71 37 -115 89 -115s88 43 88 115c0 71 -36 115 -88 115c-51 0 -89 -34 -89 -115z" />
    <glyph glyph-name="guillemotright" unicode="&#xbb;" horiz-adv-x="433" 
d="M221 240l-107 -207l-68 29l66 178l-66 178l68 29zM397 240l-107 -207l-69 29l67 178l-67 178l69 29z" />
    <glyph glyph-name="onequarter" unicode="&#xbc;" horiz-adv-x="888" 
d="M145 248v360h-63v74h150v-434h-87zM591 682h80l-394 -682h-79zM863 78h-58v-78h-83v78h-179v67l183 289h79v-286h58v-70zM689 263l-74 -115h107v122c0 21 1 34 2 53h-3c-8 -17 -23 -45 -32 -60z" />
    <glyph glyph-name="onehalf" unicode="&#xbd;" horiz-adv-x="888" 
d="M145 248v360h-63v74h150v-434h-87zM586 682h80l-394 -682h-79zM571 0v59l122 149c31 39 57 71 57 110c0 33 -18 56 -47 56c-32 0 -46 -25 -49 -68h-86c3 78 47 141 140 141c82 0 134 -57 134 -126c0 -56 -24 -92 -78 -154l-79 -92h163v-75h-277z" />
    <glyph glyph-name="threequarters" unicode="&#xbe;" horiz-adv-x="888" 
d="M129 568h-85c3 73 50 127 135 127c87 0 133 -48 133 -113c0 -49 -32 -85 -75 -94v-3c56 -13 88 -53 88 -112c0 -72 -48 -139 -148 -139c-93 0 -139 54 -146 138h87c4 -45 24 -68 60 -68s58 31 58 75c0 36 -21 69 -73 69h-27v67h24c39 0 63 21 63 56c0 31 -15 55 -46 55
c-32 0 -45 -27 -48 -58zM611 682h80l-394 -682h-79zM863 78h-58v-78h-83v78h-179v67l183 289h79v-286h58v-70zM689 263l-74 -115h107v122c0 21 1 34 2 53h-3c-8 -17 -23 -45 -32 -60z" />
    <glyph glyph-name="questiondown" unicode="&#xbf;" horiz-adv-x="388" 
d="M108 343c38 43 45 77 45 140h92c0 -73 -7 -120 -44 -168c-49 -65 -73 -94 -73 -150c0 -52 25 -84 72 -84c48 0 75 34 75 99h102c-3 -127 -68 -196 -180 -196c-111 0 -176 69 -176 173c0 79 28 122 87 186zM254 682v-109h-109v109h109z" />
    <glyph glyph-name="Agrave" unicode="&#xc0;" horiz-adv-x="542" 
d="M-4 0l227 682h104l219 -682h-116l-49 169h-222l-51 -169h-112zM232 410l-48 -153h172l-45 154c-11 37 -27 99 -37 138h-4zM156 826l43 74l158 -108l-36 -55z" />
    <glyph glyph-name="Aacute" unicode="&#xc1;" horiz-adv-x="542" 
d="M-4 0l227 682h104l219 -682h-116l-49 169h-222l-51 -169h-112zM232 410l-48 -153h172l-45 154c-11 37 -27 99 -37 138h-4zM355 900l43 -74l-165 -89l-36 55z" />
    <glyph glyph-name="Acircumflex" unicode="&#xc2;" horiz-adv-x="542" 
d="M-4 0l227 682h104l219 -682h-116l-49 169h-222l-51 -169h-112zM232 410l-48 -153h172l-45 154c-11 37 -27 99 -37 138h-4zM275 886l141 -95l-33 -55l-108 55l-109 -55l-32 55z" />
    <glyph glyph-name="Atilde" unicode="&#xc3;" horiz-adv-x="542" 
d="M-4 0l227 682h104l219 -682h-116l-49 169h-222l-51 -169h-112zM232 410l-48 -153h172l-45 154c-11 37 -27 99 -37 138h-4zM191 767h-69c4 81 29 126 93 126c27 0 48 -13 68 -29c31 -27 38 -29 49 -29c15 0 26 10 27 50h69c-3 -84 -39 -127 -95 -127c-31 0 -50 12 -73 31
s-33 27 -44 27c-16 0 -24 -16 -25 -49z" />
    <glyph glyph-name="Adieresis" unicode="&#xc4;" horiz-adv-x="542" 
d="M-4 0l227 682h104l219 -682h-116l-49 169h-222l-51 -169h-112zM232 410l-48 -153h172l-45 154c-11 37 -27 99 -37 138h-4zM142 771v104h102v-104h-102zM306 771v104h102v-104h-102z" />
    <glyph glyph-name="Aring" unicode="&#xc5;" horiz-adv-x="542" 
d="M-4 0l227 682h104l219 -682h-116l-49 169h-222l-51 -169h-112zM232 410l-48 -153h172l-45 154c-11 37 -27 99 -37 138h-4zM220 829c0 -31 24 -56 55 -56s55 25 55 56s-24 54 -55 54s-55 -23 -55 -54zM161 829c0 63 50 113 114 113c63 0 114 -50 114 -113
s-51 -115 -114 -115c-64 0 -114 52 -114 115z" />
    <glyph glyph-name="AE" unicode="&#xc6;" horiz-adv-x="732" 
d="M681 682v-100h-219v-181h209v-97h-209v-204h227v-100h-332v169h-185l-70 -169h-112l293 682h398zM206 257h151v333h-15z" />
    <glyph glyph-name="Ccedilla" unicode="&#xc7;" horiz-adv-x="592" 
d="M311 698c150 0 228 -94 244 -205h-115c-13 72 -62 106 -133 106c-87 0 -164 -78 -164 -257c0 -167 69 -259 166 -259c68 0 121 32 137 119h115c-27 -141 -110 -210 -233 -217l-10 -26c57 -8 89 -41 89 -88c0 -65 -51 -101 -127 -101c-33 0 -67 9 -92 18l24 56
c15 -7 42 -13 66 -13c32 0 52 16 52 40c0 27 -24 48 -85 48l29 68c-147 16 -243 140 -243 356c0 227 121 355 280 355z" />
    <glyph glyph-name="Egrave" unicode="&#xc8;" horiz-adv-x="444" 
d="M393 682v-100h-219v-181h209v-97h-209v-204h227v-100h-337v682h329zM108 826l43 74l158 -108l-36 -55z" />
    <glyph glyph-name="Eacute" unicode="&#xc9;" horiz-adv-x="444" 
d="M393 682v-100h-219v-181h209v-97h-209v-204h227v-100h-337v682h329zM302 900l43 -74l-165 -89l-36 55z" />
    <glyph glyph-name="Ecircumflex" unicode="&#xca;" horiz-adv-x="444" 
d="M393 682v-100h-219v-181h209v-97h-209v-204h227v-100h-337v682h329zM227 886l141 -95l-33 -55l-108 55l-109 -55l-32 55z" />
    <glyph glyph-name="Edieresis" unicode="&#xcb;" horiz-adv-x="444" 
d="M393 682v-100h-219v-181h209v-97h-209v-204h227v-100h-337v682h329zM94 771v104h102v-104h-102zM258 771v104h102v-104h-102z" />
    <glyph glyph-name="Igrave" unicode="&#xcc;" horiz-adv-x="239" 
d="M64 0v682h110v-682h-110zM0 826l43 74l158 -108l-36 -55z" />
    <glyph glyph-name="Iacute" unicode="&#xcd;" horiz-adv-x="239" 
d="M64 0v682h110v-682h-110zM195 900l43 -74l-165 -89l-36 55z" />
    <glyph glyph-name="Icircumflex" unicode="&#xce;" horiz-adv-x="239" 
d="M64 0v682h110v-682h-110zM119 886l141 -95l-33 -55l-108 55l-109 -55l-32 55z" />
    <glyph glyph-name="Idieresis" unicode="&#xcf;" horiz-adv-x="239" 
d="M64 0v682h110v-682h-110zM-14 771v104h102v-104h-102zM150 771v104h102v-104h-102z" />
    <glyph glyph-name="Eth" unicode="&#xd0;" horiz-adv-x="606" 
d="M289 0h-204v308h-70v89h70v285h204c180 0 286 -121 286 -341c0 -227 -121 -341 -286 -341zM195 100h93c100 0 174 62 174 241c0 175 -69 241 -174 241h-93v-185h138v-89h-138v-208z" />
    <glyph glyph-name="Ntilde" unicode="&#xd1;" horiz-adv-x="598" 
d="M168 492h-3c0 -34 2 -102 2 -135v-357h-103v682h105l156 -281c50 -92 90 -176 106 -211h3c-1 41 -2 82 -2 122v370h102v-682h-104l-158 285c-60 108 -91 174 -104 207zM216 767h-69c4 81 29 126 93 126c27 0 48 -13 68 -29c31 -27 38 -29 49 -29c15 0 26 10 27 50h69
c-3 -84 -39 -127 -95 -127c-31 0 -50 12 -73 31s-33 27 -44 27c-16 0 -24 -16 -25 -49z" />
    <glyph glyph-name="Ograve" unicode="&#xd2;" horiz-adv-x="626" 
d="M143 341c0 -180 74 -258 169 -258c96 0 170 78 170 258c0 176 -68 258 -170 258c-95 0 -169 -80 -169 -258zM31 341c0 223 118 357 282 357c175 0 281 -138 281 -357c0 -228 -121 -357 -281 -357c-193 0 -282 160 -282 357zM199 826l43 74l158 -108l-36 -55z" />
    <glyph glyph-name="Oacute" unicode="&#xd3;" horiz-adv-x="626" 
d="M143 341c0 -180 74 -258 169 -258c96 0 170 78 170 258c0 176 -68 258 -170 258c-95 0 -169 -80 -169 -258zM31 341c0 223 118 357 282 357c175 0 281 -138 281 -357c0 -228 -121 -357 -281 -357c-193 0 -282 160 -282 357zM388 900l43 -74l-165 -89l-36 55z" />
    <glyph glyph-name="Ocircumflex" unicode="&#xd4;" horiz-adv-x="626" 
d="M143 341c0 -180 74 -258 169 -258c96 0 170 78 170 258c0 176 -68 258 -170 258c-95 0 -169 -80 -169 -258zM31 341c0 223 118 357 282 357c175 0 281 -138 281 -357c0 -228 -121 -357 -281 -357c-193 0 -282 160 -282 357zM315 886l141 -95l-33 -55l-108 55l-109 -55
l-32 55z" />
    <glyph glyph-name="Otilde" unicode="&#xd5;" horiz-adv-x="626" 
d="M143 341c0 -180 74 -258 169 -258c96 0 170 78 170 258c0 176 -68 258 -170 258c-95 0 -169 -80 -169 -258zM31 341c0 223 118 357 282 357c175 0 281 -138 281 -357c0 -228 -121 -357 -281 -357c-193 0 -282 160 -282 357zM231 767h-69c4 81 29 126 93 126
c27 0 48 -13 68 -29c31 -27 38 -29 49 -29c15 0 26 10 27 50h69c-3 -84 -39 -127 -95 -127c-31 0 -50 12 -73 31s-33 27 -44 27c-16 0 -24 -16 -25 -49z" />
    <glyph glyph-name="Odieresis" unicode="&#xd6;" horiz-adv-x="626" 
d="M143 341c0 -180 74 -258 169 -258c96 0 170 78 170 258c0 176 -68 258 -170 258c-95 0 -169 -80 -169 -258zM31 341c0 223 118 357 282 357c175 0 281 -138 281 -357c0 -228 -121 -357 -281 -357c-193 0 -282 160 -282 357zM182 771v104h102v-104h-102zM346 771v104h102
v-104h-102z" />
    <glyph glyph-name="multiply" unicode="&#xd7;" horiz-adv-x="568" 
d="M447 44l-164 164l-163 -164l-57 57l163 164l-163 163l57 57l163 -163l164 163l57 -57l-164 -163l164 -164z" />
    <glyph glyph-name="Oslash" unicode="&#xd8;" horiz-adv-x="626" 
d="M64 -39l55 103c-60 67 -88 164 -88 277c0 223 118 357 282 357c46 0 87 -10 124 -29l44 82l72 -36l-50 -96c59 -61 91 -157 91 -278c0 -228 -121 -357 -281 -357c-51 0 -93 11 -129 30l-47 -90zM482 341c0 73 -12 131 -35 172l-215 -406c23 -16 49 -24 80 -24
c96 0 170 78 170 258zM143 341c0 -72 12 -127 33 -167l213 404c-22 14 -48 21 -77 21c-95 0 -169 -80 -169 -258z" />
    <glyph glyph-name="Ugrave" unicode="&#xd9;" horiz-adv-x="561" 
d="M288 -16c-130 0 -232 58 -232 277v421h110v-418c0 -124 34 -181 114 -181c88 0 116 57 116 181v418h109v-419c0 -218 -93 -279 -217 -279zM154 826l43 74l158 -108l-36 -55z" />
    <glyph glyph-name="Uacute" unicode="&#xda;" horiz-adv-x="561" 
d="M288 -16c-130 0 -232 58 -232 277v421h110v-418c0 -124 34 -181 114 -181c88 0 116 57 116 181v418h109v-419c0 -218 -93 -279 -217 -279zM359 900l43 -74l-165 -89l-36 55z" />
    <glyph glyph-name="Ucircumflex" unicode="&#xdb;" horiz-adv-x="561" 
d="M288 -16c-130 0 -232 58 -232 277v421h110v-418c0 -124 34 -181 114 -181c88 0 116 57 116 181v418h109v-419c0 -218 -93 -279 -217 -279zM281 886l141 -95l-33 -55l-108 55l-109 -55l-32 55z" />
    <glyph glyph-name="Udieresis" unicode="&#xdc;" horiz-adv-x="561" 
d="M288 -16c-130 0 -232 58 -232 277v421h110v-418c0 -124 34 -181 114 -181c88 0 116 57 116 181v418h109v-419c0 -218 -93 -279 -217 -279zM148 771v104h102v-104h-102zM312 771v104h102v-104h-102z" />
    <glyph glyph-name="Yacute" unicode="&#xdd;" horiz-adv-x="477" 
d="M184 0v267l-184 415h118l92 -216c13 -31 23 -62 30 -90h3c9 29 19 57 31 89l87 217h115l-182 -414v-268h-110zM314 900l43 -74l-165 -89l-36 55z" />
    <glyph glyph-name="Thorn" unicode="&#xde;" horiz-adv-x="494" 
d="M354 350c0 63 -32 107 -115 107h-64v-212h62c94 0 117 48 117 105zM65 0v682h110v-129h68c125 0 224 -64 224 -201c0 -125 -77 -202 -230 -202h-62v-150h-110z" />
    <glyph glyph-name="germandbls" unicode="&#xdf;" horiz-adv-x="538" 
d="M217 367c0 40 15 70 58 109c28 25 45 48 45 87s-26 74 -75 74c-53 0 -83 -33 -83 -105v-532h-102v535c0 121 65 192 185 192c109 0 177 -65 177 -169c0 -55 -23 -93 -66 -126c-27 -21 -39 -38 -39 -62c0 -31 12 -45 79 -77c90 -42 112 -99 112 -165
c0 -75 -55 -145 -162 -145c-96 0 -150 50 -154 143h101c3 -39 18 -60 57 -60c40 0 56 27 56 58c0 37 -10 63 -61 88c-85 43 -128 77 -128 155z" />
    <glyph glyph-name="agrave" unicode="&#xe0;" horiz-adv-x="539" 
d="M479 479v-479h-102v62c-33 -48 -80 -78 -145 -78c-112 0 -203 100 -203 256c0 148 87 254 208 254c64 0 109 -30 140 -77v62h102zM133 240c0 -92 43 -164 126 -164c69 0 126 66 126 161c0 101 -52 165 -124 165c-83 0 -128 -69 -128 -162zM136 671l57 65l134 -135
l-45 -48z" />
    <glyph glyph-name="aacute" unicode="&#xe1;" horiz-adv-x="539" 
d="M479 479v-479h-102v62c-33 -48 -80 -78 -145 -78c-112 0 -203 100 -203 256c0 148 87 254 208 254c64 0 109 -30 140 -77v62h102zM133 240c0 -92 43 -164 126 -164c69 0 126 66 126 161c0 101 -52 165 -124 165c-83 0 -128 -69 -128 -162zM318 736l57 -65l-146 -118
l-46 48z" />
    <glyph glyph-name="acircumflex" unicode="&#xe2;" horiz-adv-x="539" 
d="M479 479v-479h-102v62c-33 -48 -80 -78 -145 -78c-112 0 -203 100 -203 256c0 148 87 254 208 254c64 0 109 -30 140 -77v62h102zM133 240c0 -92 43 -164 126 -164c69 0 126 66 126 161c0 101 -52 165 -124 165c-83 0 -128 -69 -128 -162zM256 724l143 -118l-40 -52
l-103 75l-103 -75l-40 52z" />
    <glyph glyph-name="atilde" unicode="&#xe3;" horiz-adv-x="539" 
d="M479 479v-479h-102v62c-33 -48 -80 -78 -145 -78c-112 0 -203 100 -203 256c0 148 87 254 208 254c64 0 109 -30 140 -77v62h102zM133 240c0 -92 43 -164 126 -164c69 0 126 66 126 161c0 101 -52 165 -124 165c-83 0 -128 -69 -128 -162zM172 589h-69
c4 81 29 126 93 126c27 0 48 -13 68 -29c31 -25 38 -28 49 -28c15 0 26 9 27 49h69c-3 -84 -39 -127 -95 -127c-31 0 -50 12 -73 31s-33 27 -44 27c-16 0 -24 -16 -25 -49z" />
    <glyph glyph-name="adieresis" unicode="&#xe4;" horiz-adv-x="539" 
d="M479 479v-479h-102v62c-33 -48 -80 -78 -145 -78c-112 0 -203 100 -203 256c0 148 87 254 208 254c64 0 109 -30 140 -77v62h102zM133 240c0 -92 43 -164 126 -164c69 0 126 66 126 161c0 101 -52 165 -124 165c-83 0 -128 -69 -128 -162zM128 588v104h102v-104h-102z
M282 588v104h102v-104h-102z" />
    <glyph glyph-name="aring" unicode="&#xe5;" horiz-adv-x="539" 
d="M479 479v-479h-102v62c-33 -48 -80 -78 -145 -78c-112 0 -203 100 -203 256c0 148 87 254 208 254c64 0 109 -30 140 -77v62h102zM133 240c0 -92 43 -164 126 -164c69 0 126 66 126 161c0 101 -52 165 -124 165c-83 0 -128 -69 -128 -162zM201 643c0 -31 24 -56 55 -56
s55 25 55 56s-24 55 -55 55s-55 -24 -55 -55zM142 643c0 63 50 114 114 114c63 0 114 -51 114 -114s-51 -115 -114 -115c-64 0 -114 52 -114 115z" />
    <glyph glyph-name="ae" unicode="&#xe6;" horiz-adv-x="765" 
d="M237 494c72 0 118 -22 149 -69c33 47 84 70 143 70c144 0 206 -124 206 -247c0 -12 -1 -27 -2 -36h-306c0 -97 40 -143 109 -143c41 0 73 22 86 53h106c-24 -74 -93 -139 -191 -139c-81 0 -134 33 -165 94c-37 -59 -102 -94 -181 -94c-113 0 -159 73 -159 150
c0 108 86 158 227 158h72v26c0 61 -35 96 -88 96c-57 0 -90 -25 -94 -62h-98c3 71 67 143 186 143zM427 291h204c-3 76 -43 121 -102 121c-57 0 -99 -46 -102 -121zM331 212h-69c-84 0 -126 -29 -126 -80c0 -47 35 -66 71 -66c77 0 124 69 124 146z" />
    <glyph glyph-name="ccedilla" unicode="&#xe7;" horiz-adv-x="485" 
d="M257 495c118 0 180 -82 196 -154h-107c-13 39 -46 62 -91 62c-61 0 -122 -54 -122 -163c0 -95 51 -164 123 -164c53 0 83 31 96 72h107c-22 -82 -80 -158 -186 -163l-10 -26c57 -8 89 -41 89 -88c0 -65 -52 -101 -128 -101c-33 0 -66 9 -91 18l24 56c15 -7 42 -13 65 -13
c33 0 53 16 53 40c0 27 -24 48 -85 48l29 69c-110 19 -190 109 -190 253c0 140 83 254 228 254z" />
    <glyph glyph-name="egrave" unicode="&#xe8;" horiz-adv-x="487" 
d="M246 495c148 0 211 -125 211 -248c0 -12 -1 -26 -2 -35h-322c4 -85 49 -143 121 -143c44 0 75 22 90 53h106c-24 -74 -96 -139 -196 -139c-139 0 -225 102 -225 263c0 153 96 249 217 249zM134 291h219c-3 67 -40 121 -108 121c-64 0 -106 -58 -111 -121zM125 671l57 65
l134 -135l-45 -48z" />
    <glyph glyph-name="eacute" unicode="&#xe9;" horiz-adv-x="487" 
d="M246 495c148 0 211 -125 211 -248c0 -12 -1 -26 -2 -35h-322c4 -85 49 -143 121 -143c44 0 75 22 90 53h106c-24 -74 -96 -139 -196 -139c-139 0 -225 102 -225 263c0 153 96 249 217 249zM134 291h219c-3 67 -40 121 -108 121c-64 0 -106 -58 -111 -121zM307 736l57 -65
l-146 -118l-46 48z" />
    <glyph glyph-name="ecircumflex" unicode="&#xea;" horiz-adv-x="487" 
d="M246 495c148 0 211 -125 211 -248c0 -12 -1 -26 -2 -35h-322c4 -85 49 -143 121 -143c44 0 75 22 90 53h106c-24 -74 -96 -139 -196 -139c-139 0 -225 102 -225 263c0 153 96 249 217 249zM134 291h219c-3 67 -40 121 -108 121c-64 0 -106 -58 -111 -121zM250 724
l143 -118l-40 -52l-103 75l-103 -75l-40 52z" />
    <glyph glyph-name="edieresis" unicode="&#xeb;" horiz-adv-x="487" 
d="M246 495c148 0 211 -125 211 -248c0 -12 -1 -26 -2 -35h-322c4 -85 49 -143 121 -143c44 0 75 22 90 53h106c-24 -74 -96 -139 -196 -139c-139 0 -225 102 -225 263c0 153 96 249 217 249zM134 291h219c-3 67 -40 121 -108 121c-64 0 -106 -58 -111 -121zM117 588v104
h102v-104h-102zM271 588v104h102v-104h-102z" />
    <glyph glyph-name="igrave" unicode="&#xec;" horiz-adv-x="221" 
d="M60 0v479h101v-479h-101zM-11 671l57 65l134 -135l-45 -48z" />
    <glyph glyph-name="iacute" unicode="&#xed;" horiz-adv-x="221" 
d="M60 0v479h101v-479h-101zM171 736l57 -65l-146 -118l-46 48z" />
    <glyph glyph-name="icircumflex" unicode="&#xee;" horiz-adv-x="221" 
d="M60 0v479h101v-479h-101zM109 724l143 -118l-40 -52l-103 75l-103 -75l-40 52z" />
    <glyph glyph-name="idieresis" unicode="&#xef;" horiz-adv-x="221" 
d="M60 0v479h101v-479h-101zM-19 588v104h102v-104h-102zM135 588v104h102v-104h-102z" />
    <glyph glyph-name="eth" unicode="&#xf0;" horiz-adv-x="515" 
d="M172 520l-35 66l86 45c-28 32 -58 61 -93 89h118c18 -15 36 -30 53 -47l89 48l35 -66l-72 -39c88 -119 132 -245 132 -376c0 -151 -96 -256 -228 -256c-136 0 -228 111 -228 256c0 148 93 253 226 253c23 0 54 -6 77 -22l2 2c-12 29 -40 72 -63 100zM133 240
c0 -101 56 -162 124 -162c73 0 124 58 124 162c0 97 -43 161 -124 161c-76 0 -124 -61 -124 -161z" />
    <glyph glyph-name="ntilde" unicode="&#xf1;" horiz-adv-x="502" 
d="M60 0v479h101v-62c31 53 78 77 127 77c79 0 160 -53 160 -215v-279h-102v267c0 93 -32 133 -84 133c-63 0 -101 -47 -101 -155v-245h-101zM172 589h-69c4 81 29 126 93 126c27 0 48 -13 68 -29c31 -25 38 -28 49 -28c15 0 26 9 27 49h69c-3 -84 -39 -127 -95 -127
c-31 0 -50 12 -73 31s-33 27 -44 27c-16 0 -24 -16 -25 -49z" />
    <glyph glyph-name="ograve" unicode="&#xf2;" horiz-adv-x="515" 
d="M29 240c0 148 92 254 228 254c139 0 228 -110 228 -254c0 -141 -92 -256 -228 -256s-228 111 -228 256zM133 240c0 -101 56 -162 124 -162c75 0 124 63 124 162c0 93 -47 161 -124 161c-76 0 -124 -61 -124 -161zM141 671l57 65l134 -135l-45 -48z" />
    <glyph glyph-name="oacute" unicode="&#xf3;" horiz-adv-x="515" 
d="M29 240c0 148 92 254 228 254c139 0 228 -110 228 -254c0 -141 -92 -256 -228 -256s-228 111 -228 256zM133 240c0 -101 56 -162 124 -162c75 0 124 63 124 162c0 93 -47 161 -124 161c-76 0 -124 -61 -124 -161zM316 736l57 -65l-146 -118l-46 48z" />
    <glyph glyph-name="ocircumflex" unicode="&#xf4;" horiz-adv-x="515" 
d="M29 240c0 148 92 254 228 254c139 0 228 -110 228 -254c0 -141 -92 -256 -228 -256s-228 111 -228 256zM133 240c0 -101 56 -162 124 -162c75 0 124 63 124 162c0 93 -47 161 -124 161c-76 0 -124 -61 -124 -161zM257 724l143 -118l-40 -52l-103 75l-103 -75l-40 52z" />
    <glyph glyph-name="otilde" unicode="&#xf5;" horiz-adv-x="515" 
d="M29 240c0 148 92 254 228 254c139 0 228 -110 228 -254c0 -141 -92 -256 -228 -256s-228 111 -228 256zM133 240c0 -101 56 -162 124 -162c75 0 124 63 124 162c0 93 -47 161 -124 161c-76 0 -124 -61 -124 -161zM173 589h-69c4 81 29 126 93 126c27 0 48 -13 68 -29
c31 -25 38 -28 49 -28c15 0 26 9 27 49h69c-3 -84 -39 -127 -95 -127c-31 0 -50 12 -73 31s-33 27 -44 27c-16 0 -24 -16 -25 -49z" />
    <glyph glyph-name="odieresis" unicode="&#xf6;" horiz-adv-x="515" 
d="M29 240c0 148 92 254 228 254c139 0 228 -110 228 -254c0 -141 -92 -256 -228 -256s-228 111 -228 256zM133 240c0 -101 56 -162 124 -162c75 0 124 63 124 162c0 93 -47 161 -124 161c-76 0 -124 -61 -124 -161zM129 588v104h102v-104h-102zM283 588v104h102v-104h-102z
" />
    <glyph glyph-name="divide" unicode="&#xf7;" horiz-adv-x="568" 
d="M346 456c0 -40 -29 -63 -62 -63c-35 0 -63 28 -63 61c0 36 26 64 63 64s62 -27 62 -62zM346 74c0 -39 -29 -65 -62 -65c-35 0 -63 29 -63 64s26 63 63 63s62 -27 62 -62zM519 223h-471v83h471v-83z" />
    <glyph glyph-name="oslash" unicode="&#xf8;" horiz-adv-x="515" 
d="M139 -80l-67 34l41 83c-53 47 -84 119 -84 203c0 148 92 254 228 254c27 0 53 -5 78 -14l40 76l67 -34l-41 -80c53 -45 84 -117 84 -202c0 -141 -92 -256 -228 -256c-28 0 -54 5 -79 14zM129 240c0 -48 11 -87 33 -116l136 273c-13 5 -26 8 -41 8
c-79 0 -128 -64 -128 -165zM385 240c0 47 -12 87 -33 116l-137 -275c12 -5 26 -7 42 -7c77 0 128 66 128 166z" />
    <glyph glyph-name="ugrave" unicode="&#xf9;" horiz-adv-x="502" 
d="M442 479v-479h-101v62c-29 -55 -78 -77 -122 -77c-80 0 -165 53 -165 215v279h101v-263c0 -93 32 -136 85 -136c61 0 101 42 101 154v245h101zM129 671l57 65l134 -135l-45 -48z" />
    <glyph glyph-name="uacute" unicode="&#xfa;" horiz-adv-x="502" 
d="M442 479v-479h-101v62c-29 -55 -78 -77 -122 -77c-80 0 -165 53 -165 215v279h101v-263c0 -93 32 -136 85 -136c61 0 101 42 101 154v245h101zM311 736l57 -65l-146 -118l-46 48z" />
    <glyph glyph-name="ucircumflex" unicode="&#xfb;" horiz-adv-x="502" 
d="M442 479v-479h-101v62c-29 -55 -78 -77 -122 -77c-80 0 -165 53 -165 215v279h101v-263c0 -93 32 -136 85 -136c61 0 101 42 101 154v245h101zM249 724l143 -118l-40 -52l-103 75l-103 -75l-40 52z" />
    <glyph glyph-name="udieresis" unicode="&#xfc;" horiz-adv-x="502" 
d="M442 479v-479h-101v62c-29 -55 -78 -77 -122 -77c-80 0 -165 53 -165 215v279h101v-263c0 -93 32 -136 85 -136c61 0 101 42 101 154v245h101zM121 588v104h102v-104h-102zM275 588v104h102v-104h-102z" />
    <glyph glyph-name="yacute" unicode="&#xfd;" horiz-adv-x="415" 
d="M84 -235l78 239l-164 475h109l65 -203c12 -39 31 -99 40 -146h2c8 34 24 101 37 146l58 203h105l-228 -714h-102zM271 736l57 -65l-146 -118l-46 48z" />
    <glyph glyph-name="thorn" unicode="&#xfe;" horiz-adv-x="539" 
d="M60 -235v955h102v-304c31 44 74 78 142 78c112 0 206 -100 206 -256c0 -148 -86 -254 -209 -254c-68 0 -114 34 -139 77v-296h-102zM406 238c0 95 -46 164 -127 164c-67 0 -125 -66 -125 -161c0 -101 56 -165 123 -165c83 0 129 67 129 162z" />
    <glyph glyph-name="ydieresis" unicode="&#xff;" horiz-adv-x="415" 
d="M84 -235l78 239l-164 475h109l65 -203c12 -39 31 -99 40 -146h2c8 34 24 101 37 146l58 203h105l-228 -714h-102zM81 588v104h102v-104h-102zM235 588v104h102v-104h-102z" />
    <glyph glyph-name="Amacron" unicode="&#x100;" horiz-adv-x="542" 
d="M-4 0l227 682h104l219 -682h-116l-49 169h-222l-51 -169h-112zM232 410l-48 -153h172l-45 154c-11 37 -27 99 -37 138h-4zM417 781h-284v77h284v-77z" />
    <glyph glyph-name="amacron" unicode="&#x101;" horiz-adv-x="539" 
d="M479 479v-479h-102v62c-33 -48 -80 -78 -145 -78c-112 0 -203 100 -203 256c0 148 87 254 208 254c64 0 109 -30 140 -77v62h102zM133 240c0 -92 43 -164 126 -164c69 0 126 66 126 161c0 101 -52 165 -124 165c-83 0 -128 -69 -128 -162zM383 599h-264v77h264v-77z" />
    <glyph glyph-name="Abreve" unicode="&#x102;" horiz-adv-x="542" 
d="M-4 0l227 682h104l219 -682h-116l-49 169h-222l-51 -169h-112zM232 410l-48 -153h172l-45 154c-11 37 -27 99 -37 138h-4zM349 878h76c-5 -72 -59 -132 -150 -132c-92 0 -146 52 -150 132h76c4 -31 27 -57 74 -57s71 26 74 57z" />
    <glyph glyph-name="abreve" unicode="&#x103;" horiz-adv-x="539" 
d="M479 479v-479h-102v62c-33 -48 -80 -78 -145 -78c-112 0 -203 100 -203 256c0 148 87 254 208 254c64 0 109 -30 140 -77v62h102zM133 240c0 -92 43 -164 126 -164c69 0 126 66 126 161c0 101 -52 165 -124 165c-83 0 -128 -69 -128 -162zM331 717h75
c-5 -85 -59 -150 -150 -150c-88 0 -145 54 -150 150h75c4 -41 28 -73 75 -73s72 32 75 73z" />
    <glyph glyph-name="Aogonek" unicode="&#x104;" horiz-adv-x="542" 
d="M543 -135v-72c-15 -3 -37 -6 -54 -6c-76 0 -105 40 -105 96c0 40 30 90 73 117h-27l-49 169h-222l-51 -169h-112l227 682h104l219 -682c-41 -5 -82 -47 -82 -96c0 -24 13 -43 44 -43c11 0 22 1 35 4zM232 410l-48 -153h172l-45 154c-11 37 -25 99 -36 138h-4
c-11 -42 -28 -99 -39 -139z" />
    <glyph glyph-name="aogonek" unicode="&#x105;" horiz-adv-x="539" 
d="M479 -135v-72c-15 -3 -37 -6 -54 -6c-73 0 -104 40 -104 96c0 41 30 93 78 117h-22v67c-35 -52 -84 -83 -145 -83c-112 0 -203 100 -203 256c0 148 87 254 208 254c64 0 111 -35 140 -82v67h102v-479c-40 -8 -78 -51 -78 -96c0 -27 13 -43 44 -43c9 0 21 1 34 4zM133 240
c0 -92 43 -164 126 -164c69 0 126 66 126 161c0 101 -52 165 -124 165c-83 0 -128 -69 -128 -162z" />
    <glyph glyph-name="Cacute" unicode="&#x106;" horiz-adv-x="592" 
d="M311 698c150 0 228 -94 244 -205h-115c-13 72 -62 106 -133 106c-87 0 -164 -78 -164 -257c0 -167 69 -259 166 -259c68 0 121 32 137 119h115c-28 -148 -118 -218 -251 -218c-167 0 -279 124 -279 359c0 227 121 355 280 355zM379 900l43 -74l-165 -89l-36 55z" />
    <glyph glyph-name="cacute" unicode="&#x107;" horiz-adv-x="485" 
d="M257 494c120 0 180 -83 196 -156h-107c-13 39 -44 63 -91 63c-61 0 -122 -49 -122 -161c0 -99 51 -163 123 -163c53 0 83 30 96 71h107c-18 -79 -89 -164 -202 -164c-130 0 -228 97 -228 257c0 140 83 253 228 253zM304 736l57 -65l-146 -118l-46 48z" />
    <glyph glyph-name="Ccircumflex" unicode="&#x108;" horiz-adv-x="592" 
d="M311 698c150 0 228 -94 244 -205h-115c-13 72 -62 106 -133 106c-87 0 -164 -78 -164 -257c0 -167 69 -259 166 -259c68 0 121 32 137 119h115c-28 -148 -118 -218 -251 -218c-167 0 -279 124 -279 359c0 227 121 355 280 355zM312 886l141 -95l-33 -55l-108 55l-109 -55
l-32 55z" />
    <glyph glyph-name="ccircumflex" unicode="&#x109;" horiz-adv-x="485" 
d="M257 494c120 0 180 -83 196 -156h-107c-13 39 -44 63 -91 63c-61 0 -122 -49 -122 -161c0 -99 51 -163 123 -163c53 0 83 30 96 71h107c-18 -79 -89 -164 -202 -164c-130 0 -228 97 -228 257c0 140 83 253 228 253zM252 724l143 -118l-40 -52l-103 75l-103 -75l-40 52z
" />
    <glyph glyph-name="Cdotaccent" unicode="&#x10a;" horiz-adv-x="592" 
d="M311 698c150 0 228 -94 244 -205h-115c-13 72 -62 106 -133 106c-87 0 -164 -78 -164 -257c0 -167 69 -259 166 -259c68 0 121 32 137 119h115c-28 -148 -118 -218 -251 -218c-167 0 -279 124 -279 359c0 227 121 355 280 355zM259 773v104h102v-104h-102z" />
    <glyph glyph-name="cdotaccent" unicode="&#x10b;" horiz-adv-x="485" 
d="M257 494c120 0 180 -83 196 -156h-107c-13 39 -44 63 -91 63c-61 0 -122 -49 -122 -161c0 -99 51 -163 123 -163c53 0 83 30 96 71h107c-18 -79 -89 -164 -202 -164c-130 0 -228 97 -228 257c0 140 83 253 228 253zM204 590v104h103v-104h-103z" />
    <glyph glyph-name="Ccaron" unicode="&#x10c;" horiz-adv-x="592" 
d="M311 698c150 0 228 -94 244 -205h-115c-13 72 -62 106 -133 106c-87 0 -164 -78 -164 -257c0 -167 69 -259 166 -259c68 0 121 32 137 119h115c-28 -148 -118 -218 -251 -218c-167 0 -279 124 -279 359c0 227 121 355 280 355zM303 736l-141 95l33 55l108 -55l109 55
l32 -55z" />
    <glyph glyph-name="ccaron" unicode="&#x10d;" horiz-adv-x="485" 
d="M257 494c120 0 180 -83 196 -156h-107c-13 39 -44 63 -91 63c-61 0 -122 -49 -122 -161c0 -99 51 -163 123 -163c53 0 83 30 96 71h107c-18 -79 -89 -164 -202 -164c-130 0 -228 97 -228 257c0 140 83 253 228 253zM250 553l-143 119l40 52l103 -76l103 76l40 -52z" />
    <glyph glyph-name="Dcaron" unicode="&#x10e;" horiz-adv-x="586" 
d="M175 100h93c100 0 174 62 174 241c0 175 -69 241 -174 241h-93v-482zM269 0h-204v682h204c180 0 286 -121 286 -341c0 -227 -121 -341 -286 -341zM257 736l-141 95l33 55l108 -55l109 55l32 -55z" />
    <glyph glyph-name="dcaron" unicode="&#x10f;" horiz-adv-x="622" 
d="M479 720v-720h-102v62c-31 -47 -74 -78 -142 -78c-112 0 -206 100 -206 256c0 148 86 254 210 254c68 0 111 -34 138 -77v303h102zM133 240c0 -93 45 -164 127 -164c65 0 125 66 125 161c0 101 -56 165 -123 165c-87 0 -129 -74 -129 -162zM527 626v94h103v-63
c0 -47 -16 -88 -39 -115h-54c17 24 30 59 31 84h-41z" />
    <glyph glyph-name="Dcroat" unicode="&#x110;" horiz-adv-x="606" 
d="M289 0h-204v308h-70v89h70v285h204c180 0 286 -121 286 -341c0 -227 -121 -341 -286 -341zM195 100h93c100 0 174 62 174 241c0 175 -69 241 -174 241h-93v-185h138v-89h-138v-208z" />
    <glyph glyph-name="dcroat" unicode="&#x111;" horiz-adv-x="539" 
d="M539 569h-60v-569h-102v62c-29 -45 -74 -78 -142 -78c-112 0 -206 100 -206 256c0 148 86 254 210 254c68 0 110 -34 138 -77v152h-146v77h146v74h102v-74h60v-77zM133 240c0 -93 45 -164 127 -164c65 0 125 66 125 161c0 101 -56 165 -123 165c-87 0 -129 -74 -129 -162
z" />
    <glyph glyph-name="Emacron" unicode="&#x112;" horiz-adv-x="444" 
d="M393 682v-100h-219v-181h209v-97h-209v-204h227v-100h-337v682h329zM369 781h-284v77h284v-77z" />
    <glyph glyph-name="emacron" unicode="&#x113;" horiz-adv-x="487" 
d="M246 495c148 0 211 -125 211 -248c0 -12 -1 -26 -2 -35h-322c4 -85 49 -143 121 -143c44 0 75 22 90 53h106c-24 -74 -96 -139 -196 -139c-139 0 -225 102 -225 263c0 153 96 249 217 249zM134 291h219c-3 67 -40 121 -108 121c-64 0 -106 -58 -111 -121zM376 599h-264
v77h264v-77z" />
    <glyph glyph-name="Ebreve" unicode="&#x114;" horiz-adv-x="444" 
d="M393 682v-100h-219v-181h209v-97h-209v-204h227v-100h-337v682h329zM301 878h76c-5 -72 -59 -132 -150 -132c-92 0 -146 52 -150 132h76c4 -31 27 -57 74 -57s71 26 74 57z" />
    <glyph glyph-name="ebreve" unicode="&#x115;" horiz-adv-x="487" 
d="M246 495c148 0 211 -125 211 -248c0 -12 -1 -26 -2 -35h-322c4 -85 49 -143 121 -143c44 0 75 22 90 53h106c-24 -74 -96 -139 -196 -139c-139 0 -225 102 -225 263c0 153 96 249 217 249zM134 291h219c-3 67 -40 121 -108 121c-64 0 -106 -58 -111 -121zM320 717h75
c-5 -85 -59 -150 -150 -150c-88 0 -145 54 -150 150h75c4 -41 28 -73 75 -73s72 32 75 73z" />
    <glyph glyph-name="Edotaccent" unicode="&#x116;" horiz-adv-x="444" 
d="M393 682v-100h-219v-181h209v-97h-209v-204h227v-100h-337v682h329zM176 773v104h102v-104h-102z" />
    <glyph glyph-name="edotaccent" unicode="&#x117;" horiz-adv-x="487" 
d="M246 495c148 0 211 -125 211 -248c0 -12 -1 -26 -2 -35h-322c4 -85 49 -143 121 -143c44 0 75 22 90 53h106c-24 -74 -96 -139 -196 -139c-139 0 -225 102 -225 263c0 153 96 249 217 249zM134 291h219c-3 67 -40 121 -108 121c-64 0 -106 -58 -111 -121zM193 590v104
h103v-104h-103z" />
    <glyph glyph-name="Eogonek" unicode="&#x118;" horiz-adv-x="444" 
d="M383 -135v-72c-15 -3 -37 -6 -53 -6c-76 0 -105 40 -105 96c0 40 25 89 73 117h-234v682h329v-100h-219v-181h209v-97h-209v-204h227v-100h-13c-48 0 -83 -43 -83 -96c0 -24 13 -43 44 -43c9 0 21 1 34 4z" />
    <glyph glyph-name="eogonek" unicode="&#x119;" horiz-adv-x="487" 
d="M349 -135v-72c-15 -3 -38 -6 -54 -6c-76 0 -105 40 -105 96c0 33 20 73 51 101c-130 5 -212 106 -212 262c0 153 96 249 217 249c148 0 211 -124 211 -248c0 -12 -1 -26 -2 -35h-322c4 -85 49 -143 121 -143c44 0 75 22 90 53h106c-15 -43 -43 -80 -84 -107
c-21 -13 -42 -21 -59 -36c-24 -21 -37 -44 -37 -75c0 -24 13 -43 44 -43c11 0 22 1 35 4zM245 412c-67 0 -106 -59 -111 -121h219c-3 67 -40 121 -108 121z" />
    <glyph glyph-name="Ecaron" unicode="&#x11a;" horiz-adv-x="444" 
d="M393 682v-100h-219v-181h209v-97h-209v-204h227v-100h-337v682h329zM227 736l-141 95l33 55l108 -55l109 55l32 -55z" />
    <glyph glyph-name="ecaron" unicode="&#x11b;" horiz-adv-x="487" 
d="M246 495c148 0 211 -125 211 -248c0 -12 -1 -26 -2 -35h-322c4 -85 49 -143 121 -143c44 0 75 22 90 53h106c-24 -74 -96 -139 -196 -139c-139 0 -225 102 -225 263c0 153 96 249 217 249zM134 291h219c-3 67 -40 121 -108 121c-64 0 -106 -58 -111 -121zM244 553
l-143 119l40 52l103 -76l103 76l40 -52z" />
    <glyph glyph-name="Gcircumflex" unicode="&#x11c;" horiz-adv-x="613" 
d="M293 372h289v-20c0 -245 -93 -368 -268 -368c-180 0 -283 141 -283 357c0 226 117 357 281 357c135 0 234 -74 253 -198h-114c-11 56 -57 99 -133 99c-104 0 -175 -84 -175 -251c0 -184 73 -265 173 -265c92 0 147 71 151 192h-174v97zM314 886l141 -95l-33 -55l-108 55
l-109 -55l-32 55z" />
    <glyph glyph-name="gcircumflex" unicode="&#x11d;" horiz-adv-x="544" 
d="M484 479v-485c0 -173 -87 -251 -230 -251c-120 0 -199 79 -210 188h102c4 -55 42 -96 113 -96c77 0 123 41 123 154v75c-33 -47 -82 -77 -145 -77c-119 0 -208 99 -208 254c0 143 84 253 207 253c72 0 117 -35 146 -82v67h102zM132 240c0 -94 47 -162 128 -162
c73 0 131 64 131 160c0 100 -54 164 -129 164c-82 0 -130 -68 -130 -162zM252 724l143 -118l-40 -52l-103 75l-103 -75l-40 52z" />
    <glyph glyph-name="Gbreve" unicode="&#x11e;" horiz-adv-x="613" 
d="M293 372h289v-20c0 -245 -93 -368 -268 -368c-180 0 -283 141 -283 357c0 226 117 357 281 357c135 0 234 -74 253 -198h-114c-11 56 -57 99 -133 99c-104 0 -175 -84 -175 -251c0 -184 73 -265 173 -265c92 0 147 71 151 192h-174v97zM387 878h76
c-5 -72 -59 -132 -150 -132c-92 0 -146 52 -150 132h76c4 -31 27 -57 74 -57s71 26 74 57z" />
    <glyph glyph-name="gbreve" unicode="&#x11f;" horiz-adv-x="544" 
d="M484 479v-485c0 -173 -87 -251 -230 -251c-120 0 -199 79 -210 188h102c4 -55 42 -96 113 -96c77 0 123 41 123 154v75c-33 -47 -82 -77 -145 -77c-119 0 -208 99 -208 254c0 143 84 253 207 253c72 0 117 -35 146 -82v67h102zM132 240c0 -94 47 -162 128 -162
c73 0 131 64 131 160c0 100 -54 164 -129 164c-82 0 -130 -68 -130 -162zM327 717h75c-5 -85 -59 -150 -150 -150c-88 0 -145 54 -150 150h75c4 -41 28 -73 75 -73s72 32 75 73z" />
    <glyph glyph-name="Gdotaccent" unicode="&#x120;" horiz-adv-x="613" 
d="M293 372h289v-20c0 -245 -93 -368 -268 -368c-180 0 -283 141 -283 357c0 226 117 357 281 357c135 0 234 -74 253 -198h-114c-11 56 -57 99 -133 99c-104 0 -175 -84 -175 -251c0 -184 73 -265 173 -265c92 0 147 71 151 192h-174v97zM265 773v104h102v-104h-102z" />
    <glyph glyph-name="gdotaccent" unicode="&#x121;" horiz-adv-x="544" 
d="M484 479v-485c0 -173 -87 -251 -230 -251c-120 0 -199 79 -210 188h102c4 -55 42 -96 113 -96c77 0 123 41 123 154v75c-33 -47 -82 -77 -145 -77c-119 0 -208 99 -208 254c0 143 84 253 207 253c72 0 117 -35 146 -82v67h102zM132 240c0 -94 47 -162 128 -162
c73 0 131 64 131 160c0 100 -54 164 -129 164c-82 0 -130 -68 -130 -162zM196 590v104h103v-104h-103z" />
    <glyph glyph-name="Gcommaaccent" unicode="&#x122;" horiz-adv-x="613" 
d="M293 372h289v-20c0 -245 -93 -368 -268 -368c-180 0 -283 141 -283 357c0 226 117 357 281 357c135 0 234 -74 253 -198h-114c-11 56 -57 99 -133 99c-104 0 -175 -84 -175 -251c0 -184 73 -265 173 -265c92 0 147 71 151 192h-174v97zM263 -157v94h103v-63
c0 -47 -16 -88 -39 -115h-54c17 24 30 59 31 84h-41z" />
    <glyph glyph-name="gcommaaccent" unicode="&#x123;" horiz-adv-x="544" 
d="M484 479v-485c0 -173 -87 -251 -230 -251c-120 0 -199 79 -210 188h102c4 -55 42 -96 113 -96c77 0 123 41 123 154v75c-33 -47 -82 -77 -145 -77c-119 0 -208 99 -208 254c0 143 84 253 207 253c72 0 117 -35 146 -82v67h102zM132 240c0 -94 47 -162 128 -162
c73 0 131 64 131 160c0 100 -54 164 -129 164c-82 0 -130 -68 -130 -162zM296 645v-94h-103v63c0 47 16 88 39 115h54c-17 -24 -30 -59 -31 -84h41z" />
    <glyph glyph-name="Hcircumflex" unicode="&#x124;" horiz-adv-x="610" 
d="M435 0v303h-260v-303h-110v682h110v-280h260v280h110v-682h-110zM305 886l141 -95l-33 -55l-108 55l-109 -55l-32 55z" />
    <glyph glyph-name="hcircumflex" unicode="&#x125;" horiz-adv-x="499" 
d="M60 0v720h101v-303c31 55 81 77 126 77c90 0 161 -59 161 -215v-279h-102v268c0 93 -32 132 -84 132c-63 0 -101 -46 -101 -154v-246h-101zM111 933l143 -118l-40 -52l-103 75l-103 -75l-40 52z" />
    <glyph glyph-name="Hbar" unicode="&#x126;" horiz-adv-x="610" 
d="M610 516h-65v-516h-109v300h-261v-300h-110v516h-65v78h65v88h110v-88h261v88h109v-88h65v-78zM175 400h261v116h-261v-116z" />
    <glyph glyph-name="hbar" unicode="&#x127;" horiz-adv-x="499" 
d="M299 569h-138v-152c31 55 81 77 126 77c90 0 161 -59 161 -215v-279h-102v268c0 93 -32 132 -84 132c-63 0 -101 -46 -101 -154v-246h-101v569h-60v77h60v74h101v-74h138v-77z" />
    <glyph glyph-name="Itilde" unicode="&#x128;" horiz-adv-x="239" 
d="M64 0v682h110v-682h-110zM36 767h-69c4 81 29 126 93 126c27 0 48 -13 68 -29c31 -27 38 -29 49 -29c15 0 26 10 27 50h69c-3 -84 -39 -127 -95 -127c-31 0 -50 12 -73 31s-33 27 -44 27c-16 0 -24 -16 -25 -49z" />
    <glyph glyph-name="itilde" unicode="&#x129;" horiz-adv-x="221" 
d="M60 0v479h101v-479h-101zM25 589h-69c4 81 29 126 93 126c27 0 48 -13 68 -29c31 -25 38 -28 49 -28c15 0 26 9 27 49h69c-3 -84 -39 -127 -95 -127c-31 0 -50 12 -73 31s-33 27 -44 27c-16 0 -24 -16 -25 -49z" />
    <glyph glyph-name="Imacron" unicode="&#x12a;" horiz-adv-x="239" 
d="M64 0v682h110v-682h-110zM261 781h-284v77h284v-77z" />
    <glyph glyph-name="imacron" unicode="&#x12b;" horiz-adv-x="221" 
d="M60 0v479h101v-479h-101zM241 599h-264v77h264v-77z" />
    <glyph glyph-name="Ibreve" unicode="&#x12c;" horiz-adv-x="239" 
d="M64 0v682h110v-682h-110zM193 878h76c-5 -72 -59 -132 -150 -132c-92 0 -146 52 -150 132h76c4 -31 27 -57 74 -57s71 26 74 57z" />
    <glyph glyph-name="ibreve" unicode="&#x12d;" horiz-adv-x="221" 
d="M60 0v479h101v-479h-101zM184 717h75c-5 -85 -59 -150 -150 -150c-88 0 -145 54 -150 150h75c4 -41 28 -73 75 -73s72 32 75 73z" />
    <glyph glyph-name="Iogonek" unicode="&#x12e;" horiz-adv-x="239" 
d="M64 0v682h110v-682c-30 -5 -67 -43 -67 -92c0 -31 15 -47 45 -47c9 0 21 1 34 4v-72c-15 -3 -37 -6 -54 -6c-76 0 -105 40 -105 96c0 51 32 92 71 117h-34z" />
    <glyph glyph-name="iogonek" unicode="&#x12f;" horiz-adv-x="221" 
d="M60 0v479h101v-479c-37 -13 -66 -49 -66 -96c0 -29 15 -43 44 -43c11 0 22 1 35 4v-72c-15 -3 -37 -6 -54 -6c-76 0 -105 40 -105 96c0 51 36 96 73 117h-28zM56 589v108h110v-108h-110z" />
    <glyph glyph-name="Idotaccent" unicode="&#x130;" horiz-adv-x="239" 
d="M64 0v682h110v-682h-110zM68 773v104h102v-104h-102z" />
    <glyph glyph-name="dotlessi" unicode="&#x131;" horiz-adv-x="221" 
d="M60 0v479h101v-479h-101z" />
    <glyph glyph-name="Jcircumflex" unicode="&#x134;" horiz-adv-x="303" 
d="M133 186v496h110v-492c0 -149 -60 -206 -165 -206c-29 0 -58 5 -73 10v94c9 -3 34 -6 53 -6c55 0 75 24 75 104zM189 886l141 -95l-33 -55l-108 55l-109 -55l-32 55z" />
    <glyph glyph-name="jcircumflex" unicode="&#x135;" horiz-adv-x="221" 
d="M60 479h101v-547c0 -109 -39 -167 -146 -167c-15 0 -34 3 -49 6v89c8 -3 25 -4 36 -4c44 0 58 20 58 75v548zM111 696l142 -118l-40 -50l-102 76l-103 -76l-39 50z" />
    <glyph glyph-name="Kcommaaccent" unicode="&#x136;" horiz-adv-x="530" 
d="M400 0l-184 311l-41 -52v-259h-110v682h110v-280l213 280h127l-228 -289l242 -393h-129zM225 -156v94h103v-63c0 -47 -16 -88 -39 -115h-54c17 24 30 59 31 84h-41z" />
    <glyph glyph-name="kcommaaccent" unicode="&#x137;" horiz-adv-x="436" 
d="M318 0l-112 226l-44 -57v-169h-102v720h102v-425l142 184h117l-146 -181l157 -298h-114zM184 -157v94h103v-63c0 -47 -16 -88 -39 -115h-54c17 24 30 59 31 84h-41z" />
    <glyph glyph-name="kgreenlandic" unicode="&#x138;" horiz-adv-x="436" 
d="M318 0l-112 226l-44 -57v-169h-102v479h102v-184l142 184h117l-146 -181l157 -298h-114z" />
    <glyph glyph-name="Lacute" unicode="&#x139;" horiz-adv-x="411" 
d="M67 0v682h110v-582h219v-100h-329zM198 900l43 -74l-165 -89l-36 55z" />
    <glyph glyph-name="lacute" unicode="&#x13a;" horiz-adv-x="222" 
d="M60 0v720h102v-720h-102zM173 945l57 -65l-146 -118l-46 48z" />
    <glyph glyph-name="Lcommaaccent" unicode="&#x13b;" horiz-adv-x="411" 
d="M67 0v682h110v-582h219v-100h-329zM176 -156v94h103v-63c0 -47 -16 -88 -39 -115h-54c17 24 30 59 31 84h-41z" />
    <glyph glyph-name="lcommaaccent" unicode="&#x13c;" horiz-adv-x="222" 
d="M60 0v720h102v-720h-102zM61 -157v94h103v-63c0 -47 -16 -88 -39 -115h-54c17 24 30 59 31 84h-41z" />
    <glyph glyph-name="Lcaron" unicode="&#x13d;" horiz-adv-x="411" 
d="M67 0v682h110v-582h219v-100h-329zM276 588v94h103v-63c0 -47 -16 -88 -39 -115h-54c17 24 30 59 31 84h-41z" />
    <glyph glyph-name="lcaron" unicode="&#x13e;" horiz-adv-x="305" 
d="M60 0v720h102v-720h-102zM209 626v94h103v-63c0 -47 -16 -88 -39 -115h-54c17 24 30 59 31 84h-41z" />
    <glyph glyph-name="Ldot" unicode="&#x13f;" horiz-adv-x="456" 
d="M67 0v682h110v-582h219v-100h-329zM301 307v104h103v-104h-103z" />
    <glyph glyph-name="ldot" unicode="&#x140;" horiz-adv-x="332" 
d="M60 0v720h102v-720h-102zM226 327v104h103v-104h-103z" />
    <glyph glyph-name="Lslash" unicode="&#x141;" horiz-adv-x="426" 
d="M15 184v99l67 46v353h110v-288l126 87v-98l-126 -87v-196h219v-100h-329v231z" />
    <glyph glyph-name="lslash" unicode="&#x142;" horiz-adv-x="242" 
d="M10 242v91l60 41v346h102v-286l60 42v-90l-60 -42v-344h-102v283z" />
    <glyph glyph-name="Nacute" unicode="&#x143;" horiz-adv-x="598" 
d="M168 492h-3c0 -34 2 -102 2 -135v-357h-103v682h105l156 -281c50 -92 90 -176 106 -211h3c-1 41 -2 82 -2 122v370h102v-682h-104l-158 285c-60 108 -91 174 -104 207zM371 900l43 -74l-165 -89l-36 55z" />
    <glyph glyph-name="nacute" unicode="&#x144;" horiz-adv-x="502" 
d="M60 0v479h101v-62c31 53 78 77 127 77c79 0 160 -53 160 -215v-279h-102v267c0 93 -32 133 -84 133c-63 0 -101 -47 -101 -155v-245h-101zM318 736l57 -65l-146 -118l-46 48z" />
    <glyph glyph-name="Ncommaaccent" unicode="&#x145;" horiz-adv-x="598" 
d="M168 492h-3c0 -34 2 -102 2 -135v-357h-103v682h105l156 -281c50 -92 90 -176 106 -211h3c-1 41 -2 82 -2 122v370h102v-682h-104l-158 285c-60 108 -91 174 -104 207zM250 -157v94h103v-63c0 -47 -16 -88 -39 -115h-54c17 24 30 59 31 84h-41z" />
    <glyph glyph-name="ncommaaccent" unicode="&#x146;" horiz-adv-x="502" 
d="M60 0v479h101v-62c31 53 78 77 127 77c79 0 160 -53 160 -215v-279h-102v267c0 93 -32 133 -84 133c-63 0 -101 -47 -101 -155v-245h-101zM203 -157v94h103v-63c0 -47 -16 -88 -39 -115h-54c17 24 30 59 31 84h-41z" />
    <glyph glyph-name="Ncaron" unicode="&#x147;" horiz-adv-x="598" 
d="M168 492h-3c0 -34 2 -102 2 -135v-357h-103v682h105l156 -281c50 -92 90 -176 106 -211h3c-1 41 -2 82 -2 122v370h102v-682h-104l-158 285c-60 108 -91 174 -104 207zM296 736l-141 95l33 55l108 -55l109 55l32 -55z" />
    <glyph glyph-name="ncaron" unicode="&#x148;" horiz-adv-x="502" 
d="M60 0v479h101v-62c31 53 78 77 127 77c79 0 160 -53 160 -215v-279h-102v267c0 93 -32 133 -84 133c-63 0 -101 -47 -101 -155v-245h-101zM256 553l-143 119l40 52l103 -76l103 76l40 -52z" />
    <glyph glyph-name="Eng" unicode="&#x14a;" horiz-adv-x="598" 
d="M432 -2v2l-160 285c-60 108 -91 174 -104 207h-3c0 -34 2 -102 2 -135v-357h-103v682h105l156 -281c50 -92 90 -176 106 -211h3c-1 41 -2 82 -2 122v370h102v-678c0 -136 -57 -190 -162 -190c-29 0 -58 5 -73 10v89c9 -3 39 -6 56 -6c53 0 77 19 77 91z" />
    <glyph glyph-name="eng" unicode="&#x14b;" horiz-adv-x="502" 
d="M161 0h-101v479h101v-62c31 53 78 77 127 77c79 0 160 -53 160 -215v-347c0 -109 -39 -167 -146 -167c-15 0 -35 3 -50 6v89c9 -3 26 -4 37 -4c44 0 57 20 57 75v336c0 93 -32 133 -84 133c-63 0 -101 -47 -101 -155v-245z" />
    <glyph glyph-name="Omacron" unicode="&#x14c;" horiz-adv-x="626" 
d="M143 341c0 -180 74 -258 169 -258c96 0 170 78 170 258c0 176 -68 258 -170 258c-95 0 -169 -80 -169 -258zM31 341c0 223 118 357 282 357c175 0 281 -138 281 -357c0 -228 -121 -357 -281 -357c-193 0 -282 160 -282 357zM456 781h-284v77h284v-77z" />
    <glyph glyph-name="omacron" unicode="&#x14d;" horiz-adv-x="515" 
d="M29 240c0 148 92 254 228 254c139 0 228 -110 228 -254c0 -141 -92 -256 -228 -256s-228 111 -228 256zM133 240c0 -101 56 -162 124 -162c75 0 124 63 124 162c0 93 -47 161 -124 161c-76 0 -124 -61 -124 -161zM390 599h-264v77h264v-77z" />
    <glyph glyph-name="Obreve" unicode="&#x14e;" horiz-adv-x="626" 
d="M143 341c0 -180 74 -258 169 -258c96 0 170 78 170 258c0 176 -68 258 -170 258c-95 0 -169 -80 -169 -258zM31 341c0 223 118 357 282 357c175 0 281 -138 281 -357c0 -228 -121 -357 -281 -357c-193 0 -282 160 -282 357zM389 878h76c-5 -72 -59 -132 -150 -132
c-92 0 -146 52 -150 132h76c4 -31 27 -57 74 -57s71 26 74 57z" />
    <glyph glyph-name="obreve" unicode="&#x14f;" horiz-adv-x="515" 
d="M29 240c0 148 92 254 228 254c139 0 228 -110 228 -254c0 -141 -92 -256 -228 -256s-228 111 -228 256zM133 240c0 -101 56 -162 124 -162c75 0 124 63 124 162c0 93 -47 161 -124 161c-76 0 -124 -61 -124 -161zM333 717h75c-5 -85 -59 -150 -150 -150
c-88 0 -145 54 -150 150h75c4 -41 28 -73 75 -73s72 32 75 73z" />
    <glyph glyph-name="Ohungarumlaut" unicode="&#x150;" horiz-adv-x="626" 
d="M143 341c0 -180 74 -258 169 -258c96 0 170 78 170 258c0 176 -68 258 -170 258c-95 0 -169 -80 -169 -258zM31 341c0 223 118 357 282 357c175 0 281 -138 281 -357c0 -228 -121 -357 -281 -357c-193 0 -282 160 -282 357zM328 904l53 -64l-155 -112l-41 50zM506 904
l53 -64l-155 -112l-41 50z" />
    <glyph glyph-name="ohungarumlaut" unicode="&#x151;" horiz-adv-x="515" 
d="M29 240c0 148 92 254 228 254c139 0 228 -110 228 -254c0 -141 -92 -256 -228 -256s-228 111 -228 256zM133 240c0 -101 56 -162 124 -162c75 0 124 63 124 162c0 93 -47 161 -124 161c-76 0 -124 -61 -124 -161zM219 752l71 -45l-112 -154l-55 35zM377 752l71 -45
l-112 -154l-55 35z" />
    <glyph glyph-name="OE" unicode="&#x152;" horiz-adv-x="820" 
d="M769 682v-100h-219v-181h209v-97h-209v-204h227v-100h-332v77c-37 -57 -96 -93 -161 -93c-164 0 -253 152 -253 357c0 220 106 357 253 357c67 0 124 -33 161 -89v73h324zM143 341c0 -180 68 -258 152 -258c85 0 157 75 157 258c0 180 -67 258 -157 258
c-84 0 -152 -80 -152 -258z" />
    <glyph glyph-name="oe" unicode="&#x153;" horiz-adv-x="832" 
d="M589 495c151 0 213 -125 213 -248c0 -12 -1 -26 -2 -35h-321c1 -85 49 -143 120 -143c44 0 76 22 91 53h105c-24 -74 -95 -139 -196 -139c-80 0 -137 34 -172 94c-36 -57 -94 -93 -170 -93c-136 0 -228 111 -228 256c0 148 92 254 228 254c76 0 134 -34 170 -91
c35 60 90 92 162 92zM133 240c0 -101 56 -162 124 -162c75 0 124 63 124 162c0 93 -47 161 -124 161c-76 0 -124 -61 -124 -161zM480 291h218c-3 67 -41 121 -108 121s-107 -53 -110 -121z" />
    <glyph glyph-name="Racute" unicode="&#x154;" horiz-adv-x="497" 
d="M332 292l173 -292h-124l-158 277h-49v-277h-110v682h189c140 0 208 -89 208 -198c0 -105 -57 -171 -129 -192zM348 477c0 72 -34 110 -101 110h-73v-220h76c67 0 98 49 98 110zM309 900l43 -74l-165 -89l-36 55z" />
    <glyph glyph-name="racute" unicode="&#x155;" horiz-adv-x="325" 
d="M305 490v-98c-11 3 -26 4 -39 4c-59 0 -104 -41 -104 -157v-239h-102v479h102v-69h3c16 43 51 84 104 84c13 0 25 -1 36 -4zM243 736l57 -65l-146 -118l-46 48z" />
    <glyph glyph-name="Rcommaaccent" unicode="&#x156;" horiz-adv-x="497" 
d="M332 292l173 -292h-124l-158 277h-49v-277h-110v682h189c140 0 208 -89 208 -198c0 -105 -57 -171 -129 -192zM348 477c0 72 -34 110 -101 110h-73v-220h76c67 0 98 49 98 110zM222 -156v94h103v-63c0 -47 -16 -88 -39 -115h-54c17 24 30 59 31 84h-41z" />
    <glyph glyph-name="rcommaaccent" unicode="&#x157;" horiz-adv-x="325" 
d="M305 490v-98c-11 3 -26 4 -39 4c-59 0 -104 -41 -104 -157v-239h-102v479h102v-69h3c16 43 51 84 104 84c13 0 25 -1 36 -4zM62 -157v94h103v-63c0 -47 -16 -88 -39 -115h-54c17 24 30 59 31 84h-41z" />
    <glyph glyph-name="Rcaron" unicode="&#x158;" horiz-adv-x="497" 
d="M332 292l173 -292h-124l-158 277h-49v-277h-110v682h189c140 0 208 -89 208 -198c0 -105 -57 -171 -129 -192zM348 477c0 72 -34 110 -101 110h-73v-220h76c67 0 98 49 98 110zM229 736l-141 95l33 55l108 -55l109 55l32 -55z" />
    <glyph glyph-name="rcaron" unicode="&#x159;" horiz-adv-x="325" 
d="M305 490v-98c-11 3 -26 4 -39 4c-59 0 -104 -41 -104 -157v-239h-102v479h102v-69h3c16 43 51 84 104 84c13 0 25 -1 36 -4zM181 553l-143 119l40 52l103 -76l103 76l40 -52z" />
    <glyph glyph-name="Sacute" unicode="&#x15a;" horiz-adv-x="483" 
d="M438 521h-111c-4 53 -34 82 -81 82c-51 0 -84 -30 -84 -79c0 -48 15 -74 128 -125c117 -52 159 -125 159 -224c0 -91 -66 -191 -207 -191s-211 77 -215 200h114c1 -72 37 -105 101 -105c60 0 96 41 96 93c0 61 -26 101 -115 139c-137 59 -172 131 -172 212
c0 103 85 175 192 175c135 0 190 -79 195 -177zM321 900l43 -74l-165 -89l-36 55z" />
    <glyph glyph-name="sacute" unicode="&#x15b;" horiz-adv-x="393" 
d="M351 360h-99c-3 35 -25 53 -56 53c-33 0 -54 -18 -54 -49s13 -50 80 -77c117 -48 138 -95 138 -159c0 -73 -59 -145 -167 -145c-99 0 -162 49 -169 148h101c3 -41 25 -66 70 -66c43 0 64 28 64 59c0 28 -15 53 -83 82c-92 37 -134 77 -134 152c0 72 51 137 155 137
c97 0 149 -64 154 -135zM252 736l57 -65l-146 -118l-46 48z" />
    <glyph glyph-name="Scircumflex" unicode="&#x15c;" horiz-adv-x="483" 
d="M438 521h-111c-4 53 -34 82 -81 82c-51 0 -84 -30 -84 -79c0 -48 15 -74 128 -125c117 -52 159 -125 159 -224c0 -91 -66 -191 -207 -191s-211 77 -215 200h114c1 -72 37 -105 101 -105c60 0 96 41 96 93c0 61 -26 101 -115 139c-137 59 -172 131 -172 212
c0 103 85 175 192 175c135 0 190 -79 195 -177zM246 886l141 -95l-33 -55l-108 55l-109 -55l-32 55z" />
    <glyph glyph-name="scircumflex" unicode="&#x15d;" horiz-adv-x="393" 
d="M351 360h-99c-3 35 -25 53 -56 53c-33 0 -54 -18 -54 -49s13 -50 80 -77c117 -48 138 -95 138 -159c0 -73 -59 -145 -167 -145c-99 0 -162 49 -169 148h101c3 -41 25 -66 70 -66c43 0 64 28 64 59c0 28 -15 53 -83 82c-92 37 -134 77 -134 152c0 72 51 137 155 137
c97 0 149 -64 154 -135zM197 724l143 -118l-40 -52l-103 75l-103 -75l-40 52z" />
    <glyph glyph-name="Scedilla" unicode="&#x15e;" horiz-adv-x="483" 
d="M438 521h-111c-4 53 -34 82 -81 82c-51 0 -84 -30 -84 -79c0 -48 15 -74 128 -125c117 -52 159 -125 159 -224c0 -84 -58 -179 -183 -190l-10 -26c56 -8 88 -41 88 -88c0 -65 -51 -101 -127 -101c-33 0 -65 9 -92 18l24 56c15 -7 42 -13 66 -13c32 0 52 16 52 40
c0 27 -24 48 -84 48l28 67c-121 11 -181 85 -184 198h114c1 -72 37 -105 101 -105c60 0 96 41 96 93c0 61 -26 101 -115 139c-137 59 -172 131 -172 212c0 103 85 175 192 175c135 0 190 -79 195 -177z" />
    <glyph glyph-name="scedilla" unicode="&#x15f;" horiz-adv-x="393" 
d="M351 360h-99c-3 35 -25 53 -56 53c-33 0 -54 -18 -54 -49s13 -50 80 -77c117 -48 138 -95 138 -159c0 -69 -49 -132 -143 -143l-10 -26c56 -8 88 -41 88 -88c0 -65 -51 -101 -127 -101c-33 0 -65 9 -92 18l25 56c15 -7 42 -13 65 -13c33 0 53 16 53 40
c0 27 -24 48 -85 48l28 66c-81 11 -133 58 -138 146h101c3 -41 25 -66 70 -66c43 0 64 28 64 59c0 28 -15 53 -83 82c-92 37 -134 77 -134 152c0 72 51 137 155 137c97 0 149 -64 154 -135z" />
    <glyph glyph-name="Scaron" unicode="&#x160;" horiz-adv-x="483" 
d="M438 521h-111c-4 53 -34 82 -81 82c-51 0 -84 -30 -84 -79c0 -48 15 -74 128 -125c117 -52 159 -125 159 -224c0 -91 -66 -191 -207 -191s-211 77 -215 200h114c1 -72 37 -105 101 -105c60 0 96 41 96 93c0 61 -26 101 -115 139c-137 59 -172 131 -172 212
c0 103 85 175 192 175c135 0 190 -79 195 -177zM246 736l-141 95l33 55l108 -55l109 55l32 -55z" />
    <glyph glyph-name="scaron" unicode="&#x161;" horiz-adv-x="393" 
d="M351 360h-99c-3 35 -25 53 -56 53c-33 0 -54 -18 -54 -49s13 -50 80 -77c117 -48 138 -95 138 -159c0 -73 -59 -145 -167 -145c-99 0 -162 49 -169 148h101c3 -41 25 -66 70 -66c43 0 64 28 64 59c0 28 -15 53 -83 82c-92 37 -134 77 -134 152c0 72 51 137 155 137
c97 0 149 -64 154 -135zM195 553l-143 119l40 52l103 -76l103 76l40 -52z" />
    <glyph glyph-name="uni0162" unicode="&#x162;" horiz-adv-x="394" 
d="M142 0v582h-135v100h380v-100h-135v-582h-110zM149 -157v94h103v-63c0 -47 -16 -88 -39 -115h-54c17 24 30 59 31 84h-41z" />
    <glyph glyph-name="uni0163" unicode="&#x163;" horiz-adv-x="282" 
d="M6 389v90h57v154h101v-154h98v-90h-98v-230c0 -56 15 -75 59 -75c12 0 28 1 43 4v-88c-17 -4 -48 -6 -63 -6c-100 0 -140 47 -140 159v236h-57zM128 -157v94h103v-63c0 -47 -16 -88 -39 -115h-54c17 24 30 59 31 84h-41z" />
    <glyph glyph-name="uni021A" unicode="&#x21a;" horiz-adv-x="394" 
d="M142 0v582h-135v100h380v-100h-135v-582h-110zM149 -157v94h103v-63c0 -47 -16 -88 -39 -115h-54c17 24 30 59 31 84h-41z" />
    <glyph glyph-name="uni021B" unicode="&#x21b;" horiz-adv-x="282" 
d="M6 389v90h57v154h101v-154h98v-90h-98v-230c0 -56 15 -75 59 -75c12 0 28 1 43 4v-88c-17 -4 -48 -6 -63 -6c-100 0 -140 47 -140 159v236h-57zM128 -157v94h103v-63c0 -47 -16 -88 -39 -115h-54c17 24 30 59 31 84h-41z" />
    <glyph glyph-name="Tcaron" unicode="&#x164;" horiz-adv-x="394" 
d="M142 0v582h-135v100h380v-100h-135v-582h-110zM196 736l-141 95l33 55l108 -55l109 55l32 -55z" />
    <glyph glyph-name="tcaron" unicode="&#x165;" horiz-adv-x="302" 
d="M6 389v90h57v154h101v-154h98v-90h-98v-230c0 -56 15 -75 59 -75c12 0 28 1 43 4v-88c-17 -4 -48 -6 -63 -6c-100 0 -140 47 -140 159v236h-57zM207 626v94h103v-63c0 -47 -16 -88 -39 -115h-54c17 24 30 59 31 84h-41z" />
    <glyph glyph-name="Tbar" unicode="&#x166;" horiz-adv-x="394" 
d="M349 313h-97v-313h-110v313h-97v78h97v191h-135v100h380v-100h-135v-191h97v-78z" />
    <glyph glyph-name="tbar" unicode="&#x167;" horiz-adv-x="282" 
d="M257 205h-93v-46c0 -56 15 -75 59 -75c12 0 28 1 43 4v-88c-17 -4 -48 -6 -63 -6c-100 0 -140 47 -140 159v52h-52v78h52v106h-57v90h57v154h101v-154h98v-90h-98v-106h93v-78z" />
    <glyph glyph-name="Utilde" unicode="&#x168;" horiz-adv-x="561" 
d="M288 -16c-130 0 -232 58 -232 277v421h110v-418c0 -124 34 -181 114 -181c88 0 116 57 116 181v418h109v-419c0 -218 -93 -279 -217 -279zM195 767h-69c4 81 29 126 93 126c27 0 48 -13 68 -29c31 -27 38 -29 49 -29c15 0 26 10 27 50h69c-3 -84 -39 -127 -95 -127
c-31 0 -50 12 -73 31s-33 27 -44 27c-16 0 -24 -16 -25 -49z" />
    <glyph glyph-name="utilde" unicode="&#x169;" horiz-adv-x="502" 
d="M442 479v-479h-101v62c-29 -55 -78 -77 -122 -77c-80 0 -165 53 -165 215v279h101v-263c0 -93 32 -136 85 -136c61 0 101 42 101 154v245h101zM165 589h-69c4 81 29 126 93 126c27 0 48 -13 68 -29c31 -25 38 -28 49 -28c15 0 26 9 27 49h69c-3 -84 -39 -127 -95 -127
c-31 0 -50 12 -73 31s-33 27 -44 27c-16 0 -24 -16 -25 -49z" />
    <glyph glyph-name="Umacron" unicode="&#x16a;" horiz-adv-x="561" 
d="M288 -16c-130 0 -232 58 -232 277v421h110v-418c0 -124 34 -181 114 -181c88 0 116 57 116 181v418h109v-419c0 -218 -93 -279 -217 -279zM422 781h-284v77h284v-77z" />
    <glyph glyph-name="umacron" unicode="&#x16b;" horiz-adv-x="502" 
d="M442 479v-479h-101v62c-29 -55 -78 -77 -122 -77c-80 0 -165 53 -165 215v279h101v-263c0 -93 32 -136 85 -136c61 0 101 42 101 154v245h101zM381 599h-264v77h264v-77z" />
    <glyph glyph-name="Ubreve" unicode="&#x16c;" horiz-adv-x="561" 
d="M288 -16c-130 0 -232 58 -232 277v421h110v-418c0 -124 34 -181 114 -181c88 0 116 57 116 181v418h109v-419c0 -218 -93 -279 -217 -279zM355 878h76c-5 -72 -59 -132 -150 -132c-92 0 -146 52 -150 132h76c4 -31 27 -57 74 -57s71 26 74 57z" />
    <glyph glyph-name="ubreve" unicode="&#x16d;" horiz-adv-x="502" 
d="M442 479v-479h-101v62c-29 -55 -78 -77 -122 -77c-80 0 -165 53 -165 215v279h101v-263c0 -93 32 -136 85 -136c61 0 101 42 101 154v245h101zM324 717h75c-5 -85 -59 -150 -150 -150c-88 0 -145 54 -150 150h75c4 -41 28 -73 75 -73s72 32 75 73z" />
    <glyph glyph-name="Uring" unicode="&#x16e;" horiz-adv-x="561" 
d="M288 -16c-130 0 -232 58 -232 277v421h110v-418c0 -124 34 -181 114 -181c88 0 116 57 116 181v418h109v-419c0 -218 -93 -279 -217 -279zM225 829c0 -31 24 -56 55 -56s55 25 55 56s-24 54 -55 54s-55 -23 -55 -54zM166 829c0 63 50 113 114 113c63 0 114 -50 114 -113
s-51 -115 -114 -115c-64 0 -114 52 -114 115z" />
    <glyph glyph-name="uring" unicode="&#x16f;" horiz-adv-x="502" 
d="M442 479v-479h-101v62c-29 -55 -78 -77 -122 -77c-80 0 -165 53 -165 215v279h101v-263c0 -93 32 -136 85 -136c61 0 101 42 101 154v245h101zM194 643c0 -31 24 -56 55 -56s55 25 55 56s-24 55 -55 55s-55 -24 -55 -55zM135 643c0 63 50 114 114 114
c63 0 114 -51 114 -114s-51 -115 -114 -115c-64 0 -114 52 -114 115z" />
    <glyph glyph-name="Uhungarumlaut" unicode="&#x170;" horiz-adv-x="561" 
d="M288 -16c-130 0 -232 58 -232 277v421h110v-418c0 -124 34 -181 114 -181c88 0 116 57 116 181v418h109v-419c0 -218 -93 -279 -217 -279zM281 904l53 -64l-155 -112l-41 50zM459 904l53 -64l-155 -112l-41 50z" />
    <glyph glyph-name="uhungarumlaut" unicode="&#x171;" horiz-adv-x="502" 
d="M442 479v-479h-101v62c-29 -55 -78 -77 -122 -77c-80 0 -165 53 -165 215v279h101v-263c0 -93 32 -136 85 -136c61 0 101 42 101 154v245h101zM210 752l71 -45l-112 -154l-55 35zM368 752l71 -45l-112 -154l-55 35z" />
    <glyph glyph-name="Uogonek" unicode="&#x172;" horiz-adv-x="561" 
d="M391 -135v-72c-15 -3 -37 -6 -54 -6c-76 0 -105 40 -105 96c0 33 20 74 52 101c-129 3 -228 61 -228 277v421h110v-418c0 -124 34 -181 114 -181c88 0 116 57 116 181v418h109v-419c0 -147 -43 -224 -109 -256c-60 -27 -84 -52 -84 -103c0 -24 13 -43 44 -43
c11 0 22 1 35 4z" />
    <glyph glyph-name="uogonek" unicode="&#x173;" horiz-adv-x="502" 
d="M441 -135v-72c-15 -3 -37 -6 -54 -6c-75 0 -106 37 -106 96c0 49 37 96 82 117h-22v62c-29 -55 -78 -77 -122 -77c-80 0 -165 53 -165 215v279h101v-263c0 -93 32 -136 85 -136c61 0 101 42 101 154v245h101v-479c-43 -7 -81 -47 -81 -96c0 -29 15 -43 46 -43
c10 0 21 1 34 4z" />
    <glyph glyph-name="Wcircumflex" unicode="&#x174;" horiz-adv-x="719" 
d="M457 0l-72 377c-12 61 -17 99 -22 148h-4c-5 -44 -10 -84 -21 -145l-70 -380h-117l-150 682h110l75 -377c13 -66 18 -101 23 -138h4c7 43 12 94 23 142l73 373h109l75 -376c9 -45 17 -97 21 -138h4c7 52 16 108 21 137l71 377h108l-139 -682h-122zM363 886l141 -95
l-33 -55l-108 55l-109 -55l-32 55z" />
    <glyph glyph-name="wcircumflex" unicode="&#x175;" horiz-adv-x="624" 
d="M610 479l-110 -479h-120l-53 270c-7 31 -12 81 -15 112h-4c-1 -31 -7 -81 -14 -112l-56 -270h-121l-103 479h98l49 -238c8 -39 17 -88 21 -128h4c4 40 14 88 23 128l50 238h107l48 -238c7 -36 17 -91 21 -128h4c3 37 13 89 22 128l50 238h99zM312 724l143 -118l-40 -52
l-103 75l-103 -75l-40 52z" />
    <glyph glyph-name="Ycircumflex" unicode="&#x176;" horiz-adv-x="477" 
d="M184 0v267l-184 415h118l92 -216c13 -31 23 -62 30 -90h3c9 29 19 57 31 89l87 217h115l-182 -414v-268h-110zM239 886l141 -95l-33 -55l-108 55l-109 -55l-32 55z" />
    <glyph glyph-name="ycircumflex" unicode="&#x177;" horiz-adv-x="415" 
d="M84 -235l78 239l-164 475h109l65 -203c12 -39 31 -99 40 -146h2c8 34 24 101 37 146l58 203h105l-228 -714h-102zM209 724l143 -118l-40 -52l-103 75l-103 -75l-40 52z" />
    <glyph glyph-name="Ydieresis" unicode="&#x178;" horiz-adv-x="477" 
d="M184 0v267l-184 415h118l92 -216c13 -31 23 -62 30 -90h3c9 29 19 57 31 89l87 217h115l-182 -414v-268h-110zM107 771v104h102v-104h-102zM271 771v104h102v-104h-102z" />
    <glyph glyph-name="Zacute" unicode="&#x179;" horiz-adv-x="508" 
d="M47 582v100h414v-95l-298 -487h312v-100h-442v94l298 488h-284zM328 900l43 -74l-165 -89l-36 55z" />
    <glyph glyph-name="zacute" unicode="&#x17a;" horiz-adv-x="407" 
d="M41 390v89h326v-82l-212 -308h220v-89h-343v82l213 308h-204zM264 736l57 -65l-146 -118l-46 48z" />
    <glyph glyph-name="Zdotaccent" unicode="&#x17b;" horiz-adv-x="508" 
d="M47 582v100h414v-95l-298 -487h312v-100h-442v94l298 488h-284zM202 773v104h102v-104h-102z" />
    <glyph glyph-name="zdotaccent" unicode="&#x17c;" horiz-adv-x="407" 
d="M41 390v89h326v-82l-212 -308h220v-89h-343v82l213 308h-204zM151 590v104h103v-104h-103z" />
    <glyph glyph-name="Zcaron" unicode="&#x17d;" horiz-adv-x="508" 
d="M47 582v100h414v-95l-298 -487h312v-100h-442v94l298 488h-284zM253 736l-141 95l33 55l108 -55l109 55l32 -55z" />
    <glyph glyph-name="zcaron" unicode="&#x17e;" horiz-adv-x="407" 
d="M41 390v89h326v-82l-212 -308h220v-89h-343v82l213 308h-204zM202 553l-143 119l40 52l103 -76l103 76l40 -52z" />
    <glyph glyph-name="florin" unicode="&#x192;" horiz-adv-x="505" 
d="M290 389l-75 -475c-21 -128 -64 -171 -166 -171c-19 0 -43 3 -58 8v89c13 -3 35 -6 50 -6c44 0 63 21 71 74l76 481h-87v90h101l9 50c19 120 60 169 167 169c15 0 43 -3 58 -7v-90c-12 4 -34 6 -49 6c-44 0 -64 -19 -73 -74l-10 -54h98v-90h-112z" />
    <glyph glyph-name="Scommaaccent" unicode="&#x218;" horiz-adv-x="483" 
d="M438 521h-111c-4 53 -34 82 -81 82c-51 0 -84 -30 -84 -79c0 -48 15 -74 128 -125c117 -52 159 -125 159 -224c0 -91 -66 -191 -207 -191s-211 77 -215 200h114c1 -72 37 -105 101 -105c60 0 96 41 96 93c0 61 -26 101 -115 139c-137 59 -172 131 -172 212
c0 103 85 175 192 175c135 0 190 -79 195 -177zM192 -156v94h103v-63c0 -47 -16 -88 -39 -115h-54c17 24 30 59 31 84h-41z" />
    <glyph glyph-name="scommaaccent" unicode="&#x219;" horiz-adv-x="393" 
d="M351 360h-99c-3 35 -25 53 -56 53c-33 0 -54 -18 -54 -49s13 -50 80 -77c117 -48 138 -95 138 -159c0 -73 -59 -145 -167 -145c-99 0 -162 49 -169 148h101c3 -41 25 -66 70 -66c43 0 64 28 64 59c0 28 -15 53 -83 82c-92 37 -134 77 -134 152c0 72 51 137 155 137
c97 0 149 -64 154 -135zM144 -157v94h103v-63c0 -47 -16 -88 -39 -115h-54c17 24 30 59 31 84h-41z" />
    <glyph glyph-name="dotlessj" unicode="&#x237;" horiz-adv-x="221" 
d="M60 479h101v-547c0 -109 -39 -167 -146 -167c-15 0 -34 3 -49 6v89c8 -3 25 -4 36 -4c44 0 58 20 58 75v548z" />
    <glyph glyph-name="circumflex" unicode="&#x2c6;" horiz-adv-x="318" 
d="M159 724l143 -118l-40 -52l-103 75l-103 -75l-40 52z" />
    <glyph glyph-name="caron" unicode="&#x2c7;" horiz-adv-x="318" 
d="M159 553l-143 119l40 52l103 -76l103 76l40 -52z" />
    <glyph glyph-name="uni02C9" unicode="&#x2c9;" horiz-adv-x="318" 
d="M291 599h-264v77h264v-77z" />
    <glyph glyph-name="breve" unicode="&#x2d8;" horiz-adv-x="318" 
d="M234 717h75c-5 -85 -59 -150 -150 -150c-88 0 -145 54 -150 150h75c4 -41 28 -73 75 -73s72 32 75 73z" />
    <glyph glyph-name="dotaccent" unicode="&#x2d9;" horiz-adv-x="318" 
d="M108 590v104h103v-104h-103z" />
    <glyph glyph-name="ring" unicode="&#x2da;" horiz-adv-x="318" 
d="M104 643c0 -31 24 -56 55 -56s55 25 55 56s-24 55 -55 55s-55 -24 -55 -55zM45 643c0 63 50 114 114 114c63 0 114 -51 114 -114s-51 -115 -114 -115c-64 0 -114 52 -114 115z" />
    <glyph glyph-name="ogonek" unicode="&#x2db;" horiz-adv-x="318" 
d="M235 -135v-72c-15 -3 -37 -6 -54 -6c-76 0 -105 40 -105 96c0 40 30 90 73 117h65c-41 -35 -58 -68 -58 -96c0 -24 14 -43 45 -43c9 0 21 1 34 4z" />
    <glyph glyph-name="tilde" unicode="&#x2dc;" horiz-adv-x="318" 
d="M75 589h-69c4 81 29 126 93 126c27 0 48 -13 68 -29c31 -25 38 -28 49 -28c15 0 26 9 27 49h69c-3 -84 -39 -127 -95 -127c-31 0 -50 12 -73 31s-33 27 -44 27c-16 0 -24 -16 -25 -49z" />
    <glyph glyph-name="hungarumlaut" unicode="&#x2dd;" horiz-adv-x="318" 
d="M120 752l71 -45l-112 -154l-55 35zM278 752l71 -45l-112 -154l-55 35z" />
    <glyph glyph-name="commaaccent" horiz-adv-x="318" 
d="M110 -157v94h103v-63c0 -47 -16 -88 -39 -115h-54c17 24 30 59 31 84h-41z" />
    <glyph glyph-name="uni0394" unicode="&#x394;" horiz-adv-x="542" 
d="M-4 0l227 682h104l219 -682h-550zM232 410l-100 -317h272l-93 318c-11 37 -27 98 -37 138h-4c-11 -42 -26 -100 -38 -139z" />
    <glyph glyph-name="uni03A9" unicode="&#x3a9;" horiz-adv-x="633" 
d="M595 0h-235v149c84 32 126 108 126 231c0 137 -62 226 -167 226c-103 0 -172 -84 -172 -226c0 -129 46 -205 127 -231v-149h-235v97h138v7c-96 47 -142 147 -142 277c0 195 122 323 285 323c170 0 278 -130 278 -321c0 -125 -46 -223 -141 -279v-7h138v-97z" />
    <glyph glyph-name="uni03BC" unicode="&#x3bc;" horiz-adv-x="527" 
d="M60 -235v714h104v-270c0 -90 28 -132 83 -132c61 0 96 50 96 150v252h105v-344c0 -36 12 -50 37 -50c6 0 15 2 20 3v-87c-13 -4 -30 -8 -47 -8c-50 0 -84 27 -96 78h-3c-27 -55 -72 -87 -127 -87c-24 0 -51 8 -76 30l-3 -2c9 -36 11 -81 11 -122v-125h-104z" />
    <glyph glyph-name="pi" unicode="&#x3c0;" horiz-adv-x="560" 
d="M508 91v-88c-18 -5 -43 -9 -66 -9c-81 0 -112 52 -112 150v245h-119v-254c0 -58 -7 -101 -17 -135h-103c12 38 18 91 18 141v248c-27 0 -71 -8 -99 -25v89c29 17 73 26 125 26h395v-90h-99v-234c0 -51 9 -69 45 -69c11 0 22 2 32 5z" />
    <glyph glyph-name="Wgrave" unicode="&#x1e80;" horiz-adv-x="719" 
d="M457 0l-72 377c-12 61 -17 99 -22 148h-4c-5 -44 -10 -84 -21 -145l-70 -380h-117l-150 682h110l75 -377c13 -66 18 -101 23 -138h4c7 43 12 94 23 142l73 373h109l75 -376c9 -45 17 -97 21 -138h4c7 52 16 108 21 137l71 377h108l-139 -682h-122zM243 826l43 74
l158 -108l-36 -55z" />
    <glyph glyph-name="wgrave" unicode="&#x1e81;" horiz-adv-x="624" 
d="M610 479l-110 -479h-120l-53 270c-7 31 -12 81 -15 112h-4c-1 -31 -7 -81 -14 -112l-56 -270h-121l-103 479h98l49 -238c8 -39 17 -88 21 -128h4c4 40 14 88 23 128l50 238h107l48 -238c7 -36 17 -91 21 -128h4c3 37 13 89 22 128l50 238h99zM197 671l57 65l134 -135
l-45 -48z" />
    <glyph glyph-name="Wacute" unicode="&#x1e82;" horiz-adv-x="719" 
d="M457 0l-72 377c-12 61 -17 99 -22 148h-4c-5 -44 -10 -84 -21 -145l-70 -380h-117l-150 682h110l75 -377c13 -66 18 -101 23 -138h4c7 43 12 94 23 142l73 373h109l75 -376c9 -45 17 -97 21 -138h4c7 52 16 108 21 137l71 377h108l-139 -682h-122zM442 900l43 -74
l-165 -89l-36 55z" />
    <glyph glyph-name="wacute" unicode="&#x1e83;" horiz-adv-x="624" 
d="M610 479l-110 -479h-120l-53 270c-7 31 -12 81 -15 112h-4c-1 -31 -7 -81 -14 -112l-56 -270h-121l-103 479h98l49 -238c8 -39 17 -88 21 -128h4c4 40 14 88 23 128l50 238h107l48 -238c7 -36 17 -91 21 -128h4c3 37 13 89 22 128l50 238h99zM363 736l57 -65l-146 -118
l-46 48z" />
    <glyph glyph-name="Wdieresis" unicode="&#x1e84;" horiz-adv-x="719" 
d="M457 0l-72 377c-12 61 -17 99 -22 148h-4c-5 -44 -10 -84 -21 -145l-70 -380h-117l-150 682h110l75 -377c13 -66 18 -101 23 -138h4c7 43 12 94 23 142l73 373h109l75 -376c9 -45 17 -97 21 -138h4c7 52 16 108 21 137l71 377h108l-139 -682h-122zM230 771v104h102v-104
h-102zM394 771v104h102v-104h-102z" />
    <glyph glyph-name="wdieresis" unicode="&#x1e85;" horiz-adv-x="624" 
d="M610 479l-110 -479h-120l-53 270c-7 31 -12 81 -15 112h-4c-1 -31 -7 -81 -14 -112l-56 -270h-121l-103 479h98l49 -238c8 -39 17 -88 21 -128h4c4 40 14 88 23 128l50 238h107l48 -238c7 -36 17 -91 21 -128h4c3 37 13 89 22 128l50 238h99zM184 588v104h102v-104h-102z
M338 588v104h102v-104h-102z" />
    <glyph glyph-name="Ygrave" unicode="&#x1ef2;" horiz-adv-x="477" 
d="M184 0v267l-184 415h118l92 -216c13 -31 23 -62 30 -90h3c9 29 19 57 31 89l87 217h115l-182 -414v-268h-110zM115 826l43 74l158 -108l-36 -55z" />
    <glyph glyph-name="ygrave" unicode="&#x1ef3;" horiz-adv-x="415" 
d="M84 -235l78 239l-164 475h109l65 -203c12 -39 31 -99 40 -146h2c8 34 24 101 37 146l58 203h105l-228 -714h-102zM89 671l57 65l134 -135l-45 -48z" />
    <glyph glyph-name="endash" unicode="&#x2013;" horiz-adv-x="500" 
d="M452 221h-404v86h404v-86z" />
    <glyph glyph-name="emdash" unicode="&#x2014;" horiz-adv-x="1000" 
d="M952 221h-904v86h904v-86z" />
    <glyph glyph-name="quoteleft" unicode="&#x2018;" horiz-adv-x="224" 
d="M174 597v-126h-124v66c0 76 21 136 52 183h61c-23 -35 -34 -80 -37 -123h48z" />
    <glyph glyph-name="quoteright" unicode="&#x2019;" horiz-adv-x="224" 
d="M50 594v126h124v-65c0 -77 -21 -136 -52 -184h-61c23 35 34 79 37 123h-48z" />
    <glyph glyph-name="quotesinglbase" unicode="&#x201a;" horiz-adv-x="224" 
d="M50 0v126h124v-65c0 -76 -21 -136 -52 -184h-61c23 35 34 79 37 123h-48z" />
    <glyph glyph-name="quotedblleft" unicode="&#x201c;" horiz-adv-x="396" 
d="M174 597v-126h-124v66c0 76 21 136 52 183h61c-23 -35 -34 -80 -37 -123h48zM346 597v-126h-124v66c0 76 21 136 52 183h61c-23 -35 -34 -80 -37 -123h48z" />
    <glyph glyph-name="quotedblright" unicode="&#x201d;" horiz-adv-x="396" 
d="M222 594v126h124v-65c0 -77 -21 -136 -52 -184h-61c23 35 34 79 37 123h-48zM50 594v126h124v-65c0 -77 -21 -136 -52 -184h-61c23 35 34 79 37 123h-48z" />
    <glyph glyph-name="quotedblbase" unicode="&#x201e;" horiz-adv-x="396" 
d="M222 0v126h124v-65c0 -76 -21 -136 -52 -184h-61c23 35 34 79 37 123h-48zM50 0v126h124v-65c0 -76 -21 -136 -52 -184h-61c23 35 34 79 37 123h-48z" />
    <glyph glyph-name="dagger" unicode="&#x2020;" horiz-adv-x="412" 
d="M370 433l-127 14l14 -92l-14 -355h-75l-13 355l13 92l-126 -14v101l126 -13l-13 161h102l-14 -161l127 13v-101z" />
    <glyph glyph-name="daggerdbl" unicode="&#x2021;" horiz-adv-x="412" 
d="M254 155l-13 -155h-71l-13 155l13 77l-128 -13v97l128 -13l-13 77l13 76l-128 -11v95l128 -12l-13 154h97l-13 -154l129 12v-95l-129 11l13 -76l-13 -77l129 13v-97l-129 13z" />
    <glyph glyph-name="bullet" unicode="&#x2022;" horiz-adv-x="410" 
d="M66 304c0 76 62 139 138 139s140 -63 140 -139c0 -77 -64 -139 -140 -139s-138 62 -138 139z" />
    <glyph glyph-name="ellipsis" unicode="&#x2026;" horiz-adv-x="724" 
d="M51 0v130h132v-130h-132zM292 0v130h132v-130h-132zM533 0v130h132v-130h-132z" />
    <glyph glyph-name="perthousand" unicode="&#x2030;" horiz-adv-x="999" 
d="M496 682h81l-394 -682h-80zM30 511c0 133 74 187 139 187c60 0 136 -46 136 -185c0 -153 -84 -192 -137 -192c-61 0 -138 46 -138 190zM222 511c0 79 -19 113 -54 113c-31 0 -55 -29 -55 -112c0 -84 20 -117 56 -117c29 0 53 31 53 116zM373 174c0 133 75 187 139 187
c62 0 137 -47 137 -185c0 -154 -85 -192 -138 -192c-61 0 -138 46 -138 190zM566 173c0 80 -20 113 -56 113c-31 0 -54 -29 -54 -112c0 -84 20 -116 55 -116c29 0 55 30 55 115zM694 174c0 133 74 187 139 187c61 0 136 -47 136 -185c0 -154 -85 -192 -138 -192
c-60 0 -137 46 -137 190zM886 173c0 80 -19 113 -55 113c-31 0 -55 -29 -55 -112c0 -84 21 -116 56 -116c28 0 54 30 54 115z" />
    <glyph glyph-name="guilsinglleft" unicode="&#x2039;" horiz-adv-x="257" 
d="M36 240l107 207l69 -29l-67 -178l67 -178l-69 -29z" />
    <glyph glyph-name="guilsinglright" unicode="&#x203a;" horiz-adv-x="257" 
d="M221 240l-107 -207l-68 29l66 178l-66 178l68 29z" />
    <glyph glyph-name="fraction" unicode="&#x2044;" horiz-adv-x="159" 
d="M236 682h80l-394 -682h-79z" />
    <glyph glyph-name="Euro" unicode="&#x20ac;" horiz-adv-x="505" 
d="M385 227h-159c11 -115 56 -147 133 -147c31 0 81 7 112 16v-96c-33 -11 -88 -16 -122 -16c-135 0 -216 70 -233 243h-80l18 79h57c-1 11 -1 26 -1 39c0 15 0 29 1 44h-73l17 79h63c23 155 108 230 237 230c43 0 91 -10 122 -23l-21 -93c-25 12 -70 20 -103 20
c-64 0 -115 -35 -126 -134h208l-17 -79h-197c-1 -12 -1 -28 -1 -41c0 -15 0 -29 1 -42h181z" />
    <glyph glyph-name="afii61289" unicode="&#x2113;" horiz-adv-x="505" 
d="M431 52c-35 -33 -87 -68 -147 -68c-91 0 -135 64 -135 163v61l-52 -51l-39 44l91 93v208c0 129 54 196 142 196c80 0 110 -67 110 -119c0 -95 -48 -171 -116 -254c-11 -11 -25 -29 -33 -38v-128c0 -69 27 -93 62 -93c31 0 58 24 77 43c13 -19 27 -37 40 -57zM336 569
c0 25 -10 50 -35 50c-31 0 -49 -29 -49 -100v-140c5 7 13 16 18 24c39 55 66 117 66 166z" />
    <glyph glyph-name="trademark" unicode="&#x2122;" horiz-adv-x="532" 
d="M469 682l17 -220h-60l-6 111c-1 23 -1 34 -1 45h-3c-3 -11 -4 -25 -11 -45l-37 -111h-47l-32 104c-8 25 -10 39 -13 52h-2c0 -11 1 -25 -2 -48l-7 -108h-61l19 220h82l31 -96c7 -21 9 -28 10 -35h1c3 11 4 17 11 36l30 95h81zM22 628v54h175v-54h-58v-166h-60v166h-57z
" />
    <glyph glyph-name="Omega" unicode="&#x2126;" horiz-adv-x="633" 
d="M595 0h-235v149c84 32 126 108 126 231c0 137 -62 226 -167 226c-103 0 -172 -84 -172 -226c0 -129 46 -205 127 -231v-149h-235v97h138v7c-96 47 -142 147 -142 277c0 195 122 323 285 323c170 0 278 -130 278 -321c0 -125 -46 -223 -141 -279v-7h138v-97z" />
    <glyph glyph-name="estimated" unicode="&#x212e;" horiz-adv-x="665" 
d="M626 298h-461v-206c45 -44 99 -66 164 -66c104 0 170 54 221 134l36 -21c-61 -88 -134 -151 -257 -151c-177 0 -290 139 -290 310c0 172 110 311 292 311c183 0 287 -140 295 -311zM496 336v167c-43 43 -102 68 -166 68c-66 0 -121 -22 -165 -66v-169h331z" />
    <glyph glyph-name="partialdiff" unicode="&#x2202;" horiz-adv-x="524" 
d="M483 467c0 -64 -7 -127 -22 -188c-37 -154 -118 -291 -252 -291c-110 0 -180 82 -180 200c0 197 119 303 226 303c64 0 106 -26 123 -63h2c3 15 3 27 3 50c0 104 -43 166 -126 166c-31 0 -65 -10 -92 -29l-24 71c27 19 79 39 135 39c131 0 207 -100 207 -258zM364 327
c-11 51 -45 89 -90 89c-76 0 -141 -101 -141 -232c0 -69 30 -114 77 -114c74 0 130 105 154 257z" />
    <glyph glyph-name="Delta" unicode="&#x2206;" horiz-adv-x="542" 
d="M-4 0l227 682h104l219 -682h-550zM232 410l-100 -317h272l-93 318c-11 37 -27 98 -37 138h-4c-11 -42 -26 -100 -38 -139z" />
    <glyph glyph-name="product" unicode="&#x220f;" horiz-adv-x="667" 
d="M600 -235h-109v819h-315v-819h-109v917h533v-917z" />
    <glyph glyph-name="summation" unicode="&#x2211;" horiz-adv-x="611" 
d="M574 -235h-550v67l292 398l-269 380v72h501v-94h-357l253 -356l-273 -373h403v-94z" />
    <glyph glyph-name="minus" unicode="&#x2212;" horiz-adv-x="568" 
d="M519 223h-471v83h471v-83z" />
    <glyph glyph-name="uni2215" unicode="&#x2215;" horiz-adv-x="159" 
d="M236 682h80l-394 -682h-79z" />
    <glyph glyph-name="uni2219" unicode="&#x2219;" horiz-adv-x="237" 
d="M52 288v130h132v-130h-132z" />
    <glyph glyph-name="radical" unicode="&#x221a;" horiz-adv-x="539" 
d="M542 720l-215 -732h-78c-48 108 -97 217 -144 325l-59 -35l-31 53c44 28 89 57 133 84c47 -107 91 -210 138 -314c61 207 122 412 182 619h74z" />
    <glyph glyph-name="infinity" unicode="&#x221e;" horiz-adv-x="844" 
d="M798 292c0 -100 -72 -177 -180 -177c-80 0 -151 44 -194 111h-3c-45 -64 -113 -111 -193 -111c-108 0 -181 71 -181 173c0 106 75 177 179 177c87 0 152 -49 195 -113h2c38 52 101 113 192 113c107 0 183 -70 183 -173zM710 291c0 52 -28 96 -100 96
c-60 0 -107 -38 -146 -97c37 -63 88 -99 148 -99c69 0 98 45 98 100zM380 290c-36 60 -93 97 -149 97c-67 0 -97 -43 -97 -99c0 -57 38 -97 98 -97s112 43 148 99z" />
    <glyph glyph-name="integral" unicode="&#x222b;" horiz-adv-x="505" 
d="M450 725l-22 -86c-11 5 -31 10 -50 10c-51 0 -77 -30 -77 -91v-597c0 -125 -63 -191 -168 -191c-32 0 -69 8 -90 16l22 86c12 -4 31 -10 51 -10c51 0 77 32 77 89v604c0 117 54 186 169 186c35 0 68 -7 88 -16z" />
    <glyph glyph-name="approxequal" unicode="&#x2248;" horiz-adv-x="568" 
d="M469 230l70 -43c-35 -68 -85 -116 -157 -116c-39 0 -69 12 -106 37c-40 27 -62 43 -90 43c-39 0 -66 -28 -87 -71l-70 43c31 67 83 115 154 115c43 0 71 -15 106 -38c39 -27 64 -42 93 -42c40 0 68 33 87 72zM469 450l70 -43c-35 -68 -85 -117 -157 -117
c-39 0 -69 12 -106 37c-40 27 -62 43 -90 43c-39 0 -66 -27 -87 -70l-70 42c31 67 83 115 154 115c43 0 71 -15 106 -38c39 -25 64 -42 93 -42c40 0 68 34 87 73z" />
    <glyph glyph-name="notequal" unicode="&#x2260;" horiz-adv-x="568" 
d="M519 112h-261l-55 -112h-91l55 112h-119v83h156l68 140h-224v83h261l53 108h92l-54 -108h119v-83h-156l-68 -140h224v-83z" />
    <glyph glyph-name="lessequal" unicode="&#x2264;" horiz-adv-x="568" 
d="M519 0h-471v83h471v-83zM519 105l-471 182v82l471 181v-90l-346 -131v-2l346 -131v-91z" />
    <glyph glyph-name="greaterequal" unicode="&#x2265;" horiz-adv-x="568" 
d="M519 0h-471v83h471v-83zM48 550l471 -182v-82l-471 -181v91l347 131v2l-347 130v91z" />
    <glyph glyph-name="lozenge" unicode="&#x25ca;" horiz-adv-x="589" 
d="M315 682l226 -341l-226 -341h-44l-223 340l223 342h44zM293 99l159 242l-159 242l-157 -242z" />
    <glyph glyph-name="uniF8FF" unicode="&#xf8ff;" horiz-adv-x="500" 
d="M12 0v665h475v-665h-475zM88 618l162 -243l161 243h-323zM60 575v-484c0 -1 40 59 80 121c23 36 50 76 81 121zM440 575l-162 -242l162 -243v485zM411 48l-161 242l-162 -242h323z" />
    <glyph glyph-name="zero.superior" unicode="&#x2070;" 
d="M25 644c0 165 82 226 162 226c71 0 153 -54 153 -227c0 -189 -95 -234 -158 -234c-72 0 -157 51 -157 235zM250 641c0 112 -27 155 -67 155c-36 0 -68 -35 -68 -150c0 -124 28 -163 68 -163c32 0 67 35 67 158z" />
    <glyph glyph-name="four.superior" unicode="&#x2074;" 
d="M340 501h-58v-78h-84v78h-178v67l183 289h79v-286h58v-70zM167 689l-75 -118h106v127c0 16 1 32 3 48h-3c-8 -16 -20 -42 -31 -57z" />
    <glyph glyph-name="five.superior" unicode="&#x2075;" 
d="M154 783l-8 -78c8 3 26 4 35 4c87 0 139 -60 139 -148c0 -77 -52 -152 -145 -152c-94 0 -136 61 -141 129h88c3 -31 21 -54 54 -54c31 0 53 29 53 73c0 49 -25 79 -81 79c-29 0 -58 -4 -89 -12l22 233h205v-74h-132z" />
    <glyph glyph-name="six.superior" unicode="&#x2076;" 
d="M26 567c0 57 20 104 55 152l99 138h94l-98 -135c7 3 16 3 27 3c83 -5 135 -70 135 -158c0 -85 -60 -158 -157 -158c-95 0 -155 67 -155 158zM113 567c0 -53 30 -86 69 -86c40 0 70 33 70 86c0 52 -29 88 -70 88c-40 0 -69 -35 -69 -88z" />
    <glyph glyph-name="seven.superior" unicode="&#x2077;" 
d="M320 857v-66l-157 -368h-98l162 360h-179v74h272z" />
    <glyph glyph-name="eight.superior" unicode="&#x2078;" 
d="M129 743c0 -39 24 -58 53 -58c32 0 53 22 53 58c0 39 -24 59 -53 59c-31 0 -53 -20 -53 -59zM122 550c0 -47 25 -72 61 -72c35 0 59 24 59 72c0 44 -24 71 -59 71s-61 -26 -61 -71zM331 545c0 -72 -51 -135 -151 -135c-96 0 -146 57 -146 132c0 55 28 96 79 115v1
c-43 17 -68 48 -68 91c0 67 49 121 137 121c85 0 137 -53 137 -116c0 -47 -28 -81 -69 -96v-1c57 -19 81 -61 81 -112z" />
    <glyph glyph-name="nine.superior" unicode="&#x2079;" 
d="M338 712c0 -57 -20 -104 -55 -152l-100 -137h-93l97 134c-7 -3 -16 -3 -27 -3c-83 3 -135 70 -135 158c0 85 60 158 158 158c93 0 155 -67 155 -158zM251 712c0 53 -30 86 -69 86c-41 0 -70 -33 -70 -86c0 -52 29 -88 70 -88c40 0 69 35 69 88z" />
    <glyph glyph-name="zero.denominator" 
d="M25 222c0 165 82 226 162 226c71 0 153 -54 153 -227c0 -190 -95 -235 -158 -235c-72 0 -157 52 -157 236zM250 219c0 112 -27 155 -67 155c-36 0 -68 -35 -68 -150c0 -123 28 -164 68 -164c32 0 67 36 67 159z" />
    <glyph glyph-name="one.denominator" 
d="M145 0v360h-63v74h150v-434h-87z" />
    <glyph glyph-name="two.denominator" 
d="M48 0v59l122 149c31 39 57 71 57 110c0 33 -18 56 -47 56c-32 0 -46 -25 -49 -68h-86c3 78 47 141 140 141c82 0 134 -57 134 -126c0 -56 -24 -92 -78 -154l-79 -92h163v-75h-277z" />
    <glyph glyph-name="three.denominator" 
d="M129 320h-85c3 73 50 127 135 127c87 0 133 -48 133 -113c0 -49 -32 -85 -75 -94v-3c56 -13 88 -53 88 -112c0 -72 -48 -139 -148 -139c-93 0 -139 54 -146 138h87c4 -45 24 -68 60 -68s59 31 59 75c0 36 -22 69 -74 69h-27v67h24c39 0 63 21 63 56c0 31 -15 55 -46 55
c-32 0 -45 -27 -48 -58z" />
    <glyph glyph-name="four.denominator" 
d="M340 78h-58v-78h-83v78h-179v67l183 289h79v-286h58v-70zM166 263l-74 -115h107v122c0 21 1 34 2 53h-3c-8 -17 -23 -45 -32 -60z" />
    <glyph glyph-name="five.denominator" 
d="M154 360l-8 -78c8 3 26 4 35 4c87 0 139 -60 139 -148c0 -77 -52 -152 -145 -152c-94 0 -136 61 -141 129h88c3 -31 20 -54 53 -54c31 0 54 29 54 73c0 49 -25 79 -81 79c-29 0 -58 -4 -89 -12l22 233h205v-74h-132z" />
    <glyph glyph-name="six.denominator" 
d="M26 144c0 57 20 104 55 152l99 138h94l-98 -135c7 3 16 3 27 3c83 -5 135 -70 135 -158c0 -85 -60 -158 -157 -158c-95 0 -155 67 -155 158zM113 144c0 -53 30 -86 69 -86c40 0 70 33 70 86c0 52 -29 88 -70 88c-40 0 -69 -35 -69 -88z" />
    <glyph glyph-name="seven.denominator" 
d="M320 434v-66l-157 -368h-98l162 360h-179v74h272z" />
    <glyph glyph-name="eight.denominator" 
d="M129 320c0 -39 24 -59 53 -59c32 0 53 22 53 59c0 39 -24 58 -53 58c-31 0 -53 -19 -53 -58zM122 126c0 -47 25 -72 61 -72c35 0 59 24 59 72c0 45 -24 72 -59 72s-61 -25 -61 -72zM331 121c0 -72 -51 -135 -151 -135c-96 0 -146 59 -146 133c0 55 28 96 79 115v1
c-43 16 -69 48 -69 91c0 68 50 120 138 120c85 0 138 -52 138 -115c0 -48 -29 -81 -70 -96v-2c57 -19 81 -60 81 -112z" />
    <glyph glyph-name="nine.denominator" 
d="M338 290c0 -57 -20 -104 -55 -152l-100 -138h-93l97 135c-7 -3 -16 -3 -27 -3c-83 3 -135 70 -135 158c0 85 60 158 158 158c93 0 155 -67 155 -158zM251 290c0 53 -30 86 -69 86c-41 0 -70 -33 -70 -86c0 -52 29 -88 70 -88c40 0 69 35 69 88z" />
    <glyph glyph-name="zero.numerator" 
d="M25 469c0 165 82 226 162 226c71 0 153 -54 153 -227c0 -189 -95 -234 -158 -234c-72 0 -157 51 -157 235zM250 466c0 112 -27 155 -67 155c-36 0 -68 -35 -68 -150c0 -124 28 -163 68 -163c32 0 67 35 67 158z" />
    <glyph glyph-name="one.numerator" 
d="M145 248v360h-63v74h150v-434h-87z" />
    <glyph glyph-name="two.numerator" 
d="M48 248v59l122 149c31 39 57 71 57 110c0 33 -18 56 -47 56c-32 0 -46 -25 -49 -68h-86c3 78 47 141 140 141c82 0 134 -57 134 -126c0 -56 -24 -92 -78 -154l-79 -92h163v-75h-277z" />
    <glyph glyph-name="three.numerator" 
d="M129 568h-85c3 73 50 127 135 127c87 0 133 -48 133 -113c0 -49 -32 -85 -75 -94v-3c56 -13 88 -53 88 -112c0 -72 -48 -139 -148 -139c-93 0 -139 54 -146 138h87c4 -45 24 -68 60 -68s58 31 58 75c0 36 -21 69 -73 69h-27v67h24c39 0 63 21 63 56c0 31 -15 55 -46 55
c-32 0 -45 -27 -48 -58z" />
    <glyph glyph-name="four.numerator" 
d="M340 326h-58v-78h-84v78h-178v67l183 289h79v-286h58v-70zM167 514l-75 -118h106v127c0 16 1 32 3 48h-3c-8 -16 -20 -42 -31 -57z" />
    <glyph glyph-name="five.numerator" 
d="M154 608l-8 -78c8 3 26 4 35 4c87 0 139 -60 139 -148c0 -77 -52 -152 -145 -152c-94 0 -136 61 -141 129h88c3 -31 20 -54 53 -54c31 0 54 29 54 73c0 49 -25 79 -81 79c-29 0 -58 -4 -89 -12l22 233h205v-74h-132z" />
    <glyph glyph-name="six.numerator" 
d="M26 392c0 57 20 104 55 152l99 138h94l-98 -135c7 3 16 3 27 3c83 -5 135 -70 135 -158c0 -85 -60 -158 -157 -158c-95 0 -155 67 -155 158zM113 392c0 -53 30 -86 69 -86c40 0 70 33 70 86c0 52 -29 88 -70 88c-40 0 -69 -35 -69 -88z" />
    <glyph glyph-name="seven.numerator" 
d="M320 682v-66l-157 -368h-98l162 360h-179v74h272z" />
    <glyph glyph-name="eight.numerator" 
d="M129 568c0 -39 24 -58 53 -58c32 0 53 22 53 58c0 39 -24 59 -53 59c-31 0 -53 -20 -53 -59zM122 375c0 -47 25 -72 61 -72c35 0 59 24 59 72c0 44 -24 71 -59 71s-61 -26 -61 -71zM331 370c0 -72 -51 -135 -151 -135c-96 0 -146 57 -146 132c0 55 28 96 79 115v1
c-43 17 -68 48 -68 91c0 67 49 121 137 121c85 0 137 -53 137 -116c0 -47 -28 -81 -69 -96v-1c57 -19 81 -61 81 -112z" />
    <glyph glyph-name="nine.numerator" 
d="M338 537c0 -57 -20 -104 -55 -152l-100 -137h-93l97 134c-7 -3 -16 -3 -27 -3c-83 3 -135 70 -135 158c0 85 60 158 158 158c93 0 155 -67 155 -158zM251 537c0 53 -30 86 -69 86c-41 0 -70 -33 -70 -86c0 -52 29 -88 70 -88c40 0 69 35 69 88z" />
    <glyph glyph-name="zero.inferior" unicode="&#x2080;" 
d="M25 47c0 165 82 226 162 226c71 0 153 -54 153 -227c0 -190 -95 -235 -158 -235c-72 0 -157 52 -157 236zM250 44c0 112 -27 155 -67 155c-36 0 -68 -35 -68 -150c0 -123 28 -164 68 -164c32 0 67 36 67 159z" />
    <glyph glyph-name="one.inferior" unicode="&#x2081;" 
d="M145 -175v360h-63v74h150v-434h-87z" />
    <glyph glyph-name="two.inferior" unicode="&#x2082;" 
d="M48 -175v59l122 149c31 39 57 71 57 110c0 33 -18 56 -47 56c-32 0 -46 -25 -49 -68h-86c3 78 47 141 140 141c82 0 134 -57 134 -126c0 -56 -24 -92 -78 -154l-79 -92h163v-75h-277z" />
    <glyph glyph-name="three.inferior" unicode="&#x2083;" 
d="M129 145h-85c3 73 50 127 135 127c87 0 133 -48 133 -113c0 -49 -32 -85 -75 -94v-3c56 -13 88 -53 88 -112c0 -72 -48 -139 -148 -139c-93 0 -139 54 -146 138h87c4 -45 24 -68 60 -68s59 31 59 75c0 36 -22 69 -74 69h-27v67h24c39 0 63 21 63 56c0 31 -15 55 -46 55
c-32 0 -45 -27 -48 -58z" />
    <glyph glyph-name="four.inferior" unicode="&#x2084;" 
d="M340 -97h-58v-78h-83v78h-179v67l183 289h79v-286h58v-70zM166 88l-74 -115h107v122c0 21 1 34 2 53h-3c-8 -17 -23 -45 -32 -60z" />
    <glyph glyph-name="five.inferior" unicode="&#x2085;" 
d="M154 185l-8 -78c8 3 26 4 35 4c87 0 139 -60 139 -148c0 -77 -52 -152 -145 -152c-94 0 -136 61 -141 129h88c3 -31 20 -54 53 -54c31 0 54 29 54 73c0 49 -25 79 -81 79c-29 0 -58 -4 -89 -12l22 233h205v-74h-132z" />
    <glyph glyph-name="six.inferior" unicode="&#x2086;" 
d="M26 -31c0 57 20 104 55 152l99 138h94l-98 -135c7 3 16 3 27 3c83 -5 135 -70 135 -158c0 -85 -60 -158 -157 -158c-95 0 -155 67 -155 158zM113 -31c0 -53 30 -86 69 -86c40 0 70 33 70 86c0 52 -29 88 -70 88c-40 0 -69 -35 -69 -88z" />
    <glyph glyph-name="seven.inferior" unicode="&#x2087;" 
d="M320 259v-66l-157 -368h-98l162 360h-179v74h272z" />
    <glyph glyph-name="eight.inferior" unicode="&#x2088;" 
d="M129 145c0 -39 24 -59 53 -59c32 0 53 22 53 59c0 39 -24 58 -53 58c-31 0 -53 -19 -53 -58zM122 -49c0 -47 25 -72 61 -72c35 0 59 24 59 72c0 45 -24 72 -59 72s-61 -25 -61 -72zM331 -54c0 -72 -51 -135 -151 -135c-96 0 -146 59 -146 133c0 55 28 96 79 115v1
c-43 16 -69 48 -69 91c0 68 50 120 138 120c85 0 138 -52 138 -115c0 -48 -29 -81 -70 -96v-2c57 -19 81 -60 81 -112z" />
    <glyph glyph-name="nine.inferior" unicode="&#x2089;" 
d="M338 115c0 -57 -20 -104 -55 -152l-100 -138h-93l97 135c-7 -3 -16 -3 -27 -3c-83 3 -135 70 -135 158c0 85 60 158 158 158c93 0 155 -67 155 -158zM251 115c0 53 -30 86 -69 86c-41 0 -70 -33 -70 -86c0 -52 29 -88 70 -88c40 0 69 35 69 88z" />
    <glyph glyph-name="acute.cap" horiz-adv-x="271" 
d="M211 900l43 -74l-165 -89l-36 55z" />
    <glyph glyph-name="breve.cap" horiz-adv-x="318" 
d="M233 878h76c-5 -72 -59 -132 -150 -132c-92 0 -146 52 -150 132h76c4 -31 27 -57 74 -57s71 26 74 57z" />
    <glyph glyph-name="caron.alt" horiz-adv-x="318" 
d="M108 626v94h103v-63c0 -47 -16 -88 -39 -115h-54c17 24 30 59 31 84h-41z" />
    <glyph glyph-name="caron.cap" horiz-adv-x="318" 
d="M159 736l-141 95l33 55l108 -55l109 55l32 -55z" />
    <glyph glyph-name="circumflex.cap" horiz-adv-x="318" 
d="M159 886l141 -95l-33 -55l-108 55l-109 -55l-32 55z" />
    <glyph glyph-name="commaaccent.alt" horiz-adv-x="318" 
d="M211 645v-94h-103v63c0 47 16 88 39 115h54c-17 -24 -30 -59 -31 -84h41z" />
    <glyph glyph-name="dieresis.cap" horiz-adv-x="318" 
d="M26 771v104h102v-104h-102zM190 771v104h102v-104h-102z" />
    <glyph glyph-name="dotaccent.cap" horiz-adv-x="318" 
d="M108 773v104h102v-104h-102z" />
    <glyph glyph-name="grave.cap" horiz-adv-x="271" 
d="M17 826l43 74l158 -108l-36 -55z" />
    <glyph glyph-name="hungarumlaut.cap" horiz-adv-x="318" 
d="M174 904l53 -64l-155 -112l-41 50zM352 904l53 -64l-155 -112l-41 50z" />
    <glyph glyph-name="macron.cap" horiz-adv-x="318" 
d="M301 781h-284v77h284v-77z" />
    <glyph glyph-name="ring.cap" horiz-adv-x="318" 
d="M104 829c0 -31 24 -56 55 -56s55 25 55 56s-24 54 -55 54s-55 -23 -55 -54zM45 829c0 63 50 113 114 113c63 0 114 -50 114 -113s-51 -115 -114 -115c-64 0 -114 52 -114 115z" />
    <glyph glyph-name="tilde.cap" horiz-adv-x="318" 
d="M75 767h-69c4 81 29 126 93 126c27 0 48 -13 68 -29c31 -27 38 -29 49 -29c15 0 26 10 27 50h69c-3 -84 -39 -127 -95 -127c-31 0 -50 12 -73 31s-33 27 -44 27c-16 0 -24 -16 -25 -49z" />
    <glyph glyph-name="dollar.oldstyle" horiz-adv-x="430" 
d="M176 622h81v-63c77 -15 120 -71 124 -136h-100c-4 39 -30 59 -67 59c-40 0 -65 -20 -65 -57c0 -40 19 -61 92 -93c116 -50 149 -106 149 -175c0 -81 -49 -139 -133 -154v-71h-81v71c-84 11 -138 60 -143 152h101c3 -44 29 -73 82 -73c47 0 74 27 74 68s-23 69 -98 100
c-99 41 -143 89 -143 170c0 67 42 126 127 139v63z" />
    <glyph glyph-name="zero.oldstyle" horiz-adv-x="526" 
d="M28 256c0 169 102 271 235 271c137 0 235 -102 235 -271c0 -164 -98 -272 -235 -272c-136 0 -235 103 -235 272zM137 255c0 -113 54 -176 126 -176c77 0 126 64 126 176c0 107 -46 176 -126 176c-79 0 -126 -64 -126 -176z" />
    <glyph glyph-name="one.oldstyle" horiz-adv-x="356" 
d="M140 0v413h-108v99h216v-512h-108z" />
    <glyph glyph-name="two.oldstyle" horiz-adv-x="492" 
d="M49 0v80l166 122c83 61 107 97 107 147c0 47 -27 80 -76 80s-80 -30 -83 -89h-109c5 109 71 186 194 186c116 0 184 -77 184 -166c0 -81 -36 -140 -135 -212l-69 -49h219v-99h-398z" />
    <glyph glyph-name="three.oldstyle" horiz-adv-x="484" 
d="M157 351h-106c3 112 79 175 184 175c115 0 185 -68 185 -171c0 -65 -33 -121 -97 -142v-2c92 -25 129 -95 129 -191c0 -134 -86 -230 -223 -230c-135 0 -205 78 -216 203h107c9 -73 46 -110 112 -110c65 0 110 51 110 139c0 83 -46 138 -135 138h-39v92h38
c68 0 104 34 104 94c0 55 -30 87 -77 87s-73 -30 -76 -82z" />
    <glyph glyph-name="four.oldstyle" horiz-adv-x="496" 
d="M470 37h-76v-186h-104v186h-257l1 90l257 385h103v-380h76v-95zM245 293l-110 -161h156l-1 156c0 40 0 53 3 81h-6c-11 -23 -18 -41 -42 -76z" />
    <glyph glyph-name="five.oldstyle" horiz-adv-x="499" 
d="M195 413l-15 -152c17 4 47 8 66 8c128 0 218 -83 218 -238c0 -139 -90 -241 -217 -241c-129 0 -203 78 -210 202h106c3 -68 32 -109 103 -109c61 0 109 49 109 148c0 95 -44 145 -133 145c-47 0 -104 -9 -152 -25l33 361h313v-99h-221z" />
    <glyph glyph-name="six.oldstyle" horiz-adv-x="520" 
d="M41 216c0 68 29 132 87 241l124 225h112l-134 -239c12 4 29 6 44 6c123 0 210 -91 210 -230c0 -136 -89 -235 -222 -235c-132 0 -221 88 -221 232zM149 215c0 -92 46 -135 113 -135c65 0 114 46 114 138c0 88 -42 137 -114 137c-68 0 -113 -53 -113 -140z" />
    <glyph glyph-name="seven.oldstyle" horiz-adv-x="435" 
d="M397 512v-92l-232 -614h-117l242 607h-268v99h375z" />
    <glyph glyph-name="eight.oldstyle" horiz-adv-x="525" 
d="M185 516c0 -57 32 -87 76 -87c47 0 78 32 78 88s-33 87 -78 87c-43 0 -76 -31 -76 -88zM153 209c0 -89 55 -132 108 -132c60 0 110 44 110 132c0 79 -46 129 -110 129s-108 -50 -108 -129zM483 200c0 -130 -86 -216 -222 -216c-132 0 -219 85 -219 216
c0 84 46 154 115 182v2c-47 25 -79 73 -79 137c0 101 76 177 183 177c109 0 185 -76 185 -177c0 -64 -31 -114 -80 -137v-2c72 -27 117 -98 117 -182z" />
    <glyph glyph-name="nine.oldstyle" horiz-adv-x="520" 
d="M479 302c0 -70 -28 -131 -87 -241l-140 -255h-113l151 269c-12 -4 -26 -6 -43 -6c-126 0 -211 95 -211 230c0 136 89 235 222 235c134 0 221 -88 221 -232zM371 303c0 92 -46 135 -113 135c-65 0 -114 -46 -114 -138c0 -87 42 -137 114 -137c68 0 113 55 113 140z" />
    <glyph glyph-name="cent.oldstyle" horiz-adv-x="477" 
d="M205 -65v94c-99 19 -166 98 -166 230c0 115 59 205 166 224v88h80v-86c92 -16 136 -88 150 -153h-107c-8 27 -22 45 -43 55v-264c25 11 41 34 49 62h107c-16 -70 -67 -142 -156 -158v-92h-80zM143 258c0 -65 23 -111 62 -131v259c-36 -16 -62 -55 -62 -128z" />
    <glyph glyph-name="oneeighth" unicode="&#x215b;" horiz-adv-x="888" 
d="M145 248v360h-63v74h150v-434h-87zM588 682h80l-394 -682h-79zM652 320c0 -39 24 -59 53 -59c32 0 53 22 53 59c0 39 -24 58 -53 58c-31 0 -53 -19 -53 -58zM645 126c0 -47 25 -72 61 -72c35 0 59 24 59 72c0 45 -24 72 -59 72s-61 -25 -61 -72zM854 121
c0 -72 -51 -135 -151 -135c-96 0 -146 59 -146 133c0 55 28 96 79 115v1c-43 16 -69 48 -69 91c0 68 50 120 138 120c85 0 138 -52 138 -115c0 -48 -29 -81 -70 -96v-2c57 -19 81 -60 81 -112z" />
    <glyph glyph-name="threeeighths" unicode="&#x215c;" horiz-adv-x="888" 
d="M129 568h-85c3 73 50 127 135 127c87 0 133 -48 133 -113c0 -49 -32 -85 -75 -94v-3c56 -13 88 -53 88 -112c0 -72 -48 -139 -148 -139c-93 0 -139 54 -146 138h87c4 -45 24 -68 60 -68s58 31 58 75c0 36 -21 69 -73 69h-27v67h24c39 0 63 21 63 56c0 31 -15 55 -46 55
c-32 0 -45 -27 -48 -58zM601 682h80l-394 -682h-79zM652 320c0 -39 24 -59 53 -59c32 0 53 22 53 59c0 39 -24 58 -53 58c-31 0 -53 -19 -53 -58zM645 126c0 -47 25 -72 61 -72c35 0 59 24 59 72c0 45 -24 72 -59 72s-61 -25 -61 -72zM854 121c0 -72 -51 -135 -151 -135
c-96 0 -146 59 -146 133c0 55 28 96 79 115v1c-43 16 -69 48 -69 91c0 68 50 120 138 120c85 0 138 -52 138 -115c0 -48 -29 -81 -70 -96v-2c57 -19 81 -60 81 -112z" />
    <glyph glyph-name="fiveeighths" unicode="&#x215d;" horiz-adv-x="888" 
d="M154 608l-8 -78c8 3 26 4 35 4c87 0 139 -60 139 -148c0 -77 -52 -152 -145 -152c-94 0 -136 61 -141 129h88c3 -31 20 -54 53 -54c31 0 54 29 54 73c0 49 -25 79 -81 79c-29 0 -58 -4 -89 -12l22 233h205v-74h-132zM601 682h80l-394 -682h-79zM652 320
c0 -39 24 -59 53 -59c32 0 53 22 53 59c0 39 -24 58 -53 58c-31 0 -53 -19 -53 -58zM645 126c0 -47 25 -72 61 -72c35 0 59 24 59 72c0 45 -24 72 -59 72s-61 -25 -61 -72zM854 121c0 -72 -51 -135 -151 -135c-96 0 -146 59 -146 133c0 55 28 96 79 115v1
c-43 16 -69 48 -69 91c0 68 50 120 138 120c85 0 138 -52 138 -115c0 -48 -29 -81 -70 -96v-2c57 -19 81 -60 81 -112z" />
    <glyph glyph-name="seveneighths" unicode="&#x215e;" horiz-adv-x="888" 
d="M320 682v-66l-157 -368h-98l162 360h-179v74h272zM581 682h80l-394 -682h-79zM652 320c0 -39 24 -59 53 -59c32 0 53 22 53 59c0 39 -24 58 -53 58c-31 0 -53 -19 -53 -58zM645 126c0 -47 25 -72 61 -72c35 0 59 24 59 72c0 45 -24 72 -59 72s-61 -25 -61 -72zM854 121
c0 -72 -51 -135 -151 -135c-96 0 -146 59 -146 133c0 55 28 96 79 115v1c-43 16 -69 48 -69 91c0 68 50 120 138 120c85 0 138 -52 138 -115c0 -48 -29 -81 -70 -96v-2c57 -19 81 -60 81 -112z" />
    <glyph glyph-name="onethird" unicode="&#x2153;" horiz-adv-x="888" 
d="M145 248v360h-63v74h150v-434h-87zM586 682h80l-394 -682h-79zM652 320h-85c3 73 50 127 135 127c87 0 133 -48 133 -113c0 -49 -32 -85 -75 -94v-3c56 -13 88 -53 88 -112c0 -72 -48 -139 -148 -139c-93 0 -139 54 -146 138h87c4 -45 24 -68 60 -68s59 31 59 75
c0 36 -22 69 -74 69h-27v67h24c39 0 63 21 63 56c0 31 -15 55 -46 55c-32 0 -45 -27 -48 -58z" />
    <glyph glyph-name="twothirds" unicode="&#x2154;" horiz-adv-x="888" 
d="M48 248v59l122 149c31 39 57 71 57 110c0 33 -18 56 -47 56c-32 0 -46 -25 -49 -68h-86c3 78 47 141 140 141c82 0 134 -57 134 -126c0 -56 -24 -92 -78 -154l-79 -92h163v-75h-277zM601 682h80l-394 -682h-79zM652 320h-85c3 73 50 127 135 127c87 0 133 -48 133 -113
c0 -49 -32 -85 -75 -94v-3c56 -13 88 -53 88 -112c0 -72 -48 -139 -148 -139c-93 0 -139 54 -146 138h87c4 -45 24 -68 60 -68s59 31 59 75c0 36 -22 69 -74 69h-27v67h24c39 0 63 21 63 56c0 31 -15 55 -46 55c-32 0 -45 -27 -48 -58z" />
    <glyph glyph-name="longs" unicode="&#x17f;" horiz-adv-x="234" 
d="M65 0v556c0 116 40 171 149 171c16 0 39 -3 50 -6v-90c-12 3 -25 5 -38 5c-47 0 -59 -25 -59 -74v-562h-102z" />
    <glyph glyph-name="underscoredbl" unicode="&#x2017;" horiz-adv-x="469" 
d="M0 -235v65h469v-65h-469zM0 -125v66h469v-66h-469z" />
    <glyph glyph-name="quotereversed" unicode="&#x201b;" horiz-adv-x="224" 
d="M174 720v-126h-48c3 -44 14 -88 37 -123h-61c-31 48 -52 107 -52 184v65h124z" />
    <glyph glyph-name="minute" unicode="&#x2032;" horiz-adv-x="240" 
d="M115 698l82 -27l-91 -252l-64 18z" />
    <glyph glyph-name="second" unicode="&#x2033;" horiz-adv-x="382" 
d="M115 698l82 -27l-91 -252l-64 18zM285 698l82 -27l-91 -252l-64 18z" />
    <glyph glyph-name="exclamdbl" unicode="&#x203c;" horiz-adv-x="441" 
d="M55 0v109h110v-109h-110zM53 682h114l-11 -483h-92zM275 0v109h110v-109h-110zM273 682h114l-11 -483h-92z" />
    <glyph glyph-name="franc" unicode="&#x20a3;" horiz-adv-x="505" 
d="M16 122v83h95v477h325v-98h-220v-184h211v-95h-211v-100h164v-83h-164v-122h-105v122h-95z" />
    <glyph glyph-name="lira" unicode="&#x20a4;" horiz-adv-x="505" 
d="M30 368v70h47c-3 23 -5 47 -5 74c0 100 64 193 188 193c125 0 184 -80 189 -194h-106c-3 64 -30 100 -82 100c-56 0 -81 -39 -81 -107c0 -23 1 -43 4 -66h193v-70h-180l12 -56h168v-69h-159v-14c0 -52 -23 -90 -46 -109c27 0 57 -8 85 -23c27 -12 51 -23 71 -23
c28 0 48 20 49 87h105c-3 -125 -56 -183 -139 -183c-40 0 -77 12 -116 29s-64 26 -91 26c-36 0 -66 -15 -101 -36v94c64 21 83 79 83 127c0 8 0 16 -1 25h-87v69h75l-13 56h-62z" />
    <glyph glyph-name="peseta" unicode="&#x20a7;" horiz-adv-x="1114" 
d="M65 0v682h175c121 0 221 -65 226 -203h59v154h101v-154h98v-90h-98v-230c0 -56 15 -75 59 -75c12 0 28 1 43 4v-88c-17 -4 -48 -6 -63 -6c-100 0 -140 47 -140 159v236h-70c-27 -88 -100 -139 -221 -139h-59v-250h-110zM1072 360h-99c-3 35 -25 53 -56 53
c-33 0 -53 -18 -53 -49s14 -47 79 -77c115 -48 138 -96 138 -159c0 -75 -55 -145 -163 -145c-97 0 -162 49 -169 148h101c3 -40 24 -66 68 -66c40 0 62 28 62 59c0 28 -15 51 -83 82c-91 39 -134 77 -134 152c0 72 51 137 155 137c97 0 149 -64 154 -135zM354 465
c0 71 -32 122 -115 122h-64v-242h62c94 0 117 55 117 120z" />
    <glyph glyph-name="zero.fitted" horiz-adv-x="524" 
d="M39 345c0 264 113 353 219 353c116 0 227 -76 227 -349c0 -302 -131 -365 -223 -365c-107 0 -223 75 -223 361zM375 345c0 183 -37 257 -114 257c-67 0 -112 -65 -112 -254c0 -197 41 -268 114 -268c64 0 112 65 112 265z" />
    <glyph glyph-name="one.fitted" horiz-adv-x="395" 
d="M155 0v583h-108v99h216v-682h-108z" />
    <glyph glyph-name="two.fitted" horiz-adv-x="486" 
d="M45 0v75l184 243c52 68 86 126 86 195c0 52 -27 89 -78 89c-47 0 -77 -37 -78 -105h-111c5 122 82 202 192 202c124 0 185 -85 185 -178c0 -91 -43 -160 -100 -236l-143 -186h255v-99h-392z" />
    <glyph glyph-name="three.fitted" horiz-adv-x="502" 
d="M163 519h-108c5 103 73 179 190 179s189 -73 189 -171c0 -75 -45 -133 -105 -152v-2c67 -16 126 -75 126 -178c0 -111 -73 -211 -209 -211c-133 0 -202 81 -210 195h110c4 -61 36 -100 100 -100c55 0 99 43 99 119c0 69 -36 121 -123 121h-38v93h36c64 0 105 38 105 102
c0 53 -32 89 -79 89c-52 0 -80 -35 -83 -84z" />
    <glyph glyph-name="four.fitted" horiz-adv-x="502" 
d="M468 136h-76v-136h-103v136h-257v91l258 455h103v-450h76zM245 435l-114 -203h158v208c0 40 1 53 2 81h-6c-11 -27 -20 -50 -40 -86z" />
    <glyph glyph-name="five.fitted" horiz-adv-x="503" 
d="M193 583l-13 -154c13 3 40 6 56 6c139 0 218 -78 218 -215c0 -132 -78 -236 -206 -236c-127 0 -195 71 -204 192h112c5 -61 33 -94 93 -94c52 0 96 41 96 133c0 71 -36 124 -129 124c-49 0 -100 -7 -144 -22l30 365h312v-99h-221z" />
    <glyph glyph-name="six.fitted" horiz-adv-x="519" 
d="M38 216c0 68 26 133 87 241l124 225h112l-134 -239c12 4 26 6 43 6c124 0 211 -91 211 -230c0 -136 -88 -235 -223 -235c-133 0 -220 88 -220 232zM146 215c0 -92 47 -135 112 -135s115 46 115 138c0 88 -43 137 -115 137c-68 0 -112 -53 -112 -140z" />
    <glyph glyph-name="seven.fitted" horiz-adv-x="443" 
d="M417 682v-92l-230 -590h-117l240 583h-278v99h385z" />
    <glyph glyph-name="eight.fitted" horiz-adv-x="508" 
d="M163 505c0 -63 37 -100 93 -100s90 41 90 100c0 61 -39 99 -92 99c-52 0 -91 -38 -91 -99zM152 196c0 -72 42 -118 102 -118c56 0 102 39 102 118c0 76 -45 117 -101 117c-60 0 -103 -49 -103 -117zM466 194c0 -118 -72 -209 -212 -209c-133 0 -212 86 -212 206
c0 84 43 141 108 172v3c-57 27 -90 83 -90 151c0 106 74 181 194 181s194 -81 194 -181c0 -76 -39 -130 -90 -151v-3c72 -33 108 -93 108 -169z" />
    <glyph glyph-name="nine.fitted" horiz-adv-x="519" 
d="M481 466c0 -70 -28 -131 -87 -241l-124 -225h-112l134 239c-12 -4 -26 -6 -43 -6c-126 0 -211 95 -211 230c0 136 89 235 222 235c134 0 221 -88 221 -232zM373 467c0 92 -46 135 -113 135c-65 0 -114 -46 -114 -138c0 -87 42 -137 114 -137c68 0 113 55 113 140z" />
    <glyph glyph-name="percent.oldstyle" horiz-adv-x="678" 
d="M481 562h81l-363 -562h-81zM30 421c0 112 74 157 139 157c60 0 136 -39 136 -155c0 -128 -84 -162 -137 -162c-61 0 -138 39 -138 160zM222 420c0 59 -19 84 -54 84c-31 0 -55 -22 -55 -83c0 -63 20 -86 56 -86c29 0 53 22 53 85zM373 144c0 112 74 157 139 157
c60 0 136 -39 136 -155c0 -128 -84 -162 -137 -162c-61 0 -138 39 -138 160zM565 143c0 59 -19 84 -54 84c-31 0 -55 -22 -55 -83c0 -63 20 -86 56 -86c29 0 53 22 53 85z" />
    <glyph glyph-name="perthousand.oldstyle" horiz-adv-x="996" 
d="M481 564h81l-363 -564h-81zM30 421c0 112 74 157 139 157c60 0 136 -39 136 -155c0 -128 -84 -162 -137 -162c-61 0 -138 39 -138 160zM222 420c0 59 -19 84 -54 84c-31 0 -55 -22 -55 -83c0 -63 20 -86 56 -86c29 0 53 22 53 85zM373 144c0 112 74 157 139 157
c60 0 136 -39 136 -155c0 -128 -84 -162 -137 -162c-61 0 -138 39 -138 160zM565 143c0 59 -19 84 -54 84c-31 0 -55 -22 -55 -83c0 -63 20 -86 56 -86c29 0 53 22 53 85zM691 144c0 112 74 157 139 157c60 0 136 -39 136 -155c0 -128 -84 -162 -136 -162
c-62 0 -139 39 -139 160zM883 143c0 59 -19 84 -54 84c-31 0 -55 -22 -55 -83c0 -63 20 -86 56 -86c29 0 53 22 53 85z" />
    <glyph glyph-name="zero.taboldstyle" horiz-adv-x="505" 
d="M28 256c0 172 96 274 224 274c132 0 225 -103 225 -274c0 -168 -93 -276 -225 -276c-128 0 -224 105 -224 276zM137 255c0 -117 51 -179 115 -179c72 0 116 64 116 179c0 108 -43 180 -116 180c-72 0 -115 -65 -115 -180z" />
    <glyph glyph-name="one.taboldstyle" horiz-adv-x="505" 
d="M207 0v413h-108v99h216v-512h-108z" />
    <glyph glyph-name="two.taboldstyle" horiz-adv-x="505" 
d="M61 0v79l166 123c83 61 107 95 107 147c0 45 -27 80 -76 80s-80 -30 -83 -89h-109c5 109 71 186 194 186c116 0 184 -77 184 -167c0 -80 -37 -139 -135 -210l-69 -50h219v-99h-398z" />
    <glyph glyph-name="three.taboldstyle" horiz-adv-x="505" 
d="M182 351h-106c3 109 80 175 184 175c115 0 186 -71 186 -171c0 -65 -33 -121 -97 -142v-2c91 -25 128 -95 128 -191c0 -131 -86 -230 -223 -230c-133 0 -205 80 -216 203h107c9 -73 47 -110 112 -110c67 0 110 54 110 139c0 83 -46 138 -134 138h-40v92h39
c67 0 104 37 104 94c0 52 -30 87 -77 87s-74 -33 -77 -82z" />
    <glyph glyph-name="four.taboldstyle" horiz-adv-x="505" 
d="M468 37h-76v-186h-103v186h-257v90l258 385h103v-380h76zM244 293l-110 -161h155v156c0 40 1 53 2 81h-6c-9 -23 -18 -41 -41 -76z" />
    <glyph glyph-name="five.taboldstyle" horiz-adv-x="505" 
d="M195 413l-15 -152c17 4 47 8 66 8c128 0 218 -83 218 -238c0 -139 -90 -241 -217 -241c-129 0 -203 78 -210 202h106c3 -68 32 -109 103 -109c61 0 109 49 109 148c0 95 -44 145 -133 145c-47 0 -104 -9 -152 -25l33 361h313v-99h-221z" />
    <glyph glyph-name="six.taboldstyle" horiz-adv-x="505" 
d="M29 216c0 68 29 132 87 241l124 225h112l-134 -239c12 4 29 6 44 6c123 0 210 -91 210 -230c0 -136 -89 -235 -222 -235c-132 0 -221 88 -221 232zM137 215c0 -92 46 -135 113 -135c65 0 114 46 114 138c0 88 -42 137 -114 137c-68 0 -113 -53 -113 -140z" />
    <glyph glyph-name="seven.taboldstyle" horiz-adv-x="505" 
d="M449 512v-92l-229 -614h-117l239 607h-278v99h385z" />
    <glyph glyph-name="eight.taboldstyle" horiz-adv-x="505" 
d="M175 516c0 -57 32 -87 76 -87c47 0 78 32 78 88s-33 87 -78 87c-43 0 -76 -31 -76 -88zM143 209c0 -89 55 -132 108 -132c60 0 110 44 110 132c0 79 -46 129 -110 129s-108 -50 -108 -129zM473 200c0 -130 -86 -216 -222 -216c-132 0 -219 85 -219 216
c0 84 46 154 115 182v2c-47 25 -79 73 -79 137c0 101 76 177 183 177c109 0 185 -76 185 -177c0 -64 -31 -114 -80 -137v-2c72 -27 117 -98 117 -182z" />
    <glyph glyph-name="nine.taboldstyle" horiz-adv-x="505" 
d="M472 302c0 -70 -28 -131 -87 -241l-140 -255h-113l151 269c-12 -4 -26 -6 -43 -6c-126 0 -211 95 -211 230c0 136 89 235 222 235c134 0 221 -88 221 -232zM364 303c0 92 -46 135 -113 135c-65 0 -114 -46 -114 -138c0 -87 42 -137 114 -137c68 0 113 55 113 140z" />
    <glyph glyph-name="parenleft.cap" horiz-adv-x="294" 
d="M278 -161h-96c-89 137 -129 320 -129 478c0 162 41 341 129 480h96c-92 -137 -128 -319 -128 -480c0 -160 38 -340 128 -478z" />
    <glyph glyph-name="parenright.cap" horiz-adv-x="294" 
d="M17 797h95c89 -137 129 -320 129 -478c0 -162 -41 -341 -129 -480h-95c91 144 128 319 128 480c0 158 -37 341 -128 478z" />
    <glyph glyph-name="bracketleft.cap" horiz-adv-x="309" 
d="M259 782v-88h-91v-752h91v-88h-189v928h189z" />
    <glyph glyph-name="bracketright.cap" horiz-adv-x="309" 
d="M50 -146v88h91v752h-91v88h189v-928h-189z" />
    <glyph glyph-name="braceleft.cap" horiz-adv-x="322" 
d="M274 796v-91c-45 -3 -61 -30 -61 -79v-179c0 -57 -24 -109 -71 -129v-2c43 -17 71 -64 71 -135v-172c0 -49 16 -78 61 -79v-91c-96 0 -156 61 -156 162v187c0 45 -24 82 -71 85v87c47 4 71 40 71 84v188c0 97 45 163 156 164z" />
    <glyph glyph-name="braceright.cap" horiz-adv-x="322" 
d="M47 705v91c112 -1 157 -67 157 -164v-188c0 -44 24 -80 71 -84v-87c-47 -3 -71 -40 -71 -85v-187c0 -101 -61 -162 -157 -162v91c45 1 61 30 61 79v172c0 71 28 118 71 135v2c-47 20 -71 72 -71 129v179c0 49 -16 76 -61 79z" />
    <glyph glyph-name="exclamdown.cap" horiz-adv-x="220" 
d="M165 682v-109h-110v109h110zM167 0h-114l11 483h92z" />
    <glyph glyph-name="questiondown.cap" horiz-adv-x="388" 
d="M108 343c38 43 45 77 45 140h92c0 -73 -7 -120 -44 -168c-49 -65 -73 -94 -73 -150c0 -52 25 -84 72 -84c48 0 75 34 75 99h102c-3 -127 -68 -196 -180 -196c-111 0 -176 69 -176 173c0 79 28 122 87 186zM254 682v-109h-109v109h109z" />
    <glyph glyph-name="guillemotleft.cap" horiz-adv-x="433" 
d="M36 341l107 207l69 -29l-67 -178l67 -178l-69 -29zM212 341l107 207l68 -29l-66 -178l66 -178l-68 -29z" />
    <glyph glyph-name="guillemotright.cap" horiz-adv-x="433" 
d="M221 341l-107 -207l-68 29l66 178l-66 178l68 29zM397 341l-107 -207l-69 29l67 178l-67 178l69 29z" />
    <glyph glyph-name="guilsinglleft.cap" horiz-adv-x="257" 
d="M36 341l107 207l69 -29l-67 -178l67 -178l-69 -29z" />
    <glyph glyph-name="guilsinglright.cap" horiz-adv-x="257" 
d="M221 341l-107 -207l-68 29l66 178l-66 178l68 29z" />
    <glyph glyph-name="hyphen.cap" horiz-adv-x="386" 
d="M326 309h-266v92h266v-92z" />
    <glyph glyph-name="endash.cap" horiz-adv-x="500" 
d="M452 312h-404v86h404v-86z" />
    <glyph glyph-name="emdash.cap" horiz-adv-x="1000" 
d="M952 312h-904v86h904v-86z" />
    <glyph glyph-name="periodcentered.cap" horiz-adv-x="237" 
d="M52 287v130h132v-130h-132z" />
    <glyph glyph-name="at.cap" horiz-adv-x="796" 
d="M750 386c0 -160 -82 -267 -181 -267c-56 0 -94 29 -101 77h-4c-27 -48 -71 -77 -119 -77c-76 0 -128 60 -128 167c0 155 82 267 186 267c41 0 72 -22 87 -65l8 52h77l-38 -248c-3 -19 -5 -38 -5 -53c0 -29 8 -49 47 -49c49 0 96 68 96 191c0 175 -87 279 -270 279
c-180 0 -284 -158 -284 -342c0 -192 104 -311 279 -311c71 0 134 15 173 36l23 -56c-47 -31 -120 -48 -203 -48c-212 0 -349 147 -349 380s150 409 365 409c210 0 341 -134 341 -342zM408 482c-67 0 -109 -96 -109 -189c0 -69 23 -102 63 -102c53 0 111 81 111 189
c0 61 -28 102 -65 102z" />
    <glyph glyph-name="sterling.oldstyle" horiz-adv-x="511" 
d="M44 253v81h53c-5 25 -9 50 -9 77c0 91 62 175 178 175c118 0 174 -74 179 -179h-106c-3 55 -27 85 -72 85c-48 0 -71 -34 -71 -93c0 -23 3 -44 7 -65h166v-81h-150c0 -13 2 -25 2 -37c0 -47 -23 -79 -46 -96c27 0 56 -8 85 -23c25 -12 51 -23 71 -23c28 0 47 16 48 67
h106c-3 -112 -56 -163 -139 -163c-41 0 -77 12 -117 29c-37 17 -63 26 -90 26c-36 0 -66 -15 -101 -36v94c64 21 83 70 83 115c0 15 -1 31 -4 47h-73z" />
    <glyph glyph-name="uni203E" unicode="&#x203e;" horiz-adv-x="469" 
d="M0 760v86h469v-86h-469z" />
    <glyph glyph-name="Euro.oldstyle" horiz-adv-x="434" 
d="M14 316l17 77h43c28 124 107 185 220 185c43 0 90 -10 119 -23l-21 -93c-23 12 -66 20 -98 20c-56 0 -93 -22 -110 -89h197l-17 -77h-191c0 -11 -1 -19 -1 -30c0 -12 1 -23 1 -35h178l-16 -77h-149c19 -72 54 -94 117 -94c29 0 79 7 108 16v-96c-31 -10 -85 -16 -119 -16
c-117 0 -192 57 -217 190h-62l17 77h34c0 11 -1 21 -1 32s1 22 1 33h-50z" />
    <glyph glyph-name="florin.oldstyle" horiz-adv-x="426" 
d="M261 266l-48 -305c-21 -128 -65 -171 -167 -171c-17 0 -43 3 -58 8v89c13 -3 35 -6 50 -6c44 0 63 21 71 74l50 311h-87l-1 82h101l10 61c19 120 60 169 167 169c15 0 43 -4 58 -8v-89c-12 3 -33 6 -48 6c-45 0 -65 -20 -74 -75l-11 -64h98v-82h-111z" />
    <glyph glyph-name="yen.oldstyle" horiz-adv-x="466" 
d="M36 229v77h105l-119 260h116l66 -154c13 -31 23 -62 30 -90h3c9 29 19 57 31 89l63 155h112l-119 -260h106v-77h-138l-5 -11v-55h143v-77h-143v-86h-108v86h-143v77h143v54l-6 12h-137z" />
    <glyph glyph-name="numbersign.oldstyle" horiz-adv-x="470" 
d="M386 426h82l-14 -68h-81l-24 -141h83l-12 -68h-85l-28 -149h-78l28 149h-88l-29 -149h-78l29 149h-81l14 68h79l25 141h-83l13 68h83l25 140h79l-26 -140h88l26 140h78zM295 358h-89l-25 -141h89z" />
    <glyph glyph-name="nsuperior" unicode="&#x207f;" horiz-adv-x="373" 
d="M49 348v343h78v-42c23 39 55 53 90 53c65 0 111 -40 111 -153v-201h-78v193c0 68 -20 91 -55 91c-43 0 -68 -29 -68 -106v-178h-78z" />
    <glyph glyph-name="fi.alt01" horiz-adv-x="491" 
d="M431 569h-101c0 43 -32 68 -77 68c-57 0 -80 -40 -80 -103v-55h96v-90h-96v-389h-102v389h-55v90h55v54c0 116 65 194 182 194c109 0 178 -61 178 -158zM330 0v479h101v-479h-101z" />
    <glyph glyph-name="fl.alt01" horiz-adv-x="492" 
d="M330 0v626c-15 5 -39 10 -56 10c-80 0 -101 -32 -101 -111v-46h81v-90h-81v-389h-102v389h-55v90h55v41c0 138 52 207 204 207c48 0 113 -13 157 -28v-699h-102z" />
    <glyph glyph-name="f_f.alt01" horiz-adv-x="515" 
d="M71 479v41c0 139 60 207 197 207c35 0 76 -9 115 -28c23 19 54 28 97 28c16 0 38 -3 49 -6v-90c-12 3 -25 5 -38 5c-47 0 -59 -25 -59 -74v-83h81v-90h-81v-389h-102v389h-157v-389h-102v389h-55v90h55zM173 479h157v77c0 23 2 45 6 64c-27 11 -51 16 -74 16
c-65 0 -89 -32 -89 -111v-46z" />
    <glyph glyph-name="f_f_i.alt01" horiz-adv-x="750" 
d="M173 389v-389h-102v389h-55v90h55v37c0 137 60 211 195 211c40 0 89 -13 129 -38c29 24 69 38 118 38c108 0 177 -61 177 -158h-101c0 43 -32 68 -77 68c-59 0 -80 -40 -80 -103v-55h96v-90h-96v-389h-102v389h-157zM589 0v479h101v-479h-101zM173 479h157v54
c0 31 4 58 13 80c-29 15 -55 23 -80 23c-67 0 -90 -37 -90 -116v-41z" />
    <glyph glyph-name="f_f_l.alt01" horiz-adv-x="750" 
d="M173 389v-389h-102v389h-55v90h55v37c0 137 60 211 195 211c40 0 89 -13 128 -37c33 25 80 37 141 37c44 0 108 -12 156 -28v-699h-102v626c-15 5 -40 10 -56 10c-80 0 -101 -32 -101 -111v-46h82v-90h-82v-389h-102v389h-157zM173 479h157v41c0 36 4 67 12 93
c-25 16 -56 23 -79 23c-67 0 -90 -37 -90 -116v-41z" />
    <glyph glyph-name="afii10051" unicode="&#x402;" horiz-adv-x="591" 
d="M422 -38v287c0 83 -31 122 -82 122c-64 0 -97 -52 -97 -146l1 -225h-110v582h-127v100h365v-100h-128v-183h3c24 39 69 70 125 70c99 0 160 -75 160 -208v-293c0 -137 -57 -191 -162 -191c-30 0 -58 5 -73 11v89c9 -4 33 -7 50 -7c53 0 75 20 75 92z" />
    <glyph glyph-name="afii10052" unicode="&#x403;" horiz-adv-x="403" 
d="M67 0v682h329v-100h-219v-582h-110zM319 900l43 -74l-165 -89l-36 55z" />
    <glyph glyph-name="afii10100" unicode="&#x453;" horiz-adv-x="323" 
d="M60 479h256v-90h-155v-389h-101v479zM250 736l57 -65l-146 -118l-46 48z" />
    <glyph glyph-name="afii10058" unicode="&#x409;" horiz-adv-x="827" 
d="M688 201c0 68 -37 106 -112 106h-71v-212h76c74 0 107 39 107 106zM395 582h-153l-42 -416c-13 -128 -58 -172 -143 -172c-20 0 -39 4 -52 9v96c8 -3 21 -5 33 -5c33 0 50 19 55 77l50 511h362v-280h65c150 0 229 -69 229 -203c0 -125 -83 -199 -215 -199h-189v582z" />
    <glyph glyph-name="afii10059" unicode="&#x40a;" horiz-adv-x="816" 
d="M494 402h65c150 0 229 -69 229 -203c0 -125 -83 -199 -215 -199h-189v303h-209v-303h-110v682h110v-280h209v280h110v-280zM677 201c0 68 -37 106 -112 106h-71v-212h76c74 0 107 39 107 106z" />
    <glyph glyph-name="afii10061" unicode="&#x40c;" horiz-adv-x="530" 
d="M400 0l-225 350v-350h-110v682h110v-316l220 316h126l-231 -320l239 -362h-129zM361 902l43 -74l-165 -89l-36 55z" />
    <glyph glyph-name="afii10060" unicode="&#x40b;" horiz-adv-x="591" 
d="M244 582v-183h3c24 39 69 70 125 70c99 0 160 -75 160 -208v-261h-110v249c0 83 -31 122 -82 122c-64 0 -97 -52 -97 -146l1 -225h-110v582h-127v100h365v-100h-128z" />
    <glyph glyph-name="afii10145" unicode="&#x40f;" horiz-adv-x="593" 
d="M175 682v-582h243v582h110v-682h-176v-155h-110v155h-177v682h110z" />
    <glyph glyph-name="afii10099" unicode="&#x452;" horiz-adv-x="499" 
d="M448 279v-348c0 -108 -40 -166 -146 -166c-15 0 -35 3 -50 6v89c9 -2 27 -4 37 -4c44 0 57 22 57 77v335c0 93 -32 132 -84 132c-62 0 -101 -47 -101 -154v-246h-101v569h-60v77h60v74h101v-74h138v-77h-138v-152c30 54 81 77 126 77c90 0 161 -59 161 -215z" />
    <glyph glyph-name="afii10106" unicode="&#x459;" horiz-adv-x="663" 
d="M465 213h-53v-133h52c46 0 69 24 69 68c0 43 -23 65 -68 65zM311 386h-112l-27 -243c-12 -107 -44 -149 -125 -149c-16 0 -29 3 -41 6v92c7 -2 17 -4 25 -4c26 0 40 16 44 62l34 329h303v-185h59c96 0 163 -46 163 -147c0 -87 -53 -147 -167 -147h-156v386z" />
    <glyph glyph-name="afii10107" unicode="&#x45a;" horiz-adv-x="660" 
d="M461 213h-53v-133h53c45 0 68 24 68 68c0 43 -23 65 -68 65zM307 0v202h-146v-202h-101v479h101v-185h146v185h101v-185h59c96 0 163 -46 163 -147c0 -87 -53 -147 -166 -147h-157z" />
    <glyph glyph-name="afii10109" unicode="&#x45c;" horiz-adv-x="449" 
d="M329 0l-167 248v-248h-102v479h102v-218l158 218h114l-169 -222l180 -257h-116zM286 736l57 -65l-146 -118l-46 48z" />
    <glyph glyph-name="afii10108" unicode="&#x45b;" horiz-adv-x="499" 
d="M299 569h-138v-152c30 54 81 77 126 77c90 0 161 -59 161 -215v-279h-102v268c0 93 -32 132 -84 132c-62 0 -101 -47 -101 -154v-246h-101v569h-60v77h60v74h101v-74h138v-77z" />
    <glyph glyph-name="afii10193" unicode="&#x45f;" horiz-adv-x="493" 
d="M196 0h-136v479h101v-387h171v387h101v-479h-136v-155h-101v155z" />
    <glyph glyph-name="afii10062" unicode="&#x40e;" horiz-adv-x="479" 
d="M202 231l-207 451h118l112 -253c13 -29 24 -60 31 -88h3c7 27 15 57 26 89l88 252h116l-209 -530c-42 -108 -82 -158 -160 -158c-20 0 -40 5 -52 10v95c7 -3 25 -6 35 -6c29 0 47 10 67 60zM321 878h76c-4 -71 -59 -132 -150 -132s-146 52 -150 132h76
c4 -30 28 -57 74 -57s71 27 74 57z" />
    <glyph glyph-name="afii10110" unicode="&#x45e;" horiz-adv-x="415" 
d="M84 -235l78 239l-164 475h109l65 -203c12 -38 31 -100 40 -146h2c7 35 24 101 37 146l58 203h105l-228 -714h-102zM285 717h75c-4 -85 -60 -150 -150 -150c-88 0 -145 54 -150 150h75c4 -41 29 -73 75 -73s72 32 75 73z" />
    <glyph glyph-name="afii10057" unicode="&#x408;" horiz-adv-x="303" 
d="M133 186v496h110v-492c0 -149 -60 -206 -165 -206c-29 0 -58 5 -73 10v94c9 -3 35 -6 53 -6c54 0 75 24 75 104z" />
    <glyph glyph-name="afii10050" unicode="&#x490;" horiz-adv-x="431" 
d="M67 0v682h244v158h110v-258h-244v-582h-110z" />
    <glyph glyph-name="afii10023" unicode="&#x401;" horiz-adv-x="444" 
d="M393 682v-100h-219v-181h209v-97h-209v-204h227v-100h-337v682h329zM94 771v104h102v-104h-102zM258 771v104h102v-104h-102z" />
    <glyph glyph-name="afii10053" unicode="&#x404;" horiz-adv-x="592" 
d="M307 698c154 0 232 -94 248 -205h-115c-13 69 -63 106 -134 106c-78 0 -145 -61 -160 -198h242v-97h-244c10 -142 75 -221 162 -221c70 0 124 35 140 119h115c-29 -147 -119 -218 -257 -218c-161 0 -273 125 -273 359c0 227 121 355 276 355z" />
    <glyph glyph-name="afii10056" unicode="&#x407;" horiz-adv-x="239" 
d="M64 0v682h110v-682h-110zM-14 771v104h102v-104h-102zM150 771v104h102v-104h-102z" />
    <glyph glyph-name="afii10055" unicode="&#x406;" horiz-adv-x="239" 
d="M64 0v682h110v-682h-110z" />
    <glyph glyph-name="afii10103" unicode="&#x456;" horiz-adv-x="221" 
d="M60 0v479h102v-479h-102zM56 589v108h110v-108h-110z" />
    <glyph glyph-name="afii10098" unicode="&#x491;" horiz-adv-x="367" 
d="M60 479h196v135h101v-225h-196v-389h-101v479z" />
    <glyph glyph-name="afii10071" unicode="&#x451;" horiz-adv-x="487" 
d="M246 495c148 -1 211 -124 211 -248c0 -12 -1 -26 -2 -35h-322c4 -85 50 -143 121 -143c44 0 76 22 90 53h106c-25 -74 -95 -139 -196 -139c-138 0 -225 102 -225 263c0 153 96 249 217 249zM353 291c-2 66 -41 121 -108 121c-64 0 -106 -58 -111 -121h219zM117 588v104
h102v-104h-102zM271 588v104h102v-104h-102z" />
    <glyph glyph-name="afii61352" unicode="&#x2116;" horiz-adv-x="998" 
d="M168 492h-3c1 -34 2 -102 2 -135v-357h-103v682h105l156 -281c50 -92 91 -175 106 -211h3c-1 41 -2 82 -2 122v370h102v-682h-104l-158 285c-59 108 -91 174 -104 207zM611 332c0 125 80 197 180 197c107 0 179 -81 179 -197c0 -117 -72 -198 -179 -198
c-101 0 -180 73 -180 198zM702 331c0 -69 37 -114 89 -114s89 43 89 114c0 70 -37 116 -89 116c-50 0 -89 -34 -89 -116zM957 0h-332v80h332v-80z" />
    <glyph glyph-name="afii10101" unicode="&#x454;" horiz-adv-x="485" 
d="M257 494c119 0 181 -83 196 -156h-107c-13 38 -44 63 -91 63c-58 0 -105 -37 -118 -114h160v-79h-162c9 -84 57 -131 121 -131c53 0 83 30 96 71h107c-19 -79 -88 -164 -202 -164c-130 0 -228 97 -228 257c0 140 83 253 228 253z" />
    <glyph glyph-name="afii10105" unicode="&#x458;" horiz-adv-x="221" 
d="M60 479h101v-547c0 -109 -40 -167 -146 -167c-15 0 -35 3 -49 6v89c8 -2 26 -4 36 -4c44 0 58 21 58 75v548zM56 589v108h110v-108h-110z" />
    <glyph glyph-name="afii10054" unicode="&#x405;" horiz-adv-x="483" 
d="M438 521h-111c-4 53 -34 82 -81 82c-50 0 -84 -30 -84 -79c0 -47 15 -75 128 -125c118 -52 159 -125 159 -224c0 -90 -65 -191 -207 -191c-141 0 -211 78 -215 200h114c1 -71 38 -105 101 -105c60 0 96 41 96 93c0 61 -26 101 -115 139c-137 58 -172 131 -172 212
c0 103 86 175 192 175c135 0 189 -79 195 -177z" />
    <glyph glyph-name="afii10102" unicode="&#x455;" horiz-adv-x="393" 
d="M351 360h-99c-3 34 -26 53 -56 53c-33 0 -54 -18 -54 -49s14 -50 80 -77c117 -47 138 -95 138 -159c0 -73 -58 -145 -167 -145c-98 0 -163 50 -169 148h101c2 -41 25 -66 70 -66c42 0 64 29 64 59c0 28 -14 53 -83 82c-92 38 -134 77 -134 152c0 72 52 137 155 137
c97 0 150 -64 154 -135z" />
    <glyph glyph-name="afii10104" unicode="&#x457;" horiz-adv-x="221" 
d="M60 0v479h102v-479h-102zM-19 588v104h102v-104h-102zM135 588v104h102v-104h-102z" />
    <glyph glyph-name="afii10017" unicode="&#x410;" horiz-adv-x="542" 
d="M-4 0l227 682h104l219 -682h-116l-49 169h-222l-51 -169h-112zM232 410l-48 -153h172l-45 154c-11 37 -27 98 -37 138h-4c-11 -42 -26 -100 -38 -139z" />
    <glyph glyph-name="afii10018" unicode="&#x411;" horiz-adv-x="491" 
d="M353 202c0 66 -37 105 -112 105h-66v-212h68c76 0 110 42 110 107zM175 402h71c139 0 218 -68 218 -202c0 -125 -83 -200 -215 -200h-184v682h339v-100h-229v-180z" />
    <glyph glyph-name="afii10019" unicode="&#x412;" horiz-adv-x="512" 
d="M65 0v682h177c137 0 205 -69 205 -173c0 -77 -47 -124 -101 -145v-2c90 -16 130 -88 130 -173c0 -118 -83 -189 -215 -189h-196zM365 200c0 67 -40 110 -112 110h-78v-218h83c73 0 107 41 107 108zM336 497c0 63 -37 93 -96 93h-65v-190h72c52 0 89 42 89 97z" />
    <glyph glyph-name="afii10020" unicode="&#x413;" horiz-adv-x="403" 
d="M67 0v682h329v-100h-219v-582h-110z" />
    <glyph glyph-name="afii10021" unicode="&#x414;" horiz-adv-x="636" 
d="M542 682v-582h79v-255h-110v155h-389v-155h-110v255h21c39 0 85 37 94 146l33 436h382zM262 582l-26 -340c-4 -64 -17 -109 -45 -142h241v482h-170z" />
    <glyph glyph-name="afii10022" unicode="&#x415;" horiz-adv-x="444" 
d="M393 682v-100h-219v-181h209v-97h-209v-204h227v-100h-337v682h329z" />
    <glyph glyph-name="afii10024" unicode="&#x416;" horiz-adv-x="794" 
d="M342 368v314h110v-314l208 314h126l-218 -317l225 -365h-128l-213 353v-353h-110v353l-212 -353h-129l225 365l-218 317h126z" />
    <glyph glyph-name="afii10025" unicode="&#x417;" horiz-adv-x="481" 
d="M18 176h114c4 -58 40 -93 101 -93c60 0 99 45 99 116c0 70 -32 119 -104 119h-58v100h56c50 0 80 36 80 93c0 49 -29 88 -78 88c-43 0 -71 -23 -77 -70h-112c7 114 87 169 191 169c112 0 186 -69 186 -178c0 -64 -33 -116 -87 -143v-3c68 -22 115 -90 115 -178
c0 -125 -83 -212 -213 -212c-131 0 -206 77 -213 192z" />
    <glyph glyph-name="afii10026" unicode="&#x418;" horiz-adv-x="610" 
d="M435 0v342c0 51 1 95 4 145h-4c-38 -79 -81 -157 -117 -219l-152 -268h-101v682h110v-345c0 -44 -1 -88 -4 -132h4c37 74 74 137 110 201l158 276h102v-682h-110z" />
    <glyph glyph-name="afii10027" unicode="&#x419;" horiz-adv-x="610" 
d="M435 0v342c0 51 1 95 4 145h-4c-38 -79 -81 -157 -117 -219l-152 -268h-101v682h110v-345c0 -44 -1 -88 -4 -132h4c37 74 74 137 110 201l158 276h102v-682h-110zM379 878h76c-4 -71 -59 -132 -150 -132s-146 52 -150 132h76c4 -30 28 -57 74 -57s71 27 74 57z" />
    <glyph glyph-name="afii10028" unicode="&#x41a;" horiz-adv-x="530" 
d="M400 0l-225 350v-350h-110v682h110v-316l220 316h126l-231 -320l239 -362h-129z" />
    <glyph glyph-name="afii10029" unicode="&#x41b;" horiz-adv-x="616" 
d="M242 582l-42 -416c-13 -128 -58 -172 -143 -172c-20 0 -39 4 -52 9v96c8 -3 21 -5 33 -5c33 0 50 19 55 77l50 511h409v-682h-110v582h-200z" />
    <glyph glyph-name="afii10030" unicode="&#x41c;" horiz-adv-x="733" 
d="M631 682l67 -682h-110l-30 355c-5 61 -9 113 -10 174h-4c-11 -50 -25 -123 -39 -178l-88 -351h-98l-92 346c-13 52 -31 128 -40 183h-4c-1 -43 -3 -102 -10 -179l-32 -350h-106l68 682h131l100 -382c8 -32 24 -101 32 -142h4c8 42 23 109 32 142l98 382h131z" />
    <glyph glyph-name="afii10031" unicode="&#x41d;" horiz-adv-x="610" 
d="M435 0v303h-260v-303h-110v682h110v-280h260v280h110v-682h-110z" />
    <glyph glyph-name="afii10032" unicode="&#x41e;" horiz-adv-x="626" 
d="M143 341c0 -179 74 -258 169 -258c96 0 170 79 170 258c0 175 -68 258 -170 258c-95 0 -169 -80 -169 -258zM31 341c0 223 119 357 282 357c175 0 281 -138 281 -357c0 -228 -120 -357 -281 -357c-193 0 -282 160 -282 357z" />
    <glyph glyph-name="afii10033" unicode="&#x41f;" horiz-adv-x="593" 
d="M418 0v582h-243v-582h-110v682h463v-682h-110z" />
    <glyph glyph-name="afii10034" unicode="&#x420;" horiz-adv-x="494" 
d="M354 465c0 71 -32 122 -115 122h-64v-242h62c94 0 117 55 117 120zM65 0v682h175c125 0 227 -68 227 -216c0 -133 -80 -216 -233 -216h-59v-250h-110z" />
    <glyph glyph-name="afii10035" unicode="&#x421;" horiz-adv-x="592" 
d="M311 698c150 0 229 -94 244 -205h-115c-13 72 -63 106 -133 106c-87 0 -164 -78 -164 -257c0 -166 69 -259 166 -259c67 0 121 33 137 119h115c-28 -147 -119 -218 -251 -218c-167 0 -279 125 -279 359c0 227 121 355 280 355z" />
    <glyph glyph-name="afii10036" unicode="&#x422;" horiz-adv-x="394" 
d="M142 0v582h-135v100h380v-100h-135v-582h-110z" />
    <glyph glyph-name="afii10037" unicode="&#x423;" horiz-adv-x="479" 
d="M202 231l-207 451h118l112 -253c13 -29 24 -60 31 -88h3c7 27 15 57 26 89l88 252h116l-209 -530c-42 -108 -82 -158 -160 -158c-20 0 -40 5 -52 10v95c7 -3 25 -6 35 -6c29 0 47 10 67 60z" />
    <glyph glyph-name="afii10038" unicode="&#x424;" horiz-adv-x="674" 
d="M642 346c0 -159 -102 -262 -252 -278v-78h-107v78c-172 18 -252 137 -252 277c0 156 103 260 252 279v68h107v-68c174 -18 252 -138 252 -278zM535 346c0 113 -59 178 -145 186v-372c86 7 145 72 145 186zM139 346c0 -110 59 -178 144 -186v372
c-85 -10 -144 -76 -144 -186z" />
    <glyph glyph-name="afii10039" unicode="&#x425;" horiz-adv-x="490" 
d="M135 682l76 -152c14 -29 25 -53 35 -78h2c10 29 21 55 33 80l75 150h118l-176 -326l184 -356h-122l-78 161c-15 31 -29 60 -40 90h-1c-12 -32 -26 -64 -39 -92l-74 -159h-120l183 352l-177 330h121z" />
    <glyph glyph-name="afii10040" unicode="&#x426;" horiz-adv-x="618" 
d="M175 682v-582h243v582h110v-582h75v-255h-110v155h-428v682h110z" />
    <glyph glyph-name="afii10041" unicode="&#x427;" horiz-adv-x="558" 
d="M237 240c-114 0 -185 74 -185 207v235h110v-219c0 -88 34 -124 107 -124c76 0 114 47 114 131v212h110v-682h-110v307h-4c-28 -36 -74 -67 -142 -67z" />
    <glyph glyph-name="afii10042" unicode="&#x428;" horiz-adv-x="827" 
d="M762 0h-697v682h110v-582h184v582h110v-582h183v582h110v-682z" />
    <glyph glyph-name="afii10043" unicode="&#x429;" horiz-adv-x="852" 
d="M359 100v582h110v-582h183v582h110v-582h75v-255h-110v155h-662v682h110v-582h184z" />
    <glyph glyph-name="afii10044" unicode="&#x42a;" horiz-adv-x="569" 
d="M430 202c0 66 -37 105 -112 105h-66v-212h68c77 0 110 41 110 107zM252 402h72c138 0 217 -71 217 -202c0 -125 -83 -200 -215 -200h-184v582h-135v100h245v-280z" />
    <glyph glyph-name="afii10045" unicode="&#x42b;" horiz-adv-x="731" 
d="M353 202c0 65 -37 105 -112 105h-66v-212h68c76 0 110 42 110 107zM175 402h72c138 0 217 -70 217 -202c0 -125 -83 -200 -215 -200h-184v682h110v-280zM555 0v682h110v-682h-110z" />
    <glyph glyph-name="afii10046" unicode="&#x42c;" horiz-adv-x="491" 
d="M353 202c0 65 -37 105 -112 105h-66v-212h68c76 0 110 42 110 107zM175 402h72c138 0 217 -70 217 -202c0 -125 -83 -200 -215 -200h-184v682h110v-280z" />
    <glyph glyph-name="afii10047" unicode="&#x42d;" horiz-adv-x="592" 
d="M280 -16c-151 0 -233 100 -248 218h115c13 -81 67 -119 136 -119c81 0 155 67 164 221h-242v97h240c-12 131 -72 198 -161 198c-69 0 -118 -36 -132 -106h-115c28 138 116 205 247 205c165 0 277 -125 277 -359c0 -227 -122 -355 -281 -355z" />
    <glyph glyph-name="afii10048" unicode="&#x42e;" horiz-adv-x="834" 
d="M175 682v-280h93c19 186 125 296 267 296c166 0 268 -138 268 -357c0 -228 -116 -357 -269 -357c-173 0 -258 140 -268 319h-91v-303h-110v682h110zM377 341c0 -179 69 -258 157 -258s156 79 156 258c0 175 -63 258 -156 258c-88 0 -157 -80 -157 -258z" />
    <glyph glyph-name="afii10049" unicode="&#x42f;" horiz-adv-x="497" 
d="M-8 0l173 292c-72 21 -129 87 -129 192c0 109 68 198 208 198h189v-682h-110v277h-49l-158 -277h-124zM149 477c0 -61 31 -110 98 -110h76v220h-73c-66 0 -101 -39 -101 -110z" />
    <glyph glyph-name="afii10065" unicode="&#x430;" horiz-adv-x="539" 
d="M479 479v-479h-102v62c-33 -48 -80 -78 -145 -78c-112 0 -203 100 -203 256c0 148 87 254 208 254c64 0 110 -31 140 -77v62h102zM133 240c0 -92 44 -164 126 -164c69 0 126 66 126 161c0 101 -52 165 -124 165c-83 0 -128 -69 -128 -162z" />
    <glyph glyph-name="afii10066" unicode="&#x431;" horiz-adv-x="506" 
d="M29 277c0 261 95 374 254 403c42 8 87 25 118 47l40 -85c-38 -27 -92 -41 -137 -49c-106 -18 -154 -70 -166 -160h3c25 31 70 58 125 58c125 0 211 -109 211 -253c0 -140 -89 -254 -224 -254c-132 0 -224 110 -224 293zM133 238c0 -99 54 -160 120 -160
c72 0 119 64 119 160c0 94 -45 160 -118 160c-74 0 -121 -62 -121 -160z" />
    <glyph glyph-name="afii10067" unicode="&#x432;" horiz-adv-x="421" 
d="M60 0v479h166c91 0 148 -51 148 -122c0 -59 -27 -93 -69 -108c52 -11 88 -53 88 -111c0 -75 -51 -138 -162 -138h-171zM228 208h-70v-130h71c42 0 64 27 64 66c0 40 -27 64 -65 64zM216 401h-58v-114h58c39 0 58 23 58 54c0 35 -16 60 -58 60z" />
    <glyph glyph-name="afii10068" unicode="&#x433;" horiz-adv-x="323" 
d="M60 479h256v-90h-155v-389h-101v479z" />
    <glyph glyph-name="afii10069" unicode="&#x434;" horiz-adv-x="537" 
d="M454 479v-387h68v-247h-101v155h-305v-155h-101v247h13c41 0 86 43 98 169l21 218h307zM353 382h-118l-12 -128c-9 -85 -24 -129 -50 -162h180v290z" />
    <glyph glyph-name="afii10070" unicode="&#x435;" horiz-adv-x="487" 
d="M246 495c148 -1 211 -124 211 -248c0 -12 -1 -26 -2 -35h-322c4 -85 50 -143 121 -143c44 0 76 22 90 53h106c-25 -74 -95 -139 -196 -139c-138 0 -225 102 -225 263c0 153 96 249 217 249zM353 291c-2 66 -41 121 -108 121c-64 0 -106 -58 -111 -121h219z" />
    <glyph glyph-name="afii10072" unicode="&#x436;" horiz-adv-x="619" 
d="M359 0h-99v248l-143 -248h-113l157 257l-146 222h111l134 -218v218h99v-218l134 218h111l-146 -222l157 -257h-113l-143 248v-248z" />
    <glyph glyph-name="afii10073" unicode="&#x437;" horiz-adv-x="397" 
d="M20 124h100c5 -35 30 -57 72 -57c44 0 67 31 67 70c0 44 -29 71 -70 71h-41v79h42c39 0 60 24 60 62c0 34 -22 61 -60 61c-29 0 -53 -15 -61 -48h-98c9 82 74 133 160 133c97 0 160 -55 160 -141c0 -52 -29 -91 -72 -106c45 -13 83 -59 83 -117c0 -78 -53 -148 -173 -148
c-95 0 -157 47 -169 141z" />
    <glyph glyph-name="afii10074" unicode="&#x438;" horiz-adv-x="508" 
d="M60 0v479h101v-219c0 -31 -1 -64 -3 -95h3c16 30 37 64 56 94l137 220h94v-479h-102v225c0 31 1 64 3 96h-4c-14 -30 -31 -59 -47 -87l-145 -234h-93z" />
    <glyph glyph-name="afii10075" unicode="&#x439;" horiz-adv-x="508" 
d="M60 0v479h101v-219c0 -31 -1 -64 -3 -95h3c16 30 37 64 56 94l137 220h94v-479h-102v225c0 31 1 64 3 96h-4c-14 -30 -31 -59 -47 -87l-145 -234h-93zM329 717h75c-4 -85 -60 -150 -150 -150c-88 0 -145 54 -150 150h75c4 -41 29 -73 75 -73s72 32 75 73z" />
    <glyph glyph-name="afii10076" unicode="&#x43a;" horiz-adv-x="449" 
d="M329 0l-167 248v-248h-102v479h102v-218l158 218h114l-169 -222l180 -257h-116z" />
    <glyph glyph-name="afii10077" unicode="&#x43b;" horiz-adv-x="493" 
d="M75 150l34 329h324v-479h-100v386h-134l-27 -243c-12 -107 -44 -149 -125 -149c-16 0 -29 3 -41 6v92c7 -2 17 -4 25 -4c26 0 40 16 44 62z" />
    <glyph glyph-name="afii10078" unicode="&#x43c;" horiz-adv-x="592" 
d="M498 479l72 -479h-95l-32 232c-5 31 -12 82 -13 115h-4c-5 -35 -13 -83 -24 -119l-64 -228h-83l-66 231c-10 36 -19 85 -25 118h-3c-3 -33 -8 -76 -13 -113l-32 -236h-94l73 479h109l70 -242c8 -30 16 -66 21 -95h4c5 30 14 70 21 97l70 240h108z" />
    <glyph glyph-name="afii10079" unicode="&#x43d;" horiz-adv-x="508" 
d="M60 0v479h101v-185h186v185h101v-479h-101v202h-186v-202h-101z" />
    <glyph glyph-name="afii10080" unicode="&#x43e;" horiz-adv-x="515" 
d="M29 240c0 148 93 254 228 254c138 0 228 -109 228 -254c0 -141 -91 -256 -228 -256c-135 0 -228 111 -228 256zM133 240c0 -101 56 -162 124 -162c74 0 124 64 124 162c0 94 -47 161 -124 161c-75 0 -124 -62 -124 -161z" />
    <glyph glyph-name="afii10081" unicode="&#x43f;" horiz-adv-x="493" 
d="M60 0v479h373v-479h-102v387h-170v-387h-101z" />
    <glyph glyph-name="afii10082" unicode="&#x440;" horiz-adv-x="539" 
d="M60 -235v714h102v-63c29 44 75 78 142 78c113 0 206 -100 206 -256c0 -148 -86 -254 -209 -254c-68 0 -113 34 -139 77v-296h-102zM406 238c0 91 -43 164 -127 164c-66 0 -125 -66 -125 -161c0 -101 56 -165 123 -165c85 0 129 70 129 162z" />
    <glyph glyph-name="afii10083" unicode="&#x441;" horiz-adv-x="485" 
d="M257 494c119 0 181 -83 196 -156h-107c-13 38 -44 63 -91 63c-62 0 -122 -49 -122 -161c0 -98 52 -163 123 -163c53 0 83 30 96 71h107c-19 -79 -88 -164 -202 -164c-130 0 -228 97 -228 257c0 140 83 253 228 253z" />
    <glyph glyph-name="afii10084" unicode="&#x442;" horiz-adv-x="344" 
d="M6 479h332v-90h-115v-389h-102v389h-115v90z" />
    <glyph glyph-name="afii10085" unicode="&#x443;" horiz-adv-x="415" 
d="M84 -235l78 239l-164 475h109l65 -203c12 -38 31 -100 40 -146h2c7 35 24 101 37 146l58 203h105l-228 -714h-102z" />
    <glyph glyph-name="afii10086" unicode="&#x444;" horiz-adv-x="747" 
d="M139 240c0 -99 34 -164 96 -164c49 0 95 62 95 161c0 104 -42 165 -94 165c-65 0 -97 -67 -97 -162zM322 -235v292c-26 -45 -62 -73 -117 -73c-93 0 -170 92 -170 256c0 156 70 254 173 254c55 0 93 -29 114 -72v298h102v-299c26 45 63 73 118 73c93 0 170 -92 170 -256
c0 -156 -70 -254 -172 -254c-56 0 -94 29 -116 72v-291h-102zM608 238c0 99 -34 164 -96 164c-48 0 -96 -62 -96 -161c0 -104 44 -165 94 -165c66 0 98 66 98 162z" />
    <glyph glyph-name="afii10087" unicode="&#x445;" horiz-adv-x="403" 
d="M6 0l140 245l-129 234h112l51 -101c9 -16 18 -41 23 -57h4c5 16 14 37 22 54l53 104h109l-132 -232l138 -247h-112l-59 116c-8 15 -19 40 -23 54h-5c-5 -15 -16 -40 -24 -56l-61 -114h-107z" />
    <glyph glyph-name="afii10088" unicode="&#x446;" horiz-adv-x="517" 
d="M434 479v-387h68v-247h-101v155h-341v479h101v-387h172v387h101z" />
    <glyph glyph-name="afii10089" unicode="&#x447;" horiz-adv-x="491" 
d="M431 479v-479h-101v227c-24 -45 -78 -74 -131 -74c-89 0 -156 58 -156 215v111h102v-100c0 -93 30 -132 84 -132c61 0 101 46 101 143v89h101z" />
    <glyph glyph-name="afii10090" unicode="&#x448;" horiz-adv-x="752" 
d="M692 0h-632v479h101v-387h164v387h102v-387h164v387h101v-479z" />
    <glyph glyph-name="afii10091" unicode="&#x449;" horiz-adv-x="775" 
d="M659 0h-599v479h101v-387h164v387h102v-387h164v387h101v-387h68v-247h-101v155z" />
    <glyph glyph-name="afii10092" unicode="&#x44a;" horiz-adv-x="474" 
d="M275 213h-53v-133h52c44 0 69 24 69 68c0 43 -24 65 -68 65zM121 389h-115v90h216v-185h59c96 0 163 -46 163 -145c0 -89 -53 -149 -166 -149h-157v389z" />
    <glyph glyph-name="afii10093" unicode="&#x44b;" horiz-adv-x="611" 
d="M214 213h-53v-133h52c45 0 69 24 69 68c0 43 -24 65 -68 65zM161 294h59c96 0 163 -46 163 -145c0 -89 -53 -149 -167 -149h-156v479h101v-185zM450 0v479h102v-479h-102z" />
    <glyph glyph-name="afii10094" unicode="&#x44c;" horiz-adv-x="412" 
d="M214 213h-53v-133h52c45 0 69 24 69 68c0 43 -24 65 -68 65zM161 294h59c96 0 163 -46 163 -145c0 -89 -53 -149 -167 -149h-156v479h101v-185z" />
    <glyph glyph-name="afii10095" unicode="&#x44d;" horiz-adv-x="485" 
d="M188 208v79h159c-11 74 -55 114 -114 114c-53 0 -82 -28 -94 -57h-108c20 73 86 150 202 150c127 0 222 -96 222 -257c0 -142 -86 -253 -226 -253c-121 0 -188 82 -204 160h108c11 -42 46 -67 99 -67c57 0 108 39 117 131h-161z" />
    <glyph glyph-name="afii10096" unicode="&#x44e;" horiz-adv-x="704" 
d="M452 -16c-120 0 -205 92 -219 218h-72v-202h-101v479h101v-185h74c19 119 102 200 217 200c135 0 223 -109 223 -254c0 -141 -89 -256 -223 -256zM334 240c0 -101 53 -162 118 -162c71 0 118 64 118 162c0 94 -45 161 -118 161c-72 0 -118 -62 -118 -161z" />
    <glyph glyph-name="afii10097" unicode="&#x44f;" horiz-adv-x="434" 
d="M275 180h-58l-92 -180h-112l112 196c-50 21 -84 64 -84 133c0 79 52 150 168 150h165v-479h-99v180zM215 259h60v141h-58c-52 0 -75 -34 -75 -72c0 -41 24 -69 73 -69z" />
    <glyph glyph-name="uni0400" unicode="&#x400;" horiz-adv-x="444" 
d="M393 682v-100h-219v-181h209v-97h-209v-204h227v-100h-337v682h329zM108 826l43 74l158 -108l-36 -55z" />
    <glyph glyph-name="uni0450" unicode="&#x450;" horiz-adv-x="487" 
d="M246 495c148 0 211 -125 211 -248c0 -12 -1 -26 -2 -35h-322c4 -85 49 -143 121 -143c44 0 75 22 90 53h106c-24 -74 -96 -139 -196 -139c-139 0 -225 102 -225 263c0 153 96 249 217 249zM134 291h219c-3 67 -40 121 -108 121c-64 0 -106 -58 -111 -121zM125 671l57 65
l134 -135l-45 -48z" />
    <glyph glyph-name="uni040D" unicode="&#x40d;" horiz-adv-x="610" 
d="M435 0v342c0 51 1 95 4 145h-4c-38 -79 -81 -157 -117 -219l-152 -268h-101v682h110v-345c0 -44 -1 -88 -4 -132h4c37 74 74 137 110 201l158 276h102v-682h-110zM202 826l43 74l158 -108l-36 -55z" />
    <glyph glyph-name="uni045D" unicode="&#x45d;" horiz-adv-x="508" 
d="M60 0v479h101v-219c0 -31 -1 -64 -3 -95h3c16 30 37 64 56 94l137 220h94v-479h-102v225c0 31 1 64 3 96h-4c-14 -30 -31 -59 -47 -87l-145 -234h-93zM152 671l57 65l134 -135l-45 -48z" />
    <glyph glyph-name="uni2010" unicode="&#x2010;" horiz-adv-x="386" 
d="M326 218h-266v92h266v-92z" />
    <glyph glyph-name="f_i" unicode="&#xf001;" horiz-adv-x="485" 
d="M16 389v90h55v77c0 116 40 171 149 171c16 0 39 -3 50 -6v-90c-12 3 -25 5 -38 5c-45 0 -59 -25 -59 -74v-83h81v-90h-81v-389h-102v389h-55zM324 0v479h101v-479h-101zM320 589v108h110v-108h-110z" />
    <glyph glyph-name="f_l" unicode="&#xf002;" horiz-adv-x="488" 
d="M16 389v90h55v77c0 116 40 171 149 171c16 0 39 -3 50 -6v-90c-12 3 -25 5 -38 5c-45 0 -59 -25 -59 -74v-83h81v-90h-81v-389h-102v389h-55zM326 0v720h102v-720h-102z" />
    </font>
</defs>
</svg>
